<svg height="420px" viewBox="0 0 560 420" width="560px" xmlns="http://www.w3.org/2000/svg" xmlns:xlink="http://www.w3.org/1999/xlink">

<title>Gnuplot</title>
<desc>Produced by GNUPLOT 5.0 patchlevel 3 </desc>

<g id="gnuplot_canvas">

<rect fill="none" height="420" width="560" x="0" y="0"/>
<defs>

	<circle id="gpDot" r="0.5" stroke-width="0.5"/>
	<path d="M-1,0 h2 M0,-1 v2" id="gpPt0" stroke="currentColor" stroke-width="0.222"/>
	<path d="M-1,-1 L1,1 M1,-1 L-1,1" id="gpPt1" stroke="currentColor" stroke-width="0.222"/>
	<path d="M-1,0 L1,0 M0,-1 L0,1 M-1,-1 L1,1 M-1,1 L1,-1" id="gpPt2" stroke="currentColor" stroke-width="0.222"/>
	<rect height="2" id="gpPt3" stroke="currentColor" stroke-width="0.222" width="2" x="-1" y="-1"/>
	<rect fill="currentColor" height="2" id="gpPt4" stroke="currentColor" stroke-width="0.222" width="2" x="-1" y="-1"/>
	<circle cx="0" cy="0" id="gpPt5" r="1" stroke="currentColor" stroke-width="0.222"/>
	<use fill="currentColor" id="gpPt6" stroke="none" xlink:href="#gpPt5"/>
	<path d="M0,-1.33 L-1.33,0.67 L1.33,0.67 z" id="gpPt7" stroke="currentColor" stroke-width="0.222"/>
	<use fill="currentColor" id="gpPt8" stroke="none" xlink:href="#gpPt7"/>
	<use id="gpPt9" stroke="currentColor" transform="rotate(180)" xlink:href="#gpPt7"/>
	<use fill="currentColor" id="gpPt10" stroke="none" xlink:href="#gpPt9"/>
	<use id="gpPt11" stroke="currentColor" transform="rotate(45)" xlink:href="#gpPt3"/>
	<use fill="currentColor" id="gpPt12" stroke="none" xlink:href="#gpPt11"/>
	<path d="M0,1.330 L1.265,0.411 L0.782,-1.067 L-0.782,-1.076 L-1.265,0.411 z" id="gpPt13" stroke="currentColor" stroke-width="0.222"/>
	<use fill="currentColor" id="gpPt14" stroke="none" xlink:href="#gpPt13"/>
	<filter filterUnits="objectBoundingBox" height="1" id="textbox" width="1" x="0" y="0">
	  <feFlood flood-color="white" flood-opacity="1" result="bgnd"/>
	  <feComposite in="SourceGraphic" in2="bgnd" operator="atop"/>
	</filter>
	<filter filterUnits="objectBoundingBox" height="1" id="greybox" width="1" x="0" y="0">
	  <feFlood flood-color="lightgrey" flood-opacity="1" result="grey"/>
	  <feComposite in="SourceGraphic" in2="grey" operator="atop"/>
	</filter>
</defs>
<g color="white" fill="none" stroke="currentColor" stroke-linecap="butt" stroke-linejoin="miter" stroke-width="1.00">
</g>
<g color="black" fill="none" stroke="currentColor" stroke-linecap="butt" stroke-linejoin="miter" stroke-width="1.00">
	<g shape-rendering="crispEdges" stroke="none">
		<polygon fill="rgb(255, 255, 255)" points="88.5,362.4 534.9,362.4 534.9,16.8 88.5,16.8 "/>
	</g>
</g>
<g color="black" fill="none" stroke="rgb(255, 255, 255)" stroke-linecap="butt" stroke-linejoin="miter" stroke-width="0.50">
</g>
<g color="black" fill="none" stroke="currentColor" stroke-linecap="butt" stroke-linejoin="miter" stroke-width="0.50">
	<path d="M88.5,362.4 L101.0,362.4 M535.0,362.4 L522.5,362.4  " stroke="black"/>	<g fill="rgb(0,0,0)" font-family="{}" font-size="16.00" stroke="none" text-anchor="end" transform="translate(80.2,368.4)">
		<text><tspan font-family="{}">0</tspan></text>
	</g>
</g>
<g color="black" fill="none" stroke="currentColor" stroke-linecap="butt" stroke-linejoin="miter" stroke-width="0.50">
	<path d="M88.5,293.3 L101.0,293.3 M535.0,293.3 L522.5,293.3  " stroke="black"/>	<g fill="rgb(0,0,0)" font-family="{}" font-size="16.00" stroke="none" text-anchor="end" transform="translate(80.2,299.3)">
		<text><tspan font-family="{}">0.0005</tspan></text>
	</g>
</g>
<g color="black" fill="none" stroke="currentColor" stroke-linecap="butt" stroke-linejoin="miter" stroke-width="0.50">
	<path d="M88.5,224.1 L101.0,224.1 M535.0,224.1 L522.5,224.1  " stroke="black"/>	<g fill="rgb(0,0,0)" font-family="{}" font-size="16.00" stroke="none" text-anchor="end" transform="translate(80.2,230.1)">
		<text><tspan font-family="{}">0.001</tspan></text>
	</g>
</g>
<g color="black" fill="none" stroke="currentColor" stroke-linecap="butt" stroke-linejoin="miter" stroke-width="0.50">
	<path d="M88.5,155.0 L101.0,155.0 M535.0,155.0 L522.5,155.0  " stroke="black"/>	<g fill="rgb(0,0,0)" font-family="{}" font-size="16.00" stroke="none" text-anchor="end" transform="translate(80.2,161.0)">
		<text><tspan font-family="{}">0.0015</tspan></text>
	</g>
</g>
<g color="black" fill="none" stroke="currentColor" stroke-linecap="butt" stroke-linejoin="miter" stroke-width="0.50">
	<path d="M88.5,85.8 L101.0,85.8 M535.0,85.8 L522.5,85.8  " stroke="black"/>	<g fill="rgb(0,0,0)" font-family="{}" font-size="16.00" stroke="none" text-anchor="end" transform="translate(80.2,91.8)">
		<text><tspan font-family="{}">0.002</tspan></text>
	</g>
</g>
<g color="black" fill="none" stroke="currentColor" stroke-linecap="butt" stroke-linejoin="miter" stroke-width="0.50">
	<path d="M88.5,16.7 L101.0,16.7 M535.0,16.7 L522.5,16.7  " stroke="black"/>	<g fill="rgb(0,0,0)" font-family="{}" font-size="16.00" stroke="none" text-anchor="end" transform="translate(80.2,22.7)">
		<text><tspan font-family="{}">0.0025</tspan></text>
	</g>
</g>
<g color="black" fill="none" stroke="currentColor" stroke-linecap="butt" stroke-linejoin="miter" stroke-width="0.50">
	<path d="M88.5,362.4 L88.5,349.9 M88.5,16.7 L88.5,29.2  " stroke="black"/>	<g fill="rgb(0,0,0)" font-family="{}" font-size="16.00" stroke="none" text-anchor="middle" transform="translate(88.5,386.4)">
		<text><tspan font-family="{}">-0.01</tspan></text>
	</g>
</g>
<g color="black" fill="none" stroke="currentColor" stroke-linecap="butt" stroke-linejoin="miter" stroke-width="0.50">
	<path d="M177.8,362.4 L177.8,349.9 M177.8,16.7 L177.8,29.2  " stroke="black"/>	<g fill="rgb(0,0,0)" font-family="{}" font-size="16.00" stroke="none" text-anchor="middle" transform="translate(177.8,386.4)">
		<text><tspan font-family="{}">0</tspan></text>
	</g>
</g>
<g color="black" fill="none" stroke="currentColor" stroke-linecap="butt" stroke-linejoin="miter" stroke-width="0.50">
	<path d="M267.1,362.4 L267.1,349.9 M267.1,16.7 L267.1,29.2  " stroke="black"/>	<g fill="rgb(0,0,0)" font-family="{}" font-size="16.00" stroke="none" text-anchor="middle" transform="translate(267.1,386.4)">
		<text><tspan font-family="{}">0.01</tspan></text>
	</g>
</g>
<g color="black" fill="none" stroke="currentColor" stroke-linecap="butt" stroke-linejoin="miter" stroke-width="0.50">
	<path d="M356.4,362.4 L356.4,349.9 M356.4,16.7 L356.4,29.2  " stroke="black"/>	<g fill="rgb(0,0,0)" font-family="{}" font-size="16.00" stroke="none" text-anchor="middle" transform="translate(356.4,386.4)">
		<text><tspan font-family="{}">0.02</tspan></text>
	</g>
</g>
<g color="black" fill="none" stroke="currentColor" stroke-linecap="butt" stroke-linejoin="miter" stroke-width="0.50">
	<path d="M445.7,362.4 L445.7,349.9 M445.7,16.7 L445.7,29.2  " stroke="black"/>	<g fill="rgb(0,0,0)" font-family="{}" font-size="16.00" stroke="none" text-anchor="middle" transform="translate(445.7,386.4)">
		<text><tspan font-family="{}">0.03</tspan></text>
	</g>
</g>
<g color="black" fill="none" stroke="currentColor" stroke-linecap="butt" stroke-linejoin="miter" stroke-width="0.50">
	<path d="M535.0,362.4 L535.0,349.9 M535.0,16.7 L535.0,29.2  " stroke="black"/>	<g fill="rgb(0,0,0)" font-family="{}" font-size="16.00" stroke="none" text-anchor="middle" transform="translate(535.0,386.4)">
		<text><tspan font-family="{}">0.04</tspan></text>
	</g>
</g>
<g color="black" fill="none" stroke="currentColor" stroke-linecap="butt" stroke-linejoin="miter" stroke-width="0.50">
</g>
<g color="black" fill="none" stroke="currentColor" stroke-linecap="butt" stroke-linejoin="miter" stroke-width="0.50">
	<path d="M88.5,16.7 L88.5,362.4 L535.0,362.4 L535.0,16.7 L88.5,16.7 Z  " stroke="black"/></g>
<g color="black" fill="none" stroke="currentColor" stroke-linecap="butt" stroke-linejoin="miter" stroke-width="0.50">
	<g fill="rgb(0,0,0)" font-family="{}" font-size="16.00" stroke="none" text-anchor="middle" transform="translate(19.1,189.6) rotate(-90)">
		<text><tspan font-family="{}">Force (nN)</tspan></text>
	</g>
</g>
<g color="black" fill="none" stroke="currentColor" stroke-linecap="butt" stroke-linejoin="miter" stroke-width="0.50">
	<g fill="rgb(0,0,0)" font-family="{}" font-size="16.00" stroke="none" text-anchor="middle" transform="translate(311.7,413.4)">
		<text><tspan font-family="{}">dx (nm)</tspan></text>
	</g>
</g>
<g color="black" fill="none" stroke="currentColor" stroke-linecap="butt" stroke-linejoin="miter" stroke-width="0.50">
</g>
	<g id="gnuplot_plot_1a"><title>gnuplot_plot_1a</title>
<g color="white" fill="none" stroke="currentColor" stroke-linecap="butt" stroke-linejoin="miter" stroke-width="3.00">
</g>
<g color="black" fill="none" stroke="currentColor" stroke-linecap="butt" stroke-linejoin="miter" stroke-width="3.00">
	<path d="M177.8,362.4 L180.0,356.2 L182.3,350.0 L184.7,343.8 L187.0,337.6 L189.4,331.4 L191.9,325.1 L194.3,318.9   L196.9,312.7 L199.5,306.5 L202.1,300.3 L204.8,294.1 L207.5,287.9 L210.3,281.7 L213.2,275.5 L216.1,269.3   L219.1,263.1 L222.1,256.9 L225.2,250.6 L228.4,244.4 L231.7,238.2 L235.1,232.0 L238.5,225.8 L242.1,219.6   L245.7,213.4 L249.5,207.2 L253.4,201.0 L257.4,194.8 L261.5,188.6 L265.8,182.4 L270.2,176.1 L274.8,169.9   L279.6,163.7 L284.6,157.5 L289.8,151.3 L295.2,145.1 L300.9,138.9 L307.0,132.7 L313.3,126.5 L320.1,120.3   L327.4,114.1 L335.1,107.9 L343.6,101.6 L352.8,95.4 L363.0,89.2 L374.6,83.0 L388.0,76.8 L404.3,70.6   L425.6,64.4 L461.7,58.2  " stroke="rgb(  0,   0, 255)"/></g>
	</g>
<g color="white" fill="none" stroke="rgb(  0,   0, 255)" stroke-linecap="butt" stroke-linejoin="miter" stroke-width="2.00">
</g>
<g color="black" fill="none" stroke="currentColor" stroke-linecap="butt" stroke-linejoin="miter" stroke-width="2.00">
</g>
<g color="black" fill="none" stroke="black" stroke-linecap="butt" stroke-linejoin="miter" stroke-width="0.50">
</g>
<g color="black" fill="none" stroke="currentColor" stroke-linecap="butt" stroke-linejoin="miter" stroke-width="0.50">
</g>
</g>
</svg>