<svg height="420px" viewBox="0 0 560 420" width="560px" xmlns="http://www.w3.org/2000/svg" xmlns:xlink="http://www.w3.org/1999/xlink">

<title>Gnuplot</title>
<desc>Produced by GNUPLOT 5.0 patchlevel 3 </desc>

<g id="gnuplot_canvas">

<rect fill="none" height="420" width="560" x="0" y="0"/>
<defs>

	<circle id="gpDot" r="0.5" stroke-width="0.5"/>
	<path d="M-1,0 h2 M0,-1 v2" id="gpPt0" stroke="currentColor" stroke-width="0.222"/>
	<path d="M-1,-1 L1,1 M1,-1 L-1,1" id="gpPt1" stroke="currentColor" stroke-width="0.222"/>
	<path d="M-1,0 L1,0 M0,-1 L0,1 M-1,-1 L1,1 M-1,1 L1,-1" id="gpPt2" stroke="currentColor" stroke-width="0.222"/>
	<rect height="2" id="gpPt3" stroke="currentColor" stroke-width="0.222" width="2" x="-1" y="-1"/>
	<rect fill="currentColor" height="2" id="gpPt4" stroke="currentColor" stroke-width="0.222" width="2" x="-1" y="-1"/>
	<circle cx="0" cy="0" id="gpPt5" r="1" stroke="currentColor" stroke-width="0.222"/>
	<use fill="currentColor" id="gpPt6" stroke="none" xlink:href="#gpPt5"/>
	<path d="M0,-1.33 L-1.33,0.67 L1.33,0.67 z" id="gpPt7" stroke="currentColor" stroke-width="0.222"/>
	<use fill="currentColor" id="gpPt8" stroke="none" xlink:href="#gpPt7"/>
	<use id="gpPt9" stroke="currentColor" transform="rotate(180)" xlink:href="#gpPt7"/>
	<use fill="currentColor" id="gpPt10" stroke="none" xlink:href="#gpPt9"/>
	<use id="gpPt11" stroke="currentColor" transform="rotate(45)" xlink:href="#gpPt3"/>
	<use fill="currentColor" id="gpPt12" stroke="none" xlink:href="#gpPt11"/>
	<path d="M0,1.330 L1.265,0.411 L0.782,-1.067 L-0.782,-1.076 L-1.265,0.411 z" id="gpPt13" stroke="currentColor" stroke-width="0.222"/>
	<use fill="currentColor" id="gpPt14" stroke="none" xlink:href="#gpPt13"/>
	<filter filterUnits="objectBoundingBox" height="1" id="textbox" width="1" x="0" y="0">
	  <feFlood flood-color="white" flood-opacity="1" result="bgnd"/>
	  <feComposite in="SourceGraphic" in2="bgnd" operator="atop"/>
	</filter>
	<filter filterUnits="objectBoundingBox" height="1" id="greybox" width="1" x="0" y="0">
	  <feFlood flood-color="lightgrey" flood-opacity="1" result="grey"/>
	  <feComposite in="SourceGraphic" in2="grey" operator="atop"/>
	</filter>
</defs>
<g color="white" fill="none" stroke="currentColor" stroke-linecap="butt" stroke-linejoin="miter" stroke-width="1.00">
</g>
<g color="black" fill="none" stroke="currentColor" stroke-linecap="butt" stroke-linejoin="miter" stroke-width="1.00">
	<g shape-rendering="crispEdges" stroke="none">
		<polygon fill="rgb(255, 255, 255)" points="62.2,384.0 534.9,384.0 534.9,16.8 62.2,16.8 "/>
	</g>
</g>
<g color="black" fill="none" stroke="rgb(255, 255, 255)" stroke-linecap="butt" stroke-linejoin="miter" stroke-width="0.50">
</g>
<g color="black" fill="none" stroke="currentColor" stroke-linecap="butt" stroke-linejoin="miter" stroke-width="0.50">
	<path d="M62.2,384.0 L74.7,384.0 M535.0,384.0 L522.5,384.0  " stroke="black"/>	<g fill="rgb(0,0,0)" font-family="{}" font-size="16.00" stroke="none" text-anchor="end" transform="translate(53.9,390.0)">
		<text><tspan font-family="{}">-0.04</tspan></text>
	</g>
</g>
<g color="black" fill="none" stroke="currentColor" stroke-linecap="butt" stroke-linejoin="miter" stroke-width="0.50">
	<path d="M62.2,322.8 L74.7,322.8 M535.0,322.8 L522.5,322.8  " stroke="black"/>	<g fill="rgb(0,0,0)" font-family="{}" font-size="16.00" stroke="none" text-anchor="end" transform="translate(53.9,328.8)">
		<text><tspan font-family="{}">-0.02</tspan></text>
	</g>
</g>
<g color="black" fill="none" stroke="currentColor" stroke-linecap="butt" stroke-linejoin="miter" stroke-width="0.50">
	<path d="M62.2,261.6 L74.7,261.6 M535.0,261.6 L522.5,261.6  " stroke="black"/>	<g fill="rgb(0,0,0)" font-family="{}" font-size="16.00" stroke="none" text-anchor="end" transform="translate(53.9,267.6)">
		<text><tspan font-family="{}">0</tspan></text>
	</g>
</g>
<g color="black" fill="none" stroke="currentColor" stroke-linecap="butt" stroke-linejoin="miter" stroke-width="0.50">
	<path d="M62.2,200.3 L74.7,200.3 M535.0,200.3 L522.5,200.3  " stroke="black"/>	<g fill="rgb(0,0,0)" font-family="{}" font-size="16.00" stroke="none" text-anchor="end" transform="translate(53.9,206.3)">
		<text><tspan font-family="{}">0.02</tspan></text>
	</g>
</g>
<g color="black" fill="none" stroke="currentColor" stroke-linecap="butt" stroke-linejoin="miter" stroke-width="0.50">
	<path d="M62.2,139.1 L74.7,139.1 M535.0,139.1 L522.5,139.1  " stroke="black"/>	<g fill="rgb(0,0,0)" font-family="{}" font-size="16.00" stroke="none" text-anchor="end" transform="translate(53.9,145.1)">
		<text><tspan font-family="{}">0.04</tspan></text>
	</g>
</g>
<g color="black" fill="none" stroke="currentColor" stroke-linecap="butt" stroke-linejoin="miter" stroke-width="0.50">
	<path d="M62.2,77.9 L74.7,77.9 M535.0,77.9 L522.5,77.9  " stroke="black"/>	<g fill="rgb(0,0,0)" font-family="{}" font-size="16.00" stroke="none" text-anchor="end" transform="translate(53.9,83.9)">
		<text><tspan font-family="{}">0.06</tspan></text>
	</g>
</g>
<g color="black" fill="none" stroke="currentColor" stroke-linecap="butt" stroke-linejoin="miter" stroke-width="0.50">
	<path d="M62.2,16.7 L74.7,16.7 M535.0,16.7 L522.5,16.7  " stroke="black"/>	<g fill="rgb(0,0,0)" font-family="{}" font-size="16.00" stroke="none" text-anchor="end" transform="translate(53.9,22.7)">
		<text><tspan font-family="{}">0.08</tspan></text>
	</g>
</g>
<g color="black" fill="none" stroke="currentColor" stroke-linecap="butt" stroke-linejoin="miter" stroke-width="0.50">
	<path d="M62.2,384.0 L62.2,371.5 M62.2,16.7 L62.2,29.2  " stroke="black"/>	<g fill="rgb(0,0,0)" font-family="{}" font-size="16.00" stroke="none" text-anchor="middle" transform="translate(62.2,408.0)">
		<text><tspan font-family="{}">2.5</tspan></text>
	</g>
</g>
<g color="black" fill="none" stroke="currentColor" stroke-linecap="butt" stroke-linejoin="miter" stroke-width="0.50">
	<path d="M129.7,384.0 L129.7,371.5 M129.7,16.7 L129.7,29.2  " stroke="black"/>	<g fill="rgb(0,0,0)" font-family="{}" font-size="16.00" stroke="none" text-anchor="middle" transform="translate(129.7,408.0)">
		<text><tspan font-family="{}">3</tspan></text>
	</g>
</g>
<g color="black" fill="none" stroke="currentColor" stroke-linecap="butt" stroke-linejoin="miter" stroke-width="0.50">
	<path d="M197.3,384.0 L197.3,371.5 M197.3,16.7 L197.3,29.2  " stroke="black"/>	<g fill="rgb(0,0,0)" font-family="{}" font-size="16.00" stroke="none" text-anchor="middle" transform="translate(197.3,408.0)">
		<text><tspan font-family="{}">3.5</tspan></text>
	</g>
</g>
<g color="black" fill="none" stroke="currentColor" stroke-linecap="butt" stroke-linejoin="miter" stroke-width="0.50">
	<path d="M264.8,384.0 L264.8,371.5 M264.8,16.7 L264.8,29.2  " stroke="black"/>	<g fill="rgb(0,0,0)" font-family="{}" font-size="16.00" stroke="none" text-anchor="middle" transform="translate(264.8,408.0)">
		<text><tspan font-family="{}">4</tspan></text>
	</g>
</g>
<g color="black" fill="none" stroke="currentColor" stroke-linecap="butt" stroke-linejoin="miter" stroke-width="0.50">
	<path d="M332.4,384.0 L332.4,371.5 M332.4,16.7 L332.4,29.2  " stroke="black"/>	<g fill="rgb(0,0,0)" font-family="{}" font-size="16.00" stroke="none" text-anchor="middle" transform="translate(332.4,408.0)">
		<text><tspan font-family="{}">4.5</tspan></text>
	</g>
</g>
<g color="black" fill="none" stroke="currentColor" stroke-linecap="butt" stroke-linejoin="miter" stroke-width="0.50">
	<path d="M399.9,384.0 L399.9,371.5 M399.9,16.7 L399.9,29.2  " stroke="black"/>	<g fill="rgb(0,0,0)" font-family="{}" font-size="16.00" stroke="none" text-anchor="middle" transform="translate(399.9,408.0)">
		<text><tspan font-family="{}">5</tspan></text>
	</g>
</g>
<g color="black" fill="none" stroke="currentColor" stroke-linecap="butt" stroke-linejoin="miter" stroke-width="0.50">
	<path d="M467.5,384.0 L467.5,371.5 M467.5,16.7 L467.5,29.2  " stroke="black"/>	<g fill="rgb(0,0,0)" font-family="{}" font-size="16.00" stroke="none" text-anchor="middle" transform="translate(467.5,408.0)">
		<text><tspan font-family="{}">5.5</tspan></text>
	</g>
</g>
<g color="black" fill="none" stroke="currentColor" stroke-linecap="butt" stroke-linejoin="miter" stroke-width="0.50">
	<path d="M535.0,384.0 L535.0,371.5 M535.0,16.7 L535.0,29.2  " stroke="black"/>	<g fill="rgb(0,0,0)" font-family="{}" font-size="16.00" stroke="none" text-anchor="middle" transform="translate(535.0,408.0)">
		<text><tspan font-family="{}">6</tspan></text>
	</g>
</g>
<g color="black" fill="none" stroke="currentColor" stroke-linecap="butt" stroke-linejoin="miter" stroke-width="0.50">
</g>
<g color="black" fill="none" stroke="currentColor" stroke-linecap="butt" stroke-linejoin="miter" stroke-width="0.50">
	<path d="M62.2,16.7 L62.2,384.0 L535.0,384.0 L535.0,16.7 L62.2,16.7 Z  " stroke="black"/></g>
<g color="black" fill="none" stroke="currentColor" stroke-linecap="butt" stroke-linejoin="miter" stroke-width="0.50">
</g>
	<g id="gnuplot_plot_1a"><title>gnuplot_plot_1a</title>
<g color="white" fill="none" stroke="black" stroke-linecap="butt" stroke-linejoin="miter" stroke-width="3.00">
</g>
<g color="black" fill="none" stroke="currentColor" stroke-linecap="butt" stroke-linejoin="miter" stroke-width="3.00">
	<path d="M102.7,56.9 L104.9,91.1 L107.1,122.2 L109.2,150.4 L111.4,176.0 L113.6,199.2 L115.8,220.2 L117.9,239.1   L120.1,256.2 L122.3,271.7 L124.4,285.6 L126.6,298.1 L128.8,309.3 L131.0,319.3 L133.1,328.2 L135.3,336.1   L137.5,343.2 L139.7,349.4 L141.8,354.9 L144.0,359.7 L146.2,363.8 L148.3,367.4 L150.5,370.4 L152.7,373.0   L154.9,375.2 L157.0,376.9 L159.2,378.3 L161.4,379.4 L163.5,380.1 L165.7,380.6 L167.9,380.9 L170.1,380.9   L172.2,380.8 L174.4,380.4 L176.6,379.9 L178.8,379.3 L180.9,378.5 L183.1,377.6 L185.3,376.6 L187.4,375.5   L189.6,374.4 L191.8,373.1 L194.0,371.9 L196.1,370.5 L198.3,369.1 L200.5,367.7 L202.6,366.2 L204.8,364.7   L207.0,363.2 L209.2,361.7 L211.3,360.1 L213.5,358.5 L215.7,357.0 L217.9,355.4 L220.0,353.8 L222.2,352.3   L224.4,350.7 L226.5,349.2 L228.7,347.6 L230.9,346.1 L233.1,344.6 L235.2,343.1 L237.4,341.6 L239.6,340.1   L241.7,338.6 L243.9,337.2 L246.1,335.8 L248.3,334.4 L250.4,333.0 L252.6,331.6 L254.8,330.3 L257.0,329.0   L259.1,327.7 L261.3,326.4 L263.5,325.1 L265.6,323.9 L267.8,322.7 L270.0,321.5 L272.2,320.3 L274.3,319.1   L276.5,318.0 L278.7,316.9 L280.8,315.8 L283.0,314.7 L285.2,313.7 L287.4,312.7 L289.5,311.7 L291.7,310.7   L293.9,309.7 L296.1,308.7 L298.2,307.8 L300.4,306.9 L302.6,306.0 L304.7,305.1 L306.9,304.3 L309.1,303.4   L311.3,302.6 L313.4,301.8 L315.6,301.0 L317.8,300.2 L319.9,299.5 L322.1,298.7 L324.3,298.0 L326.5,297.3   L328.6,296.6 L330.8,295.9 L333.0,295.2 L335.2,294.6 L337.3,293.9 L339.5,293.3 L341.7,292.7 L343.8,292.1   L346.0,291.5 L348.2,290.9 L350.4,290.4 L352.5,289.8 L354.7,289.3 L356.9,288.8 L359.0,288.2 L361.2,287.7   L363.4,287.2 L365.6,286.7 L367.7,286.3 L369.9,285.8 L372.1,285.3 L374.3,284.9 L376.4,284.5 L378.6,284.0   L380.8,283.6 L382.9,283.2 L385.1,282.8 L387.3,282.4 L389.5,282.0 L391.6,281.6 L393.8,281.3 L396.0,280.9   L398.1,280.5 L400.3,280.2 L402.5,279.9 L404.7,279.5 L406.8,279.2 L409.0,278.9 L411.2,278.6 L413.4,278.3   L415.5,278.0 L417.7,277.7 L419.9,277.4 L422.0,277.1 L424.2,276.8 L426.4,276.5 L428.6,276.3 L430.7,276.0   L432.9,275.8 L435.1,275.5 L437.2,275.3 L439.4,275.0 L441.6,274.8 L443.8,274.6 L445.9,274.3 L448.1,274.1   L450.3,273.9 L452.5,273.7 L454.6,273.5 L456.8,273.3 L459.0,273.1 L461.1,272.9 L463.3,272.7 L465.5,272.5   L467.7,272.3 L469.8,272.1 L472.0,271.9 L474.2,271.8 L476.3,271.6 L478.5,271.4 L480.7,271.3 L482.9,271.1   L485.0,270.9 L487.2,270.8 L489.4,270.6 L491.6,270.5 L493.7,270.3 L495.9,270.2 L498.1,270.0 L500.2,269.9   L502.4,269.8 L504.6,269.6 L506.8,269.5 L508.9,269.4 L511.1,269.3 L513.3,269.1 L515.4,269.0 L517.6,268.9   L519.8,268.8 L522.0,268.7 L524.1,268.5 L526.3,268.4 L528.5,268.3 L530.7,268.2 L532.8,268.1 L535.0,268.0    " stroke="rgb(  0,   0, 255)"/></g>
	</g>
	<g id="gnuplot_plot_2a"><title>gnuplot_plot_2a</title>
<g color="black" fill="none" stroke="currentColor" stroke-linecap="butt" stroke-linejoin="miter" stroke-width="3.00">
	<g onmousemove="gnuplot_svg.showHypertext(evt,'')" onmouseout="gnuplot_svg.hideHypertext()"><title> </title>
	<use color="rgb(255,   0,   0)" transform="translate(102.7,56.9) scale(9.00)" xlink:href="#gpPt5"/></g>
</g>
	</g>
	<g id="gnuplot_plot_3a"><title>gnuplot_plot_3a</title>
<g color="black" fill="none" stroke="currentColor" stroke-linecap="butt" stroke-linejoin="miter" stroke-width="3.00">
	<g onmousemove="gnuplot_svg.showHypertext(evt,'')" onmouseout="gnuplot_svg.hideHypertext()"><title> </title>
	<use color="rgb(255,   0,   0)" transform="translate(204.8,364.7) scale(9.00)" xlink:href="#gpPt3"/></g>
</g>
	</g>
	<g id="gnuplot_plot_4a"><title>gnuplot_plot_4a</title>
<g color="black" fill="none" stroke="currentColor" stroke-linecap="butt" stroke-linejoin="miter" stroke-width="3.00">
	<g onmousemove="gnuplot_svg.showHypertext(evt,'')" onmouseout="gnuplot_svg.hideHypertext()"><title> </title>
	<use color="rgb(  0, 255,   0)" transform="translate(267.8,322.7) scale(9.00)" xlink:href="#gpPt3"/></g>
</g>
	</g>
	<g id="gnuplot_plot_5a"><title>gnuplot_plot_5a</title>
<g color="black" fill="none" stroke="currentColor" stroke-linecap="butt" stroke-linejoin="miter" stroke-width="3.00">
	<g onmousemove="gnuplot_svg.showHypertext(evt,'')" onmouseout="gnuplot_svg.hideHypertext()"><title> </title>
	<use color="rgb(  0, 255,   0)" transform="translate(369.9,285.8) scale(9.00)" xlink:href="#gpPt5"/></g>
</g>
	</g>
	<g id="gnuplot_plot_6a"><title>gnuplot_plot_6a</title>
<g color="black" fill="none" stroke="currentColor" stroke-linecap="butt" stroke-linejoin="miter" stroke-width="3.00">
	<path d="M369.9,285.8 L267.8,322.7  " stroke="rgb(  0,   0,   0)"/></g>
	</g>
<g color="white" fill="none" stroke="rgb(  0,   0,   0)" stroke-linecap="butt" stroke-linejoin="miter" stroke-width="2.00">
</g>
<g color="black" fill="none" stroke="currentColor" stroke-linecap="butt" stroke-linejoin="miter" stroke-width="2.00">
</g>
<g color="black" fill="none" stroke="black" stroke-linecap="butt" stroke-linejoin="miter" stroke-width="0.50">
</g>
<g color="black" fill="none" stroke="currentColor" stroke-linecap="butt" stroke-linejoin="miter" stroke-width="0.50">
</g>
</g>
</svg>