<svg height="420px" viewBox="0 0 560 420" width="560px" xmlns="http://www.w3.org/2000/svg" xmlns:xlink="http://www.w3.org/1999/xlink">

<title>Gnuplot</title>
<desc>Produced by GNUPLOT 5.0 patchlevel 3 </desc>

<g id="gnuplot_canvas">

<rect fill="none" height="420" width="560" x="0" y="0"/>
<defs>

	<circle id="gpDot" r="0.5" stroke-width="0.5"/>
	<path d="M-1,0 h2 M0,-1 v2" id="gpPt0" stroke="currentColor" stroke-width="0.222"/>
	<path d="M-1,-1 L1,1 M1,-1 L-1,1" id="gpPt1" stroke="currentColor" stroke-width="0.222"/>
	<path d="M-1,0 L1,0 M0,-1 L0,1 M-1,-1 L1,1 M-1,1 L1,-1" id="gpPt2" stroke="currentColor" stroke-width="0.222"/>
	<rect height="2" id="gpPt3" stroke="currentColor" stroke-width="0.222" width="2" x="-1" y="-1"/>
	<rect fill="currentColor" height="2" id="gpPt4" stroke="currentColor" stroke-width="0.222" width="2" x="-1" y="-1"/>
	<circle cx="0" cy="0" id="gpPt5" r="1" stroke="currentColor" stroke-width="0.222"/>
	<use fill="currentColor" id="gpPt6" stroke="none" xlink:href="#gpPt5"/>
	<path d="M0,-1.33 L-1.33,0.67 L1.33,0.67 z" id="gpPt7" stroke="currentColor" stroke-width="0.222"/>
	<use fill="currentColor" id="gpPt8" stroke="none" xlink:href="#gpPt7"/>
	<use id="gpPt9" stroke="currentColor" transform="rotate(180)" xlink:href="#gpPt7"/>
	<use fill="currentColor" id="gpPt10" stroke="none" xlink:href="#gpPt9"/>
	<use id="gpPt11" stroke="currentColor" transform="rotate(45)" xlink:href="#gpPt3"/>
	<use fill="currentColor" id="gpPt12" stroke="none" xlink:href="#gpPt11"/>
	<path d="M0,1.330 L1.265,0.411 L0.782,-1.067 L-0.782,-1.076 L-1.265,0.411 z" id="gpPt13" stroke="currentColor" stroke-width="0.222"/>
	<use fill="currentColor" id="gpPt14" stroke="none" xlink:href="#gpPt13"/>
	<filter filterUnits="objectBoundingBox" height="1" id="textbox" width="1" x="0" y="0">
	  <feFlood flood-color="white" flood-opacity="1" result="bgnd"/>
	  <feComposite in="SourceGraphic" in2="bgnd" operator="atop"/>
	</filter>
	<filter filterUnits="objectBoundingBox" height="1" id="greybox" width="1" x="0" y="0">
	  <feFlood flood-color="lightgrey" flood-opacity="1" result="grey"/>
	  <feComposite in="SourceGraphic" in2="grey" operator="atop"/>
	</filter>
</defs>
<g color="white" fill="none" stroke="currentColor" stroke-linecap="butt" stroke-linejoin="miter" stroke-width="1.00">
</g>
<g color="black" fill="none" stroke="currentColor" stroke-linecap="butt" stroke-linejoin="miter" stroke-width="1.00">
	<g shape-rendering="crispEdges" stroke="none">
		<polygon fill="rgb(255, 255, 255)" points="70.5,384.0 534.9,384.0 534.9,16.8 70.5,16.8 "/>
	</g>
</g>
<g color="black" fill="none" stroke="rgb(255, 255, 255)" stroke-linecap="butt" stroke-linejoin="miter" stroke-width="0.50">
</g>
<g color="black" fill="none" stroke="currentColor" stroke-linecap="butt" stroke-linejoin="miter" stroke-width="0.50">
	<path d="M70.5,384.0 L83.0,384.0 M535.0,384.0 L522.5,384.0  " stroke="black"/>	<g fill="rgb(0,0,0)" font-family="{}" font-size="16.00" stroke="none" text-anchor="end" transform="translate(62.2,390.0)">
		<text><tspan font-family="{}">0</tspan></text>
	</g>
</g>
<g color="black" fill="none" stroke="currentColor" stroke-linecap="butt" stroke-linejoin="miter" stroke-width="0.50">
	<path d="M70.5,310.5 L83.0,310.5 M535.0,310.5 L522.5,310.5  " stroke="black"/>	<g fill="rgb(0,0,0)" font-family="{}" font-size="16.00" stroke="none" text-anchor="end" transform="translate(62.2,316.5)">
		<text><tspan font-family="{}">0.0005</tspan></text>
	</g>
</g>
<g color="black" fill="none" stroke="currentColor" stroke-linecap="butt" stroke-linejoin="miter" stroke-width="0.50">
	<path d="M70.5,237.1 L83.0,237.1 M535.0,237.1 L522.5,237.1  " stroke="black"/>	<g fill="rgb(0,0,0)" font-family="{}" font-size="16.00" stroke="none" text-anchor="end" transform="translate(62.2,243.1)">
		<text><tspan font-family="{}">0.001</tspan></text>
	</g>
</g>
<g color="black" fill="none" stroke="currentColor" stroke-linecap="butt" stroke-linejoin="miter" stroke-width="0.50">
	<path d="M70.5,163.6 L83.0,163.6 M535.0,163.6 L522.5,163.6  " stroke="black"/>	<g fill="rgb(0,0,0)" font-family="{}" font-size="16.00" stroke="none" text-anchor="end" transform="translate(62.2,169.6)">
		<text><tspan font-family="{}">0.0015</tspan></text>
	</g>
</g>
<g color="black" fill="none" stroke="currentColor" stroke-linecap="butt" stroke-linejoin="miter" stroke-width="0.50">
	<path d="M70.5,90.2 L83.0,90.2 M535.0,90.2 L522.5,90.2  " stroke="black"/>	<g fill="rgb(0,0,0)" font-family="{}" font-size="16.00" stroke="none" text-anchor="end" transform="translate(62.2,96.2)">
		<text><tspan font-family="{}">0.002</tspan></text>
	</g>
</g>
<g color="black" fill="none" stroke="currentColor" stroke-linecap="butt" stroke-linejoin="miter" stroke-width="0.50">
	<path d="M70.5,16.7 L83.0,16.7 M535.0,16.7 L522.5,16.7  " stroke="black"/>	<g fill="rgb(0,0,0)" font-family="{}" font-size="16.00" stroke="none" text-anchor="end" transform="translate(62.2,22.7)">
		<text><tspan font-family="{}">0.0025</tspan></text>
	</g>
</g>
<g color="black" fill="none" stroke="currentColor" stroke-linecap="butt" stroke-linejoin="miter" stroke-width="0.50">
	<path d="M70.5,384.0 L70.5,371.5 M70.5,16.7 L70.5,29.2  " stroke="black"/>	<g fill="rgb(0,0,0)" font-family="{}" font-size="16.00" stroke="none" text-anchor="middle" transform="translate(70.5,408.0)">
		<text><tspan font-family="{}">0</tspan></text>
	</g>
</g>
<g color="black" fill="none" stroke="currentColor" stroke-linecap="butt" stroke-linejoin="miter" stroke-width="0.50">
	<path d="M128.6,384.0 L128.6,371.5 M128.6,16.7 L128.6,29.2  " stroke="black"/>	<g fill="rgb(0,0,0)" font-family="{}" font-size="16.00" stroke="none" text-anchor="middle" transform="translate(128.6,408.0)">
		<text><tspan font-family="{}">0.005</tspan></text>
	</g>
</g>
<g color="black" fill="none" stroke="currentColor" stroke-linecap="butt" stroke-linejoin="miter" stroke-width="0.50">
	<path d="M186.6,384.0 L186.6,371.5 M186.6,16.7 L186.6,29.2  " stroke="black"/>	<g fill="rgb(0,0,0)" font-family="{}" font-size="16.00" stroke="none" text-anchor="middle" transform="translate(186.6,408.0)">
		<text><tspan font-family="{}">0.01</tspan></text>
	</g>
</g>
<g color="black" fill="none" stroke="currentColor" stroke-linecap="butt" stroke-linejoin="miter" stroke-width="0.50">
	<path d="M244.7,384.0 L244.7,371.5 M244.7,16.7 L244.7,29.2  " stroke="black"/>	<g fill="rgb(0,0,0)" font-family="{}" font-size="16.00" stroke="none" text-anchor="middle" transform="translate(244.7,408.0)">
		<text><tspan font-family="{}">0.015</tspan></text>
	</g>
</g>
<g color="black" fill="none" stroke="currentColor" stroke-linecap="butt" stroke-linejoin="miter" stroke-width="0.50">
	<path d="M302.8,384.0 L302.8,371.5 M302.8,16.7 L302.8,29.2  " stroke="black"/>	<g fill="rgb(0,0,0)" font-family="{}" font-size="16.00" stroke="none" text-anchor="middle" transform="translate(302.8,408.0)">
		<text><tspan font-family="{}">0.02</tspan></text>
	</g>
</g>
<g color="black" fill="none" stroke="currentColor" stroke-linecap="butt" stroke-linejoin="miter" stroke-width="0.50">
	<path d="M360.8,384.0 L360.8,371.5 M360.8,16.7 L360.8,29.2  " stroke="black"/>	<g fill="rgb(0,0,0)" font-family="{}" font-size="16.00" stroke="none" text-anchor="middle" transform="translate(360.8,408.0)">
		<text><tspan font-family="{}">0.025</tspan></text>
	</g>
</g>
<g color="black" fill="none" stroke="currentColor" stroke-linecap="butt" stroke-linejoin="miter" stroke-width="0.50">
	<path d="M418.9,384.0 L418.9,371.5 M418.9,16.7 L418.9,29.2  " stroke="black"/>	<g fill="rgb(0,0,0)" font-family="{}" font-size="16.00" stroke="none" text-anchor="middle" transform="translate(418.9,408.0)">
		<text><tspan font-family="{}">0.03</tspan></text>
	</g>
</g>
<g color="black" fill="none" stroke="currentColor" stroke-linecap="butt" stroke-linejoin="miter" stroke-width="0.50">
	<path d="M476.9,384.0 L476.9,371.5 M476.9,16.7 L476.9,29.2  " stroke="black"/>	<g fill="rgb(0,0,0)" font-family="{}" font-size="16.00" stroke="none" text-anchor="middle" transform="translate(476.9,408.0)">
		<text><tspan font-family="{}">0.035</tspan></text>
	</g>
</g>
<g color="black" fill="none" stroke="currentColor" stroke-linecap="butt" stroke-linejoin="miter" stroke-width="0.50">
	<path d="M535.0,384.0 L535.0,371.5 M535.0,16.7 L535.0,29.2  " stroke="black"/>	<g fill="rgb(0,0,0)" font-family="{}" font-size="16.00" stroke="none" text-anchor="middle" transform="translate(535.0,408.0)">
		<text><tspan font-family="{}">0.04</tspan></text>
	</g>
</g>
<g color="black" fill="none" stroke="currentColor" stroke-linecap="butt" stroke-linejoin="miter" stroke-width="0.50">
</g>
<g color="black" fill="none" stroke="currentColor" stroke-linecap="butt" stroke-linejoin="miter" stroke-width="0.50">
	<path d="M70.5,16.7 L70.5,384.0 L535.0,384.0 L535.0,16.7 L70.5,16.7 Z  " stroke="black"/></g>
<g color="black" fill="none" stroke="currentColor" stroke-linecap="butt" stroke-linejoin="miter" stroke-width="0.50">
</g>
	<g id="gnuplot_plot_1a"><title>gnuplot_plot_1a</title>
<g color="white" fill="none" stroke="black" stroke-linecap="butt" stroke-linejoin="miter" stroke-width="3.00">
</g>
<g color="black" fill="none" stroke="currentColor" stroke-linecap="butt" stroke-linejoin="miter" stroke-width="3.00">
	<g onmousemove="gnuplot_svg.showHypertext(evt,'')" onmouseout="gnuplot_svg.hideHypertext()"><title> </title>
	<use color="rgb(  0,   0, 255)" transform="translate(70.5,384.0) scale(9.00)" xlink:href="#gpPt5"/></g>
	<use color="rgb(  0,   0, 255)" transform="translate(73.4,377.4) scale(9.00)" xlink:href="#gpPt5"/>
	<use color="rgb(  0,   0, 255)" transform="translate(76.4,370.8) scale(9.00)" xlink:href="#gpPt5"/>
	<use color="rgb(  0,   0, 255)" transform="translate(79.4,364.2) scale(9.00)" xlink:href="#gpPt5"/>
	<use color="rgb(  0,   0, 255)" transform="translate(82.5,357.6) scale(9.00)" xlink:href="#gpPt5"/>
	<use color="rgb(  0,   0, 255)" transform="translate(85.6,351.0) scale(9.00)" xlink:href="#gpPt5"/>
	<use color="rgb(  0,   0, 255)" transform="translate(88.8,344.4) scale(9.00)" xlink:href="#gpPt5"/>
	<use color="rgb(  0,   0, 255)" transform="translate(92.0,337.8) scale(9.00)" xlink:href="#gpPt5"/>
	<use color="rgb(  0,   0, 255)" transform="translate(95.3,331.2) scale(9.00)" xlink:href="#gpPt5"/>
	<use color="rgb(  0,   0, 255)" transform="translate(98.7,324.6) scale(9.00)" xlink:href="#gpPt5"/>
	<use color="rgb(  0,   0, 255)" transform="translate(102.1,318.0) scale(9.00)" xlink:href="#gpPt5"/>
	<use color="rgb(  0,   0, 255)" transform="translate(105.6,311.4) scale(9.00)" xlink:href="#gpPt5"/>
	<use color="rgb(  0,   0, 255)" transform="translate(109.1,304.8) scale(9.00)" xlink:href="#gpPt5"/>
	<use color="rgb(  0,   0, 255)" transform="translate(112.8,298.2) scale(9.00)" xlink:href="#gpPt5"/>
	<use color="rgb(  0,   0, 255)" transform="translate(116.5,291.7) scale(9.00)" xlink:href="#gpPt5"/>
	<use color="rgb(  0,   0, 255)" transform="translate(120.3,285.1) scale(9.00)" xlink:href="#gpPt5"/>
	<use color="rgb(  0,   0, 255)" transform="translate(124.2,278.5) scale(9.00)" xlink:href="#gpPt5"/>
	<use color="rgb(  0,   0, 255)" transform="translate(128.1,271.9) scale(9.00)" xlink:href="#gpPt5"/>
	<use color="rgb(  0,   0, 255)" transform="translate(132.2,265.3) scale(9.00)" xlink:href="#gpPt5"/>
	<use color="rgb(  0,   0, 255)" transform="translate(136.4,258.7) scale(9.00)" xlink:href="#gpPt5"/>
	<use color="rgb(  0,   0, 255)" transform="translate(140.6,252.1) scale(9.00)" xlink:href="#gpPt5"/>
	<use color="rgb(  0,   0, 255)" transform="translate(145.0,245.5) scale(9.00)" xlink:href="#gpPt5"/>
	<use color="rgb(  0,   0, 255)" transform="translate(149.5,238.9) scale(9.00)" xlink:href="#gpPt5"/>
	<use color="rgb(  0,   0, 255)" transform="translate(154.1,232.3) scale(9.00)" xlink:href="#gpPt5"/>
	<use color="rgb(  0,   0, 255)" transform="translate(158.9,225.7) scale(9.00)" xlink:href="#gpPt5"/>
	<use color="rgb(  0,   0, 255)" transform="translate(163.7,219.1) scale(9.00)" xlink:href="#gpPt5"/>
	<use color="rgb(  0,   0, 255)" transform="translate(168.8,212.5) scale(9.00)" xlink:href="#gpPt5"/>
	<use color="rgb(  0,   0, 255)" transform="translate(174.0,205.9) scale(9.00)" xlink:href="#gpPt5"/>
	<use color="rgb(  0,   0, 255)" transform="translate(179.3,199.3) scale(9.00)" xlink:href="#gpPt5"/>
	<use color="rgb(  0,   0, 255)" transform="translate(184.9,192.7) scale(9.00)" xlink:href="#gpPt5"/>
	<use color="rgb(  0,   0, 255)" transform="translate(190.7,186.1) scale(9.00)" xlink:href="#gpPt5"/>
	<use color="rgb(  0,   0, 255)" transform="translate(196.6,179.5) scale(9.00)" xlink:href="#gpPt5"/>
	<use color="rgb(  0,   0, 255)" transform="translate(202.9,172.9) scale(9.00)" xlink:href="#gpPt5"/>
	<use color="rgb(  0,   0, 255)" transform="translate(209.3,166.3) scale(9.00)" xlink:href="#gpPt5"/>
	<use color="rgb(  0,   0, 255)" transform="translate(216.1,159.7) scale(9.00)" xlink:href="#gpPt5"/>
	<use color="rgb(  0,   0, 255)" transform="translate(223.2,153.1) scale(9.00)" xlink:href="#gpPt5"/>
	<use color="rgb(  0,   0, 255)" transform="translate(230.6,146.5) scale(9.00)" xlink:href="#gpPt5"/>
	<use color="rgb(  0,   0, 255)" transform="translate(238.5,139.9) scale(9.00)" xlink:href="#gpPt5"/>
	<use color="rgb(  0,   0, 255)" transform="translate(246.8,133.3) scale(9.00)" xlink:href="#gpPt5"/>
	<use color="rgb(  0,   0, 255)" transform="translate(255.6,126.7) scale(9.00)" xlink:href="#gpPt5"/>
	<use color="rgb(  0,   0, 255)" transform="translate(265.0,120.1) scale(9.00)" xlink:href="#gpPt5"/>
	<use color="rgb(  0,   0, 255)" transform="translate(275.1,113.5) scale(9.00)" xlink:href="#gpPt5"/>
	<use color="rgb(  0,   0, 255)" transform="translate(286.1,107.0) scale(9.00)" xlink:href="#gpPt5"/>
	<use color="rgb(  0,   0, 255)" transform="translate(298.1,100.4) scale(9.00)" xlink:href="#gpPt5"/>
	<use color="rgb(  0,   0, 255)" transform="translate(311.4,93.8) scale(9.00)" xlink:href="#gpPt5"/>
	<use color="rgb(  0,   0, 255)" transform="translate(326.4,87.2) scale(9.00)" xlink:href="#gpPt5"/>
	<use color="rgb(  0,   0, 255)" transform="translate(343.9,80.6) scale(9.00)" xlink:href="#gpPt5"/>
	<use color="rgb(  0,   0, 255)" transform="translate(365.0,74.0) scale(9.00)" xlink:href="#gpPt5"/>
	<use color="rgb(  0,   0, 255)" transform="translate(392.8,67.4) scale(9.00)" xlink:href="#gpPt5"/>
	<use color="rgb(  0,   0, 255)" transform="translate(439.7,60.8) scale(9.00)" xlink:href="#gpPt5"/>
</g>
	</g>
	<g id="gnuplot_plot_2a"><title>gnuplot_plot_2a</title>
<g color="black" fill="none" stroke="currentColor" stroke-linecap="butt" stroke-linejoin="miter" stroke-width="3.00">
	<path d="M70.5,384.0 L73.4,378.1 L76.4,372.2 L79.4,366.2 L82.5,360.2 L85.6,354.2 L88.8,348.1 L92.0,342.0   L95.3,335.8 L98.7,329.6 L102.1,323.3 L105.6,317.0 L109.1,310.7 L112.8,304.3 L116.5,297.8 L120.3,291.3   L124.2,284.8 L128.1,278.2 L132.2,271.6 L136.4,264.9 L140.6,258.1 L145.0,251.4 L149.5,244.5 L154.1,237.6   L158.9,230.7 L163.7,223.7 L168.8,216.6 L174.0,209.5 L179.3,202.4 L184.9,195.2 L190.7,187.9 L196.6,180.6   L202.9,173.3 L209.3,165.9 L216.1,158.5 L223.2,151.0 L230.6,143.6 L238.5,136.1 L246.8,128.6 L255.6,121.1   L265.0,113.7 L275.1,106.4 L286.1,99.2 L298.1,92.3 L311.4,85.7 L326.4,79.6 L343.9,74.3 L365.0,70.7   L392.8,70.3 L439.7,81.1  " stroke="rgb(  0, 128,   0)"/></g>
	</g>
<g color="white" fill="none" stroke="rgb(  0, 128,   0)" stroke-linecap="butt" stroke-linejoin="miter" stroke-width="2.00">
</g>
<g color="black" fill="none" stroke="currentColor" stroke-linecap="butt" stroke-linejoin="miter" stroke-width="2.00">
</g>
<g color="black" fill="none" stroke="black" stroke-linecap="butt" stroke-linejoin="miter" stroke-width="0.50">
</g>
<g color="black" fill="none" stroke="currentColor" stroke-linecap="butt" stroke-linejoin="miter" stroke-width="0.50">
</g>
</g>
</svg>