<svg height="420px" viewBox="0 0 560 420" width="560px" xmlns="http://www.w3.org/2000/svg" xmlns:xlink="http://www.w3.org/1999/xlink">

<title>Gnuplot</title>
<desc>Produced by GNUPLOT 5.0 patchlevel 3 </desc>

<g id="gnuplot_canvas">

<rect fill="none" height="420" width="560" x="0" y="0"/>
<defs>

	<circle id="gpDot" r="0.5" stroke-width="0.5"/>
	<path d="M-1,0 h2 M0,-1 v2" id="gpPt0" stroke="currentColor" stroke-width="0.222"/>
	<path d="M-1,-1 L1,1 M1,-1 L-1,1" id="gpPt1" stroke="currentColor" stroke-width="0.222"/>
	<path d="M-1,0 L1,0 M0,-1 L0,1 M-1,-1 L1,1 M-1,1 L1,-1" id="gpPt2" stroke="currentColor" stroke-width="0.222"/>
	<rect height="2" id="gpPt3" stroke="currentColor" stroke-width="0.222" width="2" x="-1" y="-1"/>
	<rect fill="currentColor" height="2" id="gpPt4" stroke="currentColor" stroke-width="0.222" width="2" x="-1" y="-1"/>
	<circle cx="0" cy="0" id="gpPt5" r="1" stroke="currentColor" stroke-width="0.222"/>
	<use fill="currentColor" id="gpPt6" stroke="none" xlink:href="#gpPt5"/>
	<path d="M0,-1.33 L-1.33,0.67 L1.33,0.67 z" id="gpPt7" stroke="currentColor" stroke-width="0.222"/>
	<use fill="currentColor" id="gpPt8" stroke="none" xlink:href="#gpPt7"/>
	<use id="gpPt9" stroke="currentColor" transform="rotate(180)" xlink:href="#gpPt7"/>
	<use fill="currentColor" id="gpPt10" stroke="none" xlink:href="#gpPt9"/>
	<use id="gpPt11" stroke="currentColor" transform="rotate(45)" xlink:href="#gpPt3"/>
	<use fill="currentColor" id="gpPt12" stroke="none" xlink:href="#gpPt11"/>
	<path d="M0,1.330 L1.265,0.411 L0.782,-1.067 L-0.782,-1.076 L-1.265,0.411 z" id="gpPt13" stroke="currentColor" stroke-width="0.222"/>
	<use fill="currentColor" id="gpPt14" stroke="none" xlink:href="#gpPt13"/>
	<filter filterUnits="objectBoundingBox" height="1" id="textbox" width="1" x="0" y="0">
	  <feFlood flood-color="white" flood-opacity="1" result="bgnd"/>
	  <feComposite in="SourceGraphic" in2="bgnd" operator="atop"/>
	</filter>
	<filter filterUnits="objectBoundingBox" height="1" id="greybox" width="1" x="0" y="0">
	  <feFlood flood-color="lightgrey" flood-opacity="1" result="grey"/>
	  <feComposite in="SourceGraphic" in2="grey" operator="atop"/>
	</filter>
</defs>
<g color="white" fill="none" stroke="currentColor" stroke-linecap="butt" stroke-linejoin="miter" stroke-width="1.00">
</g>
<g color="black" fill="none" stroke="currentColor" stroke-linecap="butt" stroke-linejoin="miter" stroke-width="1.00">
	<g shape-rendering="crispEdges" stroke="none">
		<polygon fill="rgb(255, 255, 255)" points="62.2,384.0 534.9,384.0 534.9,16.8 62.2,16.8 "/>
	</g>
</g>
<g color="black" fill="none" stroke="rgb(255, 255, 255)" stroke-linecap="butt" stroke-linejoin="miter" stroke-width="0.50">
</g>
<g color="black" fill="none" stroke="currentColor" stroke-linecap="butt" stroke-linejoin="miter" stroke-width="0.50">
	<path d="M62.2,384.0 L74.7,384.0 M535.0,384.0 L522.5,384.0  " stroke="black"/>	<g fill="rgb(0,0,0)" font-family="{}" font-size="16.00" stroke="none" text-anchor="end" transform="translate(53.9,390.0)">
		<text><tspan font-family="{}">-0.06</tspan></text>
	</g>
</g>
<g color="black" fill="none" stroke="currentColor" stroke-linecap="butt" stroke-linejoin="miter" stroke-width="0.50">
	<path d="M62.2,331.5 L74.7,331.5 M535.0,331.5 L522.5,331.5  " stroke="black"/>	<g fill="rgb(0,0,0)" font-family="{}" font-size="16.00" stroke="none" text-anchor="end" transform="translate(53.9,337.5)">
		<text><tspan font-family="{}">-0.04</tspan></text>
	</g>
</g>
<g color="black" fill="none" stroke="currentColor" stroke-linecap="butt" stroke-linejoin="miter" stroke-width="0.50">
	<path d="M62.2,279.1 L74.7,279.1 M535.0,279.1 L522.5,279.1  " stroke="black"/>	<g fill="rgb(0,0,0)" font-family="{}" font-size="16.00" stroke="none" text-anchor="end" transform="translate(53.9,285.1)">
		<text><tspan font-family="{}">-0.02</tspan></text>
	</g>
</g>
<g color="black" fill="none" stroke="currentColor" stroke-linecap="butt" stroke-linejoin="miter" stroke-width="0.50">
	<path d="M62.2,226.6 L74.7,226.6 M535.0,226.6 L522.5,226.6  " stroke="black"/>	<g fill="rgb(0,0,0)" font-family="{}" font-size="16.00" stroke="none" text-anchor="end" transform="translate(53.9,232.6)">
		<text><tspan font-family="{}">0</tspan></text>
	</g>
</g>
<g color="black" fill="none" stroke="currentColor" stroke-linecap="butt" stroke-linejoin="miter" stroke-width="0.50">
	<path d="M62.2,174.1 L74.7,174.1 M535.0,174.1 L522.5,174.1  " stroke="black"/>	<g fill="rgb(0,0,0)" font-family="{}" font-size="16.00" stroke="none" text-anchor="end" transform="translate(53.9,180.1)">
		<text><tspan font-family="{}">0.02</tspan></text>
	</g>
</g>
<g color="black" fill="none" stroke="currentColor" stroke-linecap="butt" stroke-linejoin="miter" stroke-width="0.50">
	<path d="M62.2,121.6 L74.7,121.6 M535.0,121.6 L522.5,121.6  " stroke="black"/>	<g fill="rgb(0,0,0)" font-family="{}" font-size="16.00" stroke="none" text-anchor="end" transform="translate(53.9,127.6)">
		<text><tspan font-family="{}">0.04</tspan></text>
	</g>
</g>
<g color="black" fill="none" stroke="currentColor" stroke-linecap="butt" stroke-linejoin="miter" stroke-width="0.50">
	<path d="M62.2,69.2 L74.7,69.2 M535.0,69.2 L522.5,69.2  " stroke="black"/>	<g fill="rgb(0,0,0)" font-family="{}" font-size="16.00" stroke="none" text-anchor="end" transform="translate(53.9,75.2)">
		<text><tspan font-family="{}">0.06</tspan></text>
	</g>
</g>
<g color="black" fill="none" stroke="currentColor" stroke-linecap="butt" stroke-linejoin="miter" stroke-width="0.50">
	<path d="M62.2,16.7 L74.7,16.7 M535.0,16.7 L522.5,16.7  " stroke="black"/>	<g fill="rgb(0,0,0)" font-family="{}" font-size="16.00" stroke="none" text-anchor="end" transform="translate(53.9,22.7)">
		<text><tspan font-family="{}">0.08</tspan></text>
	</g>
</g>
<g color="black" fill="none" stroke="currentColor" stroke-linecap="butt" stroke-linejoin="miter" stroke-width="0.50">
	<path d="M62.2,384.0 L62.2,371.5 M62.2,16.7 L62.2,29.2  " stroke="black"/>	<g fill="rgb(0,0,0)" font-family="{}" font-size="16.00" stroke="none" text-anchor="middle" transform="translate(62.2,408.0)">
		<text><tspan font-family="{}">2.5</tspan></text>
	</g>
</g>
<g color="black" fill="none" stroke="currentColor" stroke-linecap="butt" stroke-linejoin="miter" stroke-width="0.50">
	<path d="M129.7,384.0 L129.7,371.5 M129.7,16.7 L129.7,29.2  " stroke="black"/>	<g fill="rgb(0,0,0)" font-family="{}" font-size="16.00" stroke="none" text-anchor="middle" transform="translate(129.7,408.0)">
		<text><tspan font-family="{}">3</tspan></text>
	</g>
</g>
<g color="black" fill="none" stroke="currentColor" stroke-linecap="butt" stroke-linejoin="miter" stroke-width="0.50">
	<path d="M197.3,384.0 L197.3,371.5 M197.3,16.7 L197.3,29.2  " stroke="black"/>	<g fill="rgb(0,0,0)" font-family="{}" font-size="16.00" stroke="none" text-anchor="middle" transform="translate(197.3,408.0)">
		<text><tspan font-family="{}">3.5</tspan></text>
	</g>
</g>
<g color="black" fill="none" stroke="currentColor" stroke-linecap="butt" stroke-linejoin="miter" stroke-width="0.50">
	<path d="M264.8,384.0 L264.8,371.5 M264.8,16.7 L264.8,29.2  " stroke="black"/>	<g fill="rgb(0,0,0)" font-family="{}" font-size="16.00" stroke="none" text-anchor="middle" transform="translate(264.8,408.0)">
		<text><tspan font-family="{}">4</tspan></text>
	</g>
</g>
<g color="black" fill="none" stroke="currentColor" stroke-linecap="butt" stroke-linejoin="miter" stroke-width="0.50">
	<path d="M332.4,384.0 L332.4,371.5 M332.4,16.7 L332.4,29.2  " stroke="black"/>	<g fill="rgb(0,0,0)" font-family="{}" font-size="16.00" stroke="none" text-anchor="middle" transform="translate(332.4,408.0)">
		<text><tspan font-family="{}">4.5</tspan></text>
	</g>
</g>
<g color="black" fill="none" stroke="currentColor" stroke-linecap="butt" stroke-linejoin="miter" stroke-width="0.50">
	<path d="M399.9,384.0 L399.9,371.5 M399.9,16.7 L399.9,29.2  " stroke="black"/>	<g fill="rgb(0,0,0)" font-family="{}" font-size="16.00" stroke="none" text-anchor="middle" transform="translate(399.9,408.0)">
		<text><tspan font-family="{}">5</tspan></text>
	</g>
</g>
<g color="black" fill="none" stroke="currentColor" stroke-linecap="butt" stroke-linejoin="miter" stroke-width="0.50">
	<path d="M467.5,384.0 L467.5,371.5 M467.5,16.7 L467.5,29.2  " stroke="black"/>	<g fill="rgb(0,0,0)" font-family="{}" font-size="16.00" stroke="none" text-anchor="middle" transform="translate(467.5,408.0)">
		<text><tspan font-family="{}">5.5</tspan></text>
	</g>
</g>
<g color="black" fill="none" stroke="currentColor" stroke-linecap="butt" stroke-linejoin="miter" stroke-width="0.50">
	<path d="M535.0,384.0 L535.0,371.5 M535.0,16.7 L535.0,29.2  " stroke="black"/>	<g fill="rgb(0,0,0)" font-family="{}" font-size="16.00" stroke="none" text-anchor="middle" transform="translate(535.0,408.0)">
		<text><tspan font-family="{}">6</tspan></text>
	</g>
</g>
<g color="black" fill="none" stroke="currentColor" stroke-linecap="butt" stroke-linejoin="miter" stroke-width="0.50">
</g>
<g color="black" fill="none" stroke="currentColor" stroke-linecap="butt" stroke-linejoin="miter" stroke-width="0.50">
	<path d="M62.2,16.7 L62.2,384.0 L535.0,384.0 L535.0,16.7 L62.2,16.7 Z  " stroke="black"/></g>
<g color="black" fill="none" stroke="currentColor" stroke-linecap="butt" stroke-linejoin="miter" stroke-width="0.50">
</g>
	<g id="gnuplot_plot_1a"><title>gnuplot_plot_1a</title>
<g color="white" fill="none" stroke="black" stroke-linecap="butt" stroke-linejoin="miter" stroke-width="3.00">
</g>
<g color="black" fill="none" stroke="currentColor" stroke-linecap="butt" stroke-linejoin="miter" stroke-width="3.00">
	<path d="M102.7,51.2 L104.9,80.5 L107.1,107.1 L109.2,131.3 L111.4,153.2 L113.6,173.1 L115.8,191.1 L117.9,207.3   L120.1,222.0 L122.3,235.3 L124.4,247.2 L126.6,257.9 L128.8,267.5 L131.0,276.0 L133.1,283.7 L135.3,290.5   L137.5,296.5 L139.7,301.9 L141.8,306.6 L144.0,310.7 L146.2,314.2 L148.3,317.3 L150.5,319.9 L152.7,322.1   L154.9,324.0 L157.0,325.5 L159.2,326.6 L161.4,327.6 L163.5,328.2 L165.7,328.6 L167.9,328.9 L170.1,328.9   L172.2,328.8 L174.4,328.5 L176.6,328.0 L178.8,327.5 L180.9,326.8 L183.1,326.1 L185.3,325.2 L187.4,324.3   L189.6,323.3 L191.8,322.2 L194.0,321.1 L196.1,320.0 L198.3,318.8 L200.5,317.5 L202.6,316.3 L204.8,315.0   L207.0,313.7 L209.2,312.4 L211.3,311.0 L213.5,309.7 L215.7,308.4 L217.9,307.0 L220.0,305.7 L222.2,304.3   L224.4,303.0 L226.5,301.7 L228.7,300.3 L230.9,299.0 L233.1,297.7 L235.2,296.4 L237.4,295.2 L239.6,293.9   L241.7,292.7 L243.9,291.4 L246.1,290.2 L248.3,289.0 L250.4,287.8 L252.6,286.6 L254.8,285.5 L257.0,284.4   L259.1,283.2 L261.3,282.1 L263.5,281.1 L265.6,280.0 L267.8,279.0 L270.0,277.9 L272.2,276.9 L274.3,275.9   L276.5,275.0 L278.7,274.0 L280.8,273.1 L283.0,272.2 L285.2,271.3 L287.4,270.4 L289.5,269.5 L291.7,268.7   L293.9,267.8 L296.1,267.0 L298.2,266.2 L300.4,265.4 L302.6,264.7 L304.7,263.9 L306.9,263.2 L309.1,262.5   L311.3,261.8 L313.4,261.1 L315.6,260.4 L317.8,259.7 L319.9,259.1 L322.1,258.4 L324.3,257.8 L326.5,257.2   L328.6,256.6 L330.8,256.0 L333.0,255.5 L335.2,254.9 L337.3,254.3 L339.5,253.8 L341.7,253.3 L343.8,252.8   L346.0,252.3 L348.2,251.8 L350.4,251.3 L352.5,250.8 L354.7,250.3 L356.9,249.9 L359.0,249.4 L361.2,249.0   L363.4,248.6 L365.6,248.2 L367.7,247.8 L369.9,247.4 L372.1,247.0 L374.3,246.6 L376.4,246.2 L378.6,245.8   L380.8,245.5 L382.9,245.1 L385.1,244.8 L387.3,244.4 L389.5,244.1 L391.6,243.8 L393.8,243.5 L396.0,243.2   L398.1,242.9 L400.3,242.6 L402.5,242.3 L404.7,242.0 L406.8,241.7 L409.0,241.4 L411.2,241.2 L413.4,240.9   L415.5,240.6 L417.7,240.4 L419.9,240.1 L422.0,239.9 L424.2,239.7 L426.4,239.4 L428.6,239.2 L430.7,239.0   L432.9,238.8 L435.1,238.5 L437.2,238.3 L439.4,238.1 L441.6,237.9 L443.8,237.7 L445.9,237.5 L448.1,237.3   L450.3,237.2 L452.5,237.0 L454.6,236.8 L456.8,236.6 L459.0,236.4 L461.1,236.3 L463.3,236.1 L465.5,235.9   L467.7,235.8 L469.8,235.6 L472.0,235.5 L474.2,235.3 L476.3,235.2 L478.5,235.0 L480.7,234.9 L482.9,234.8   L485.0,234.6 L487.2,234.5 L489.4,234.4 L491.6,234.2 L493.7,234.1 L495.9,234.0 L498.1,233.9 L500.2,233.7   L502.4,233.6 L504.6,233.5 L506.8,233.4 L508.9,233.3 L511.1,233.2 L513.3,233.1 L515.4,233.0 L517.6,232.9   L519.8,232.8 L522.0,232.7 L524.1,232.6 L526.3,232.5 L528.5,232.4 L530.7,232.3 L532.8,232.2 L535.0,232.1    " stroke="rgb(  0,   0, 255)"/></g>
	</g>
	<g id="gnuplot_plot_2a"><title>gnuplot_plot_2a</title>
<g color="black" fill="none" stroke="currentColor" stroke-linecap="butt" stroke-linejoin="miter" stroke-width="3.00">
	<path d="M102.7,51.2 L107.7,92.0 L112.7,129.9 L117.7,164.8 L122.6,196.8 L127.6,225.7 L132.6,251.7 L137.6,274.8   L142.5,294.8 L147.5,311.9 L152.5,326.0 L157.5,337.2 L162.4,345.3 L167.4,350.5 L172.4,352.8 L177.4,352.0   L182.4,348.3 L187.3,341.6 L192.3,332.0 L197.3,319.3  " stroke="rgb(  0, 128,   0)"/></g>
	</g>
	<g id="gnuplot_plot_3a"><title>gnuplot_plot_3a</title>
<g color="black" fill="none" stroke="currentColor" stroke-linecap="butt" stroke-linejoin="miter" stroke-width="3.00">
	<g onmousemove="gnuplot_svg.showHypertext(evt,'')" onmouseout="gnuplot_svg.hideHypertext()"><title> </title>
	<use color="rgb(255,   0,   0)" transform="translate(102.7,51.2) scale(9.00)" xlink:href="#gpPt5"/></g>
	<use color="rgb(255,   0,   0)" transform="translate(150.0,319.3) scale(9.00)" xlink:href="#gpPt5"/>
	<use color="rgb(255,   0,   0)" transform="translate(197.3,319.3) scale(9.00)" xlink:href="#gpPt5"/>
</g>
	</g>
	<g id="gnuplot_plot_4a"><title>gnuplot_plot_4a</title>
<g color="black" fill="none" stroke="currentColor" stroke-linecap="butt" stroke-linejoin="miter" stroke-width="3.00">
	<g onmousemove="gnuplot_svg.showHypertext(evt,'')" onmouseout="gnuplot_svg.hideHypertext()"><title> </title>
	<use color="rgb(  0,   0, 255)" transform="translate(173.6,328.6) scale(9.00)" xlink:href="#gpPt2"/></g>
</g>
	</g>
	<g id="gnuplot_plot_5a"><title>gnuplot_plot_5a</title>
<g color="black" fill="none" stroke="currentColor" stroke-linecap="butt" stroke-linejoin="miter" stroke-width="3.00">
	<path d="M102.7,51.2 L150.0,319.3  " stroke="rgb(191,   0, 191)"/></g>
	</g>
<g color="white" fill="none" stroke="rgb(191,   0, 191)" stroke-linecap="butt" stroke-linejoin="miter" stroke-width="2.00">
</g>
<g color="black" fill="none" stroke="currentColor" stroke-linecap="butt" stroke-linejoin="miter" stroke-width="2.00">
</g>
<g color="black" fill="none" stroke="black" stroke-linecap="butt" stroke-linejoin="miter" stroke-width="0.50">
</g>
<g color="black" fill="none" stroke="currentColor" stroke-linecap="butt" stroke-linejoin="miter" stroke-width="0.50">
</g>
</g>
</svg>