<svg height="420px" viewBox="0 0 560 420" width="560px" xmlns="http://www.w3.org/2000/svg" xmlns:xlink="http://www.w3.org/1999/xlink">

<title>Gnuplot</title>
<desc>Produced by GNUPLOT 5.0 patchlevel 3 </desc>

<g id="gnuplot_canvas">

<rect fill="none" height="420" width="560" x="0" y="0"/>
<defs>

	<circle id="gpDot" r="0.5" stroke-width="0.5"/>
	<path d="M-1,0 h2 M0,-1 v2" id="gpPt0" stroke="currentColor" stroke-width="0.222"/>
	<path d="M-1,-1 L1,1 M1,-1 L-1,1" id="gpPt1" stroke="currentColor" stroke-width="0.222"/>
	<path d="M-1,0 L1,0 M0,-1 L0,1 M-1,-1 L1,1 M-1,1 L1,-1" id="gpPt2" stroke="currentColor" stroke-width="0.222"/>
	<rect height="2" id="gpPt3" stroke="currentColor" stroke-width="0.222" width="2" x="-1" y="-1"/>
	<rect fill="currentColor" height="2" id="gpPt4" stroke="currentColor" stroke-width="0.222" width="2" x="-1" y="-1"/>
	<circle cx="0" cy="0" id="gpPt5" r="1" stroke="currentColor" stroke-width="0.222"/>
	<use fill="currentColor" id="gpPt6" stroke="none" xlink:href="#gpPt5"/>
	<path d="M0,-1.33 L-1.33,0.67 L1.33,0.67 z" id="gpPt7" stroke="currentColor" stroke-width="0.222"/>
	<use fill="currentColor" id="gpPt8" stroke="none" xlink:href="#gpPt7"/>
	<use id="gpPt9" stroke="currentColor" transform="rotate(180)" xlink:href="#gpPt7"/>
	<use fill="currentColor" id="gpPt10" stroke="none" xlink:href="#gpPt9"/>
	<use id="gpPt11" stroke="currentColor" transform="rotate(45)" xlink:href="#gpPt3"/>
	<use fill="currentColor" id="gpPt12" stroke="none" xlink:href="#gpPt11"/>
	<path d="M0,1.330 L1.265,0.411 L0.782,-1.067 L-0.782,-1.076 L-1.265,0.411 z" id="gpPt13" stroke="currentColor" stroke-width="0.222"/>
	<use fill="currentColor" id="gpPt14" stroke="none" xlink:href="#gpPt13"/>
	<filter filterUnits="objectBoundingBox" height="1" id="textbox" width="1" x="0" y="0">
	  <feFlood flood-color="white" flood-opacity="1" result="bgnd"/>
	  <feComposite in="SourceGraphic" in2="bgnd" operator="atop"/>
	</filter>
	<filter filterUnits="objectBoundingBox" height="1" id="greybox" width="1" x="0" y="0">
	  <feFlood flood-color="lightgrey" flood-opacity="1" result="grey"/>
	  <feComposite in="SourceGraphic" in2="grey" operator="atop"/>
	</filter>
</defs>
<g color="white" fill="none" stroke="currentColor" stroke-linecap="butt" stroke-linejoin="miter" stroke-width="1.00">
</g>
<g color="black" fill="none" stroke="currentColor" stroke-linecap="butt" stroke-linejoin="miter" stroke-width="1.00">
	<g shape-rendering="crispEdges" stroke="none">
		<polygon fill="rgb(255, 255, 255)" points="70.5,384.0 534.9,384.0 534.9,16.8 70.5,16.8 "/>
	</g>
</g>
<g color="black" fill="none" stroke="rgb(255, 255, 255)" stroke-linecap="butt" stroke-linejoin="miter" stroke-width="0.50">
</g>
<g color="black" fill="none" stroke="currentColor" stroke-linecap="butt" stroke-linejoin="miter" stroke-width="0.50">
	<path d="M70.5,384.0 L83.0,384.0 M535.0,384.0 L522.5,384.0  " stroke="black"/>	<g fill="rgb(0,0,0)" font-family="{}" font-size="16.00" stroke="none" text-anchor="end" transform="translate(62.2,390.0)">
		<text><tspan font-family="{}">0</tspan></text>
	</g>
</g>
<g color="black" fill="none" stroke="currentColor" stroke-linecap="butt" stroke-linejoin="miter" stroke-width="0.50">
	<path d="M70.5,292.2 L83.0,292.2 M535.0,292.2 L522.5,292.2  " stroke="black"/>	<g fill="rgb(0,0,0)" font-family="{}" font-size="16.00" stroke="none" text-anchor="end" transform="translate(62.2,298.2)">
		<text><tspan font-family="{}">0.0005</tspan></text>
	</g>
</g>
<g color="black" fill="none" stroke="currentColor" stroke-linecap="butt" stroke-linejoin="miter" stroke-width="0.50">
	<path d="M70.5,200.3 L83.0,200.3 M535.0,200.3 L522.5,200.3  " stroke="black"/>	<g fill="rgb(0,0,0)" font-family="{}" font-size="16.00" stroke="none" text-anchor="end" transform="translate(62.2,206.3)">
		<text><tspan font-family="{}">0.001</tspan></text>
	</g>
</g>
<g color="black" fill="none" stroke="currentColor" stroke-linecap="butt" stroke-linejoin="miter" stroke-width="0.50">
	<path d="M70.5,108.5 L83.0,108.5 M535.0,108.5 L522.5,108.5  " stroke="black"/>	<g fill="rgb(0,0,0)" font-family="{}" font-size="16.00" stroke="none" text-anchor="end" transform="translate(62.2,114.5)">
		<text><tspan font-family="{}">0.0015</tspan></text>
	</g>
</g>
<g color="black" fill="none" stroke="currentColor" stroke-linecap="butt" stroke-linejoin="miter" stroke-width="0.50">
	<path d="M70.5,16.7 L83.0,16.7 M535.0,16.7 L522.5,16.7  " stroke="black"/>	<g fill="rgb(0,0,0)" font-family="{}" font-size="16.00" stroke="none" text-anchor="end" transform="translate(62.2,22.7)">
		<text><tspan font-family="{}">0.002</tspan></text>
	</g>
</g>
<g color="black" fill="none" stroke="currentColor" stroke-linecap="butt" stroke-linejoin="miter" stroke-width="0.50">
	<path d="M70.5,384.0 L70.5,371.5 M70.5,16.7 L70.5,29.2  " stroke="black"/>	<g fill="rgb(0,0,0)" font-family="{}" font-size="16.00" stroke="none" text-anchor="middle" transform="translate(70.5,408.0)">
		<text><tspan font-family="{}">0</tspan></text>
	</g>
</g>
<g color="black" fill="none" stroke="currentColor" stroke-linecap="butt" stroke-linejoin="miter" stroke-width="0.50">
	<path d="M163.4,384.0 L163.4,371.5 M163.4,16.7 L163.4,29.2  " stroke="black"/>	<g fill="rgb(0,0,0)" font-family="{}" font-size="16.00" stroke="none" text-anchor="middle" transform="translate(163.4,408.0)">
		<text><tspan font-family="{}">20</tspan></text>
	</g>
</g>
<g color="black" fill="none" stroke="currentColor" stroke-linecap="butt" stroke-linejoin="miter" stroke-width="0.50">
	<path d="M256.3,384.0 L256.3,371.5 M256.3,16.7 L256.3,29.2  " stroke="black"/>	<g fill="rgb(0,0,0)" font-family="{}" font-size="16.00" stroke="none" text-anchor="middle" transform="translate(256.3,408.0)">
		<text><tspan font-family="{}">40</tspan></text>
	</g>
</g>
<g color="black" fill="none" stroke="currentColor" stroke-linecap="butt" stroke-linejoin="miter" stroke-width="0.50">
	<path d="M349.2,384.0 L349.2,371.5 M349.2,16.7 L349.2,29.2  " stroke="black"/>	<g fill="rgb(0,0,0)" font-family="{}" font-size="16.00" stroke="none" text-anchor="middle" transform="translate(349.2,408.0)">
		<text><tspan font-family="{}">60</tspan></text>
	</g>
</g>
<g color="black" fill="none" stroke="currentColor" stroke-linecap="butt" stroke-linejoin="miter" stroke-width="0.50">
	<path d="M442.1,384.0 L442.1,371.5 M442.1,16.7 L442.1,29.2  " stroke="black"/>	<g fill="rgb(0,0,0)" font-family="{}" font-size="16.00" stroke="none" text-anchor="middle" transform="translate(442.1,408.0)">
		<text><tspan font-family="{}">80</tspan></text>
	</g>
</g>
<g color="black" fill="none" stroke="currentColor" stroke-linecap="butt" stroke-linejoin="miter" stroke-width="0.50">
	<path d="M535.0,384.0 L535.0,371.5 M535.0,16.7 L535.0,29.2  " stroke="black"/>	<g fill="rgb(0,0,0)" font-family="{}" font-size="16.00" stroke="none" text-anchor="middle" transform="translate(535.0,408.0)">
		<text><tspan font-family="{}">100</tspan></text>
	</g>
</g>
<g color="black" fill="none" stroke="currentColor" stroke-linecap="butt" stroke-linejoin="miter" stroke-width="0.50">
</g>
<g color="black" fill="none" stroke="currentColor" stroke-linecap="butt" stroke-linejoin="miter" stroke-width="0.50">
	<path d="M70.5,16.7 L70.5,384.0 L535.0,384.0 L535.0,16.7 L70.5,16.7 Z  " stroke="black"/></g>
<g color="black" fill="none" stroke="currentColor" stroke-linecap="butt" stroke-linejoin="miter" stroke-width="0.50">
</g>
<g color="black" fill="none" stroke="black" stroke-linecap="butt" stroke-linejoin="miter" stroke-width="1.00">
</g>
<g color="black" fill="none" stroke="currentColor" stroke-linecap="butt" stroke-linejoin="miter" stroke-width="1.00">
	<path d="M349.7,121.7 L349.7,25.7 L526.7,25.7 L526.7,121.7 L349.7,121.7 Z  " stroke="black"/></g>
	<g id="gnuplot_plot_1a"><title>LU decomp</title>
<g color="white" fill="none" stroke="black" stroke-linecap="butt" stroke-linejoin="miter" stroke-width="3.00">
</g>
<g color="black" fill="none" stroke="currentColor" stroke-linecap="butt" stroke-linejoin="miter" stroke-width="3.00">
	<g fill="rgb(0,0,0)" font-family="{}" font-size="16.00" stroke="none" text-anchor="end" transform="translate(526.7,55.7)">
		<text><tspan font-family="{}">LU decomp</tspan></text>
	</g>
</g>
<g color="black" fill="none" stroke="currentColor" stroke-linecap="butt" stroke-linejoin="miter" stroke-width="3.00">
	<path d="M360.9,49.7 L414.7,49.7 M75.1,357.4 L79.8,366.4 L84.4,370.3 L89.1,369.9 L93.7,363.8 L98.4,369.5   L103.0,369.5 L107.7,362.2 L112.3,368.4 L117.0,368.0 L121.6,360.8 L126.2,366.5 L130.9,366.6 L135.5,355.4   L140.2,355.5 L144.8,353.0 L149.5,346.7 L154.1,360.0 L158.8,362.3 L163.4,361.2 L168.0,362.3 L172.7,355.7   L177.3,360.3 L182.0,356.9 L186.6,355.1 L191.3,357.9 L195.9,351.3 L200.6,356.6 L205.2,355.0 L209.9,355.4   L214.5,362.2 L219.1,360.9 L223.8,360.8 L228.4,359.7 L233.1,359.0 L237.7,356.5 L242.4,358.3 L247.0,356.6   L251.7,360.7 L256.3,360.3 L260.9,360.0 L265.6,359.0 L270.2,359.0 L274.9,357.6 L279.5,357.4 L284.2,356.2   L288.8,354.2 L293.5,359.6 L298.1,358.5 L302.8,357.9 L307.4,356.5 L312.0,356.5 L316.7,355.9 L321.3,355.1   L326.0,353.9 L330.6,352.4 L335.3,357.0 L339.9,356.6 L344.6,355.9 L349.2,355.2 L353.8,354.1 L358.5,353.1   L363.1,352.6 L367.8,351.5 L372.4,335.7 L377.1,356.3 L381.7,356.6 L386.4,352.6 L391.0,355.5 L395.7,355.5   L400.3,354.6 L404.9,355.1 L409.6,224.4 L414.2,352.4 L418.9,338.8 L423.5,351.5 L428.2,350.8 L432.8,350.4   L437.5,349.7 L442.1,350.4 L446.7,348.4 L451.4,347.8 L456.0,346.2 L460.7,347.0 L465.3,340.7 L470.0,338.6   L474.6,346.2 L479.3,347.3 L483.9,344.2 L488.6,343.8 L493.2,342.5 L497.8,343.2 L502.5,341.2 L507.1,342.5   L511.8,338.8 L516.4,342.3 L521.1,337.9 L525.7,338.3 L530.4,337.8 L535.0,339.2  " stroke="rgb(  0,   0, 255)"/></g>
	</g>
	<g id="gnuplot_plot_2a"><title>Octave \\</title>
<g color="black" fill="none" stroke="currentColor" stroke-linecap="butt" stroke-linejoin="miter" stroke-width="3.00">
	<g fill="rgb(0,0,0)" font-family="{}" font-size="16.00" stroke="none" text-anchor="end" transform="translate(526.7,103.7)">
		<text><tspan font-family="{}">Octave \</tspan></text>
	</g>
</g>
<g color="black" fill="none" stroke="currentColor" stroke-linecap="butt" stroke-linejoin="miter" stroke-width="3.00">
	<path d="M360.9,97.7 L414.7,97.7 M75.1,371.7 L79.8,368.6 L84.4,372.8 L89.1,372.4 L93.7,371.3 L98.4,371.7   L103.0,371.3 L107.7,369.9 L112.3,370.3 L117.0,370.2 L121.6,368.6 L126.2,368.9 L130.9,364.9 L135.5,357.0   L140.2,358.5 L144.8,354.4 L149.5,353.0 L154.1,358.7 L158.8,359.8 L163.4,360.1 L168.0,360.7 L172.7,355.2   L177.3,353.7 L182.0,355.4 L186.6,337.5 L191.3,353.7 L195.9,349.1 L200.6,354.4 L205.2,350.4 L209.9,329.8   L214.5,357.6 L219.1,353.7 L223.8,357.6 L228.4,350.4 L233.1,354.4 L237.7,353.9 L242.4,352.4 L247.0,140.3   L251.7,355.1 L256.3,356.8 L260.9,355.5 L265.6,352.6 L270.2,353.3 L274.9,353.9 L279.5,351.7 L284.2,350.8   L288.8,341.2 L293.5,355.2 L298.1,353.0 L302.8,352.6 L307.4,350.6 L312.0,351.3 L316.7,343.8 L321.3,348.0   L326.0,347.3 L330.6,345.4 L335.3,351.5 L339.9,338.1 L344.6,348.7 L349.2,349.1 L353.8,347.3 L358.5,346.9   L363.1,343.2 L367.8,343.6 L372.4,343.2 L377.1,335.7 L381.7,342.7 L386.4,344.5 L391.0,345.8 L395.7,345.6   L400.3,332.4 L404.9,340.7 L409.6,341.9 L414.2,262.6 L418.9,340.1 L423.5,331.8 L428.2,339.4 L432.8,338.3   L437.5,334.6 L442.1,335.5 L446.7,328.7 L451.4,333.3 L456.0,328.7 L460.7,331.3 L465.3,329.7 L470.0,327.8   L474.6,323.0 L479.3,324.8 L483.9,114.6 L488.6,315.3 L493.2,314.0 L497.8,301.7 L502.5,315.3 L507.1,319.2   L511.8,314.6 L516.4,315.1 L521.1,311.6 L525.7,313.1 L530.4,302.3 L535.0,305.2  " stroke="rgb(  0, 128,   0)"/></g>
	</g>
<g color="white" fill="none" stroke="rgb(  0, 128,   0)" stroke-linecap="butt" stroke-linejoin="miter" stroke-width="2.00">
</g>
<g color="black" fill="none" stroke="currentColor" stroke-linecap="butt" stroke-linejoin="miter" stroke-width="2.00">
</g>
<g color="black" fill="none" stroke="black" stroke-linecap="butt" stroke-linejoin="miter" stroke-width="0.50">
</g>
<g color="black" fill="none" stroke="currentColor" stroke-linecap="butt" stroke-linejoin="miter" stroke-width="0.50">
</g>
</g>
</svg>