<svg height="420px" viewBox="0 0 560 420" width="560px" xmlns="http://www.w3.org/2000/svg" xmlns:xlink="http://www.w3.org/1999/xlink">

<title>Gnuplot</title>
<desc>Produced by GNUPLOT 5.0 patchlevel 3 </desc>

<g id="gnuplot_canvas">

<rect fill="none" height="420" width="560" x="0" y="0"/>
<defs>

	<circle id="gpDot" r="0.5" stroke-width="0.5"/>
	<path d="M-1,0 h2 M0,-1 v2" id="gpPt0" stroke="currentColor" stroke-width="0.222"/>
	<path d="M-1,-1 L1,1 M1,-1 L-1,1" id="gpPt1" stroke="currentColor" stroke-width="0.222"/>
	<path d="M-1,0 L1,0 M0,-1 L0,1 M-1,-1 L1,1 M-1,1 L1,-1" id="gpPt2" stroke="currentColor" stroke-width="0.222"/>
	<rect height="2" id="gpPt3" stroke="currentColor" stroke-width="0.222" width="2" x="-1" y="-1"/>
	<rect fill="currentColor" height="2" id="gpPt4" stroke="currentColor" stroke-width="0.222" width="2" x="-1" y="-1"/>
	<circle cx="0" cy="0" id="gpPt5" r="1" stroke="currentColor" stroke-width="0.222"/>
	<use fill="currentColor" id="gpPt6" stroke="none" xlink:href="#gpPt5"/>
	<path d="M0,-1.33 L-1.33,0.67 L1.33,0.67 z" id="gpPt7" stroke="currentColor" stroke-width="0.222"/>
	<use fill="currentColor" id="gpPt8" stroke="none" xlink:href="#gpPt7"/>
	<use id="gpPt9" stroke="currentColor" transform="rotate(180)" xlink:href="#gpPt7"/>
	<use fill="currentColor" id="gpPt10" stroke="none" xlink:href="#gpPt9"/>
	<use id="gpPt11" stroke="currentColor" transform="rotate(45)" xlink:href="#gpPt3"/>
	<use fill="currentColor" id="gpPt12" stroke="none" xlink:href="#gpPt11"/>
	<path d="M0,1.330 L1.265,0.411 L0.782,-1.067 L-0.782,-1.076 L-1.265,0.411 z" id="gpPt13" stroke="currentColor" stroke-width="0.222"/>
	<use fill="currentColor" id="gpPt14" stroke="none" xlink:href="#gpPt13"/>
	<filter filterUnits="objectBoundingBox" height="1" id="textbox" width="1" x="0" y="0">
	  <feFlood flood-color="white" flood-opacity="1" result="bgnd"/>
	  <feComposite in="SourceGraphic" in2="bgnd" operator="atop"/>
	</filter>
	<filter filterUnits="objectBoundingBox" height="1" id="greybox" width="1" x="0" y="0">
	  <feFlood flood-color="lightgrey" flood-opacity="1" result="grey"/>
	  <feComposite in="SourceGraphic" in2="grey" operator="atop"/>
	</filter>
</defs>
<g color="white" fill="none" stroke="currentColor" stroke-linecap="butt" stroke-linejoin="miter" stroke-width="1.00">
</g>
<g color="black" fill="none" stroke="currentColor" stroke-linecap="butt" stroke-linejoin="miter" stroke-width="1.00">
	<g shape-rendering="crispEdges" stroke="none">
		<polygon fill="rgb(255, 255, 255)" points="53.9,384.0 534.9,384.0 534.9,16.8 53.9,16.8 "/>
	</g>
</g>
<g color="black" fill="none" stroke="rgb(255, 255, 255)" stroke-linecap="butt" stroke-linejoin="miter" stroke-width="0.50">
</g>
<g color="black" fill="none" stroke="currentColor" stroke-linecap="butt" stroke-linejoin="miter" stroke-width="0.50">
	<path d="M53.9,384.0 L66.4,384.0 M535.0,384.0 L522.5,384.0  " stroke="black"/>	<g fill="rgb(0,0,0)" font-family="{}" font-size="16.00" stroke="none" text-anchor="end" transform="translate(45.6,390.0)">
		<text><tspan font-family="{}">10</tspan><tspan dy="-8.00px" font-family="{}" font-size="12.8">-14</tspan><tspan dy="8.00" font-size="16.0"/></text>
	</g>
</g>
<g color="black" fill="none" stroke="currentColor" stroke-linecap="butt" stroke-linejoin="miter" stroke-width="0.50">
	<path d="M53.9,343.2 L60.1,343.2 M535.0,343.2 L528.8,343.2 M53.9,302.4 L60.1,302.4 M535.0,302.4 L528.8,302.4   M53.9,261.6 L60.1,261.6 M535.0,261.6 L528.8,261.6 M53.9,220.8 L60.1,220.8 M535.0,220.8 L528.8,220.8   M53.9,179.9 L60.1,179.9 M535.0,179.9 L528.8,179.9 M53.9,139.1 L60.1,139.1 M535.0,139.1 L528.8,139.1   M53.9,98.3 L60.1,98.3 M535.0,98.3 L528.8,98.3 M53.9,57.5 L60.1,57.5 M535.0,57.5 L528.8,57.5   M53.9,16.7 L60.1,16.7 M535.0,16.7 L528.8,16.7 M53.9,343.2 L66.4,343.2 M535.0,343.2 L522.5,343.2    " stroke="black"/>	<g fill="rgb(0,0,0)" font-family="{}" font-size="16.00" stroke="none" text-anchor="end" transform="translate(45.6,349.2)">
		<text><tspan font-family="{}">10</tspan><tspan dy="-8.00px" font-family="{}" font-size="12.8">-12</tspan><tspan dy="8.00" font-size="16.0"/></text>
	</g>
</g>
<g color="black" fill="none" stroke="currentColor" stroke-linecap="butt" stroke-linejoin="miter" stroke-width="0.50">
	<path d="M53.9,302.4 L60.1,302.4 M535.0,302.4 L528.8,302.4 M53.9,261.6 L60.1,261.6 M535.0,261.6 L528.8,261.6   M53.9,220.8 L60.1,220.8 M535.0,220.8 L528.8,220.8 M53.9,179.9 L60.1,179.9 M535.0,179.9 L528.8,179.9   M53.9,139.1 L60.1,139.1 M535.0,139.1 L528.8,139.1 M53.9,98.3 L60.1,98.3 M535.0,98.3 L528.8,98.3   M53.9,57.5 L60.1,57.5 M535.0,57.5 L528.8,57.5 M53.9,16.7 L60.1,16.7 M535.0,16.7 L528.8,16.7   M53.9,302.4 L66.4,302.4 M535.0,302.4 L522.5,302.4  " stroke="black"/>	<g fill="rgb(0,0,0)" font-family="{}" font-size="16.00" stroke="none" text-anchor="end" transform="translate(45.6,308.4)">
		<text><tspan font-family="{}">10</tspan><tspan dy="-8.00px" font-family="{}" font-size="12.8">-10</tspan><tspan dy="8.00" font-size="16.0"/></text>
	</g>
</g>
<g color="black" fill="none" stroke="currentColor" stroke-linecap="butt" stroke-linejoin="miter" stroke-width="0.50">
	<path d="M53.9,261.6 L60.1,261.6 M535.0,261.6 L528.8,261.6 M53.9,220.8 L60.1,220.8 M535.0,220.8 L528.8,220.8   M53.9,179.9 L60.1,179.9 M535.0,179.9 L528.8,179.9 M53.9,139.1 L60.1,139.1 M535.0,139.1 L528.8,139.1   M53.9,98.3 L60.1,98.3 M535.0,98.3 L528.8,98.3 M53.9,57.5 L60.1,57.5 M535.0,57.5 L528.8,57.5   M53.9,16.7 L60.1,16.7 M535.0,16.7 L528.8,16.7 M53.9,261.6 L66.4,261.6 M535.0,261.6 L522.5,261.6    " stroke="black"/>	<g fill="rgb(0,0,0)" font-family="{}" font-size="16.00" stroke="none" text-anchor="end" transform="translate(45.6,267.6)">
		<text><tspan font-family="{}">10</tspan><tspan dy="-8.00px" font-family="{}" font-size="12.8">-8</tspan><tspan dy="8.00" font-size="16.0"/></text>
	</g>
</g>
<g color="black" fill="none" stroke="currentColor" stroke-linecap="butt" stroke-linejoin="miter" stroke-width="0.50">
	<path d="M53.9,220.8 L60.1,220.8 M535.0,220.8 L528.8,220.8 M53.9,179.9 L60.1,179.9 M535.0,179.9 L528.8,179.9   M53.9,139.1 L60.1,139.1 M535.0,139.1 L528.8,139.1 M53.9,98.3 L60.1,98.3 M535.0,98.3 L528.8,98.3   M53.9,57.5 L60.1,57.5 M535.0,57.5 L528.8,57.5 M53.9,16.7 L60.1,16.7 M535.0,16.7 L528.8,16.7   M53.9,220.8 L66.4,220.8 M535.0,220.8 L522.5,220.8  " stroke="black"/>	<g fill="rgb(0,0,0)" font-family="{}" font-size="16.00" stroke="none" text-anchor="end" transform="translate(45.6,226.8)">
		<text><tspan font-family="{}">10</tspan><tspan dy="-8.00px" font-family="{}" font-size="12.8">-6</tspan><tspan dy="8.00" font-size="16.0"/></text>
	</g>
</g>
<g color="black" fill="none" stroke="currentColor" stroke-linecap="butt" stroke-linejoin="miter" stroke-width="0.50">
	<path d="M53.9,179.9 L60.1,179.9 M535.0,179.9 L528.8,179.9 M53.9,139.1 L60.1,139.1 M535.0,139.1 L528.8,139.1   M53.9,98.3 L60.1,98.3 M535.0,98.3 L528.8,98.3 M53.9,57.5 L60.1,57.5 M535.0,57.5 L528.8,57.5   M53.9,16.7 L60.1,16.7 M535.0,16.7 L528.8,16.7 M53.9,179.9 L66.4,179.9 M535.0,179.9 L522.5,179.9    " stroke="black"/>	<g fill="rgb(0,0,0)" font-family="{}" font-size="16.00" stroke="none" text-anchor="end" transform="translate(45.6,185.9)">
		<text><tspan font-family="{}">10</tspan><tspan dy="-8.00px" font-family="{}" font-size="12.8">-4</tspan><tspan dy="8.00" font-size="16.0"/></text>
	</g>
</g>
<g color="black" fill="none" stroke="currentColor" stroke-linecap="butt" stroke-linejoin="miter" stroke-width="0.50">
	<path d="M53.9,139.1 L60.1,139.1 M535.0,139.1 L528.8,139.1 M53.9,98.3 L60.1,98.3 M535.0,98.3 L528.8,98.3   M53.9,57.5 L60.1,57.5 M535.0,57.5 L528.8,57.5 M53.9,16.7 L60.1,16.7 M535.0,16.7 L528.8,16.7   M53.9,139.1 L66.4,139.1 M535.0,139.1 L522.5,139.1  " stroke="black"/>	<g fill="rgb(0,0,0)" font-family="{}" font-size="16.00" stroke="none" text-anchor="end" transform="translate(45.6,145.1)">
		<text><tspan font-family="{}">10</tspan><tspan dy="-8.00px" font-family="{}" font-size="12.8">-2</tspan><tspan dy="8.00" font-size="16.0"/></text>
	</g>
</g>
<g color="black" fill="none" stroke="currentColor" stroke-linecap="butt" stroke-linejoin="miter" stroke-width="0.50">
	<path d="M53.9,98.3 L60.1,98.3 M535.0,98.3 L528.8,98.3 M53.9,57.5 L60.1,57.5 M535.0,57.5 L528.8,57.5   M53.9,16.7 L60.1,16.7 M535.0,16.7 L528.8,16.7 M53.9,98.3 L66.4,98.3 M535.0,98.3 L522.5,98.3    " stroke="black"/>	<g fill="rgb(0,0,0)" font-family="{}" font-size="16.00" stroke="none" text-anchor="end" transform="translate(45.6,104.3)">
		<text><tspan font-family="{}">10</tspan><tspan dy="-8.00px" font-family="{}" font-size="12.8">0</tspan><tspan dy="8.00" font-size="16.0"/></text>
	</g>
</g>
<g color="black" fill="none" stroke="currentColor" stroke-linecap="butt" stroke-linejoin="miter" stroke-width="0.50">
	<path d="M53.9,57.5 L60.1,57.5 M535.0,57.5 L528.8,57.5 M53.9,16.7 L60.1,16.7 M535.0,16.7 L528.8,16.7   M53.9,57.5 L66.4,57.5 M535.0,57.5 L522.5,57.5  " stroke="black"/>	<g fill="rgb(0,0,0)" font-family="{}" font-size="16.00" stroke="none" text-anchor="end" transform="translate(45.6,63.5)">
		<text><tspan font-family="{}">10</tspan><tspan dy="-8.00px" font-family="{}" font-size="12.8">2</tspan><tspan dy="8.00" font-size="16.0"/></text>
	</g>
</g>
<g color="black" fill="none" stroke="currentColor" stroke-linecap="butt" stroke-linejoin="miter" stroke-width="0.50">
	<path d="M53.9,16.7 L60.1,16.7 M535.0,16.7 L528.8,16.7 M53.9,16.7 L66.4,16.7 M535.0,16.7 L522.5,16.7    " stroke="black"/>	<g fill="rgb(0,0,0)" font-family="{}" font-size="16.00" stroke="none" text-anchor="end" transform="translate(45.6,22.7)">
		<text><tspan font-family="{}">10</tspan><tspan dy="-8.00px" font-family="{}" font-size="12.8">4</tspan><tspan dy="8.00" font-size="16.0"/></text>
	</g>
</g>
<g color="black" fill="none" stroke="currentColor" stroke-linecap="butt" stroke-linejoin="miter" stroke-width="0.50">
	<path d="M53.9,384.0 L53.9,371.5 M53.9,16.7 L53.9,29.2  " stroke="black"/>	<g fill="rgb(0,0,0)" font-family="{}" font-size="16.00" stroke="none" text-anchor="middle" transform="translate(53.9,408.0)">
		<text><tspan font-family="{}">0</tspan></text>
	</g>
</g>
<g color="black" fill="none" stroke="currentColor" stroke-linecap="butt" stroke-linejoin="miter" stroke-width="0.50">
	<path d="M114.0,384.0 L114.0,371.5 M114.0,16.7 L114.0,29.2  " stroke="black"/>	<g fill="rgb(0,0,0)" font-family="{}" font-size="16.00" stroke="none" text-anchor="middle" transform="translate(114.0,408.0)">
		<text><tspan font-family="{}">50</tspan></text>
	</g>
</g>
<g color="black" fill="none" stroke="currentColor" stroke-linecap="butt" stroke-linejoin="miter" stroke-width="0.50">
	<path d="M174.2,384.0 L174.2,371.5 M174.2,16.7 L174.2,29.2  " stroke="black"/>	<g fill="rgb(0,0,0)" font-family="{}" font-size="16.00" stroke="none" text-anchor="middle" transform="translate(174.2,408.0)">
		<text><tspan font-family="{}">100</tspan></text>
	</g>
</g>
<g color="black" fill="none" stroke="currentColor" stroke-linecap="butt" stroke-linejoin="miter" stroke-width="0.50">
	<path d="M234.3,384.0 L234.3,371.5 M234.3,16.7 L234.3,29.2  " stroke="black"/>	<g fill="rgb(0,0,0)" font-family="{}" font-size="16.00" stroke="none" text-anchor="middle" transform="translate(234.3,408.0)">
		<text><tspan font-family="{}">150</tspan></text>
	</g>
</g>
<g color="black" fill="none" stroke="currentColor" stroke-linecap="butt" stroke-linejoin="miter" stroke-width="0.50">
	<path d="M294.5,384.0 L294.5,371.5 M294.5,16.7 L294.5,29.2  " stroke="black"/>	<g fill="rgb(0,0,0)" font-family="{}" font-size="16.00" stroke="none" text-anchor="middle" transform="translate(294.5,408.0)">
		<text><tspan font-family="{}">200</tspan></text>
	</g>
</g>
<g color="black" fill="none" stroke="currentColor" stroke-linecap="butt" stroke-linejoin="miter" stroke-width="0.50">
	<path d="M354.6,384.0 L354.6,371.5 M354.6,16.7 L354.6,29.2  " stroke="black"/>	<g fill="rgb(0,0,0)" font-family="{}" font-size="16.00" stroke="none" text-anchor="middle" transform="translate(354.6,408.0)">
		<text><tspan font-family="{}">250</tspan></text>
	</g>
</g>
<g color="black" fill="none" stroke="currentColor" stroke-linecap="butt" stroke-linejoin="miter" stroke-width="0.50">
	<path d="M414.7,384.0 L414.7,371.5 M414.7,16.7 L414.7,29.2  " stroke="black"/>	<g fill="rgb(0,0,0)" font-family="{}" font-size="16.00" stroke="none" text-anchor="middle" transform="translate(414.7,408.0)">
		<text><tspan font-family="{}">300</tspan></text>
	</g>
</g>
<g color="black" fill="none" stroke="currentColor" stroke-linecap="butt" stroke-linejoin="miter" stroke-width="0.50">
	<path d="M474.9,384.0 L474.9,371.5 M474.9,16.7 L474.9,29.2  " stroke="black"/>	<g fill="rgb(0,0,0)" font-family="{}" font-size="16.00" stroke="none" text-anchor="middle" transform="translate(474.9,408.0)">
		<text><tspan font-family="{}">350</tspan></text>
	</g>
</g>
<g color="black" fill="none" stroke="currentColor" stroke-linecap="butt" stroke-linejoin="miter" stroke-width="0.50">
	<path d="M535.0,384.0 L535.0,371.5 M535.0,16.7 L535.0,29.2  " stroke="black"/>	<g fill="rgb(0,0,0)" font-family="{}" font-size="16.00" stroke="none" text-anchor="middle" transform="translate(535.0,408.0)">
		<text><tspan font-family="{}">400</tspan></text>
	</g>
</g>
<g color="black" fill="none" stroke="currentColor" stroke-linecap="butt" stroke-linejoin="miter" stroke-width="0.50">
</g>
<g color="black" fill="none" stroke="currentColor" stroke-linecap="butt" stroke-linejoin="miter" stroke-width="0.50">
	<path d="M53.9,16.7 L53.9,384.0 L535.0,384.0 L535.0,16.7 L53.9,16.7 Z  " stroke="black"/></g>
<g color="black" fill="none" stroke="currentColor" stroke-linecap="butt" stroke-linejoin="miter" stroke-width="0.50">
</g>
<g color="black" fill="none" stroke="black" stroke-linecap="butt" stroke-linejoin="miter" stroke-width="1.00">
</g>
<g color="black" fill="none" stroke="currentColor" stroke-linecap="butt" stroke-linejoin="miter" stroke-width="1.00">
	<path d="M293.7,217.7 L293.7,25.7 L526.7,25.7 L526.7,217.7 L293.7,217.7 Z  " stroke="black"/></g>
	<g id="gnuplot_plot_1a"><title>newton-raphson</title>
<g color="white" fill="none" stroke="black" stroke-linecap="butt" stroke-linejoin="miter" stroke-width="3.00">
</g>
<g color="black" fill="none" stroke="currentColor" stroke-linecap="butt" stroke-linejoin="miter" stroke-width="3.00">
	<g fill="rgb(0,0,0)" font-family="{}" font-size="16.00" stroke="none" text-anchor="end" transform="translate(526.7,55.7)">
		<text><tspan font-family="{}">newton-raphson</tspan></text>
	</g>
</g>
<g color="black" fill="none" stroke="currentColor" stroke-linecap="butt" stroke-linejoin="miter" stroke-width="3.00">
	<path d="M304.9,49.7 L358.7,49.7 M55.1,81.9 L80.4,122.6 L105.6,165.4 L130.9,208.1 L156.1,250.8 L181.4,293.6   L206.6,336.0  " stroke="rgb(  0,   0, 255)"/></g>
	</g>
	<g id="gnuplot_plot_2a"><title>mod-secant</title>
<g color="black" fill="none" stroke="currentColor" stroke-linecap="butt" stroke-linejoin="miter" stroke-width="3.00">
	<g fill="rgb(0,0,0)" font-family="{}" font-size="16.00" stroke="none" text-anchor="end" transform="translate(526.7,103.7)">
		<text><tspan font-family="{}">mod-secant</tspan></text>
	</g>
</g>
<g color="black" fill="none" stroke="currentColor" stroke-linecap="butt" stroke-linejoin="miter" stroke-width="3.00">
	<path d="M304.9,97.7 L358.7,97.7 M55.1,29.6 L80.4,378.2 L105.6,378.2 L130.9,378.2 L156.1,378.2 L181.4,378.2   L206.6,378.2 L231.9,378.2 L257.2,378.2 L282.4,378.2 L307.7,378.2 L332.9,378.2 L358.2,378.2 L383.5,378.2   L408.7,378.2 L434.0,378.2 L459.2,378.2 L484.5,378.2 L509.7,378.2 L535.0,378.2  " stroke="rgb(  0, 128,   0)"/></g>
	</g>
	<g id="gnuplot_plot_3a"><title>false point</title>
<g color="black" fill="none" stroke="currentColor" stroke-linecap="butt" stroke-linejoin="miter" stroke-width="3.00">
	<g fill="rgb(0,0,0)" font-family="{}" font-size="16.00" stroke="none" text-anchor="end" transform="translate(526.7,151.7)">
		<text><tspan font-family="{}">false point</tspan></text>
	</g>
</g>
<g color="black" fill="none" stroke="currentColor" stroke-linecap="butt" stroke-linejoin="miter" stroke-width="3.00">
	<path d="M304.9,145.7 L358.7,145.7 M55.1,94.5 L80.4,108.9 L105.6,127.2 L130.9,146.2 L156.1,165.3 L181.4,184.4   L206.6,203.5 L231.9,222.6 L257.2,241.7 L282.4,260.8 L307.7,279.9 L332.9,298.9 L358.2,318.0 L383.5,337.2   L408.7,356.6 L434.0,372.8  " stroke="rgb(255,   0,   0)"/></g>
	</g>
	<g id="gnuplot_plot_4a"><title>bisection</title>
<g color="black" fill="none" stroke="currentColor" stroke-linecap="butt" stroke-linejoin="miter" stroke-width="3.00">
	<g fill="rgb(0,0,0)" font-family="{}" font-size="16.00" stroke="none" text-anchor="end" transform="translate(526.7,199.7)">
		<text><tspan font-family="{}">bisection</tspan></text>
	</g>
</g>
<g color="black" fill="none" stroke="currentColor" stroke-linecap="butt" stroke-linejoin="miter" stroke-width="3.00">
	<path d="M304.9,193.7 L358.7,193.7 M55.1,115.1 L80.4,228.6 L105.6,352.0  " stroke="rgb(  0, 191, 191)"/></g>
	</g>
<g color="white" fill="none" stroke="rgb(  0, 191, 191)" stroke-linecap="butt" stroke-linejoin="miter" stroke-width="2.00">
</g>
<g color="black" fill="none" stroke="currentColor" stroke-linecap="butt" stroke-linejoin="miter" stroke-width="2.00">
</g>
<g color="black" fill="none" stroke="black" stroke-linecap="butt" stroke-linejoin="miter" stroke-width="0.50">
</g>
<g color="black" fill="none" stroke="currentColor" stroke-linecap="butt" stroke-linejoin="miter" stroke-width="0.50">
</g>
</g>
</svg>