<svg height="420px" viewBox="0 0 560 420" width="560px" xmlns="http://www.w3.org/2000/svg" xmlns:xlink="http://www.w3.org/1999/xlink">

<title>Gnuplot</title>
<desc>Produced by GNUPLOT 5.0 patchlevel 3 </desc>

<g id="gnuplot_canvas">

<rect fill="none" height="420" width="560" x="0" y="0"/>
<defs>

	<circle id="gpDot" r="0.5" stroke-width="0.5"/>
	<path d="M-1,0 h2 M0,-1 v2" id="gpPt0" stroke="currentColor" stroke-width="0.222"/>
	<path d="M-1,-1 L1,1 M1,-1 L-1,1" id="gpPt1" stroke="currentColor" stroke-width="0.222"/>
	<path d="M-1,0 L1,0 M0,-1 L0,1 M-1,-1 L1,1 M-1,1 L1,-1" id="gpPt2" stroke="currentColor" stroke-width="0.222"/>
	<rect height="2" id="gpPt3" stroke="currentColor" stroke-width="0.222" width="2" x="-1" y="-1"/>
	<rect fill="currentColor" height="2" id="gpPt4" stroke="currentColor" stroke-width="0.222" width="2" x="-1" y="-1"/>
	<circle cx="0" cy="0" id="gpPt5" r="1" stroke="currentColor" stroke-width="0.222"/>
	<use fill="currentColor" id="gpPt6" stroke="none" xlink:href="#gpPt5"/>
	<path d="M0,-1.33 L-1.33,0.67 L1.33,0.67 z" id="gpPt7" stroke="currentColor" stroke-width="0.222"/>
	<use fill="currentColor" id="gpPt8" stroke="none" xlink:href="#gpPt7"/>
	<use id="gpPt9" stroke="currentColor" transform="rotate(180)" xlink:href="#gpPt7"/>
	<use fill="currentColor" id="gpPt10" stroke="none" xlink:href="#gpPt9"/>
	<use id="gpPt11" stroke="currentColor" transform="rotate(45)" xlink:href="#gpPt3"/>
	<use fill="currentColor" id="gpPt12" stroke="none" xlink:href="#gpPt11"/>
	<path d="M0,1.330 L1.265,0.411 L0.782,-1.067 L-0.782,-1.076 L-1.265,0.411 z" id="gpPt13" stroke="currentColor" stroke-width="0.222"/>
	<use fill="currentColor" id="gpPt14" stroke="none" xlink:href="#gpPt13"/>
	<filter filterUnits="objectBoundingBox" height="1" id="textbox" width="1" x="0" y="0">
	  <feFlood flood-color="white" flood-opacity="1" result="bgnd"/>
	  <feComposite in="SourceGraphic" in2="bgnd" operator="atop"/>
	</filter>
	<filter filterUnits="objectBoundingBox" height="1" id="greybox" width="1" x="0" y="0">
	  <feFlood flood-color="lightgrey" flood-opacity="1" result="grey"/>
	  <feComposite in="SourceGraphic" in2="grey" operator="atop"/>
	</filter>
</defs>
<g color="white" fill="none" stroke="currentColor" stroke-linecap="butt" stroke-linejoin="miter" stroke-width="1.00">
</g>
<g color="black" fill="none" stroke="currentColor" stroke-linecap="butt" stroke-linejoin="miter" stroke-width="1.00">
	<g shape-rendering="crispEdges" stroke="none">
		<polygon fill="rgb(255, 255, 255)" points="53.9,384.0 534.9,384.0 534.9,16.8 53.9,16.8 "/>
	</g>
</g>
<g color="black" fill="none" stroke="rgb(255, 255, 255)" stroke-linecap="butt" stroke-linejoin="miter" stroke-width="0.50">
</g>
<g color="black" fill="none" stroke="currentColor" stroke-linecap="butt" stroke-linejoin="miter" stroke-width="0.50">
	<path d="M53.9,364.7 L60.1,364.7 M535.0,364.7 L528.8,364.7 M53.9,326.0 L60.1,326.0 M535.0,326.0 L528.8,326.0   M53.9,287.3 L60.1,287.3 M535.0,287.3 L528.8,287.3 M53.9,248.7 L60.1,248.7 M535.0,248.7 L528.8,248.7   M53.9,210.0 L60.1,210.0 M535.0,210.0 L528.8,210.0 M53.9,171.4 L60.1,171.4 M535.0,171.4 L528.8,171.4   M53.9,132.7 L60.1,132.7 M535.0,132.7 L528.8,132.7 M53.9,94.0 L60.1,94.0 M535.0,94.0 L528.8,94.0   M53.9,55.4 L60.1,55.4 M535.0,55.4 L528.8,55.4 M53.9,364.7 L66.4,364.7 M535.0,364.7 L522.5,364.7    " stroke="black"/>	<g fill="rgb(0,0,0)" font-family="{}" font-size="16.00" stroke="none" text-anchor="end" transform="translate(45.6,370.7)">
		<text><tspan font-family="{}">10</tspan><tspan dy="-8.00px" font-family="{}" font-size="12.8">-14</tspan><tspan dy="8.00" font-size="16.0"/></text>
	</g>
</g>
<g color="black" fill="none" stroke="currentColor" stroke-linecap="butt" stroke-linejoin="miter" stroke-width="0.50">
	<path d="M53.9,326.0 L60.1,326.0 M535.0,326.0 L528.8,326.0 M53.9,287.3 L60.1,287.3 M535.0,287.3 L528.8,287.3   M53.9,248.7 L60.1,248.7 M535.0,248.7 L528.8,248.7 M53.9,210.0 L60.1,210.0 M535.0,210.0 L528.8,210.0   M53.9,171.4 L60.1,171.4 M535.0,171.4 L528.8,171.4 M53.9,132.7 L60.1,132.7 M535.0,132.7 L528.8,132.7   M53.9,94.0 L60.1,94.0 M535.0,94.0 L528.8,94.0 M53.9,55.4 L60.1,55.4 M535.0,55.4 L528.8,55.4   M53.9,16.7 L60.1,16.7 M535.0,16.7 L528.8,16.7 M53.9,326.0 L66.4,326.0 M535.0,326.0 L522.5,326.0    " stroke="black"/>	<g fill="rgb(0,0,0)" font-family="{}" font-size="16.00" stroke="none" text-anchor="end" transform="translate(45.6,332.0)">
		<text><tspan font-family="{}">10</tspan><tspan dy="-8.00px" font-family="{}" font-size="12.8">-12</tspan><tspan dy="8.00" font-size="16.0"/></text>
	</g>
</g>
<g color="black" fill="none" stroke="currentColor" stroke-linecap="butt" stroke-linejoin="miter" stroke-width="0.50">
	<path d="M53.9,287.3 L60.1,287.3 M535.0,287.3 L528.8,287.3 M53.9,248.7 L60.1,248.7 M535.0,248.7 L528.8,248.7   M53.9,210.0 L60.1,210.0 M535.0,210.0 L528.8,210.0 M53.9,171.4 L60.1,171.4 M535.0,171.4 L528.8,171.4   M53.9,132.7 L60.1,132.7 M535.0,132.7 L528.8,132.7 M53.9,94.0 L60.1,94.0 M535.0,94.0 L528.8,94.0   M53.9,55.4 L60.1,55.4 M535.0,55.4 L528.8,55.4 M53.9,16.7 L60.1,16.7 M535.0,16.7 L528.8,16.7   M53.9,287.3 L66.4,287.3 M535.0,287.3 L522.5,287.3  " stroke="black"/>	<g fill="rgb(0,0,0)" font-family="{}" font-size="16.00" stroke="none" text-anchor="end" transform="translate(45.6,293.3)">
		<text><tspan font-family="{}">10</tspan><tspan dy="-8.00px" font-family="{}" font-size="12.8">-10</tspan><tspan dy="8.00" font-size="16.0"/></text>
	</g>
</g>
<g color="black" fill="none" stroke="currentColor" stroke-linecap="butt" stroke-linejoin="miter" stroke-width="0.50">
	<path d="M53.9,248.7 L60.1,248.7 M535.0,248.7 L528.8,248.7 M53.9,210.0 L60.1,210.0 M535.0,210.0 L528.8,210.0   M53.9,171.4 L60.1,171.4 M535.0,171.4 L528.8,171.4 M53.9,132.7 L60.1,132.7 M535.0,132.7 L528.8,132.7   M53.9,94.0 L60.1,94.0 M535.0,94.0 L528.8,94.0 M53.9,55.4 L60.1,55.4 M535.0,55.4 L528.8,55.4   M53.9,16.7 L60.1,16.7 M535.0,16.7 L528.8,16.7 M53.9,248.7 L66.4,248.7 M535.0,248.7 L522.5,248.7    " stroke="black"/>	<g fill="rgb(0,0,0)" font-family="{}" font-size="16.00" stroke="none" text-anchor="end" transform="translate(45.6,254.7)">
		<text><tspan font-family="{}">10</tspan><tspan dy="-8.00px" font-family="{}" font-size="12.8">-8</tspan><tspan dy="8.00" font-size="16.0"/></text>
	</g>
</g>
<g color="black" fill="none" stroke="currentColor" stroke-linecap="butt" stroke-linejoin="miter" stroke-width="0.50">
	<path d="M53.9,210.0 L60.1,210.0 M535.0,210.0 L528.8,210.0 M53.9,171.4 L60.1,171.4 M535.0,171.4 L528.8,171.4   M53.9,132.7 L60.1,132.7 M535.0,132.7 L528.8,132.7 M53.9,94.0 L60.1,94.0 M535.0,94.0 L528.8,94.0   M53.9,55.4 L60.1,55.4 M535.0,55.4 L528.8,55.4 M53.9,16.7 L60.1,16.7 M535.0,16.7 L528.8,16.7   M53.9,210.0 L66.4,210.0 M535.0,210.0 L522.5,210.0  " stroke="black"/>	<g fill="rgb(0,0,0)" font-family="{}" font-size="16.00" stroke="none" text-anchor="end" transform="translate(45.6,216.0)">
		<text><tspan font-family="{}">10</tspan><tspan dy="-8.00px" font-family="{}" font-size="12.8">-6</tspan><tspan dy="8.00" font-size="16.0"/></text>
	</g>
</g>
<g color="black" fill="none" stroke="currentColor" stroke-linecap="butt" stroke-linejoin="miter" stroke-width="0.50">
	<path d="M53.9,171.4 L60.1,171.4 M535.0,171.4 L528.8,171.4 M53.9,132.7 L60.1,132.7 M535.0,132.7 L528.8,132.7   M53.9,94.0 L60.1,94.0 M535.0,94.0 L528.8,94.0 M53.9,55.4 L60.1,55.4 M535.0,55.4 L528.8,55.4   M53.9,16.7 L60.1,16.7 M535.0,16.7 L528.8,16.7 M53.9,171.4 L66.4,171.4 M535.0,171.4 L522.5,171.4    " stroke="black"/>	<g fill="rgb(0,0,0)" font-family="{}" font-size="16.00" stroke="none" text-anchor="end" transform="translate(45.6,177.4)">
		<text><tspan font-family="{}">10</tspan><tspan dy="-8.00px" font-family="{}" font-size="12.8">-4</tspan><tspan dy="8.00" font-size="16.0"/></text>
	</g>
</g>
<g color="black" fill="none" stroke="currentColor" stroke-linecap="butt" stroke-linejoin="miter" stroke-width="0.50">
	<path d="M53.9,132.7 L60.1,132.7 M535.0,132.7 L528.8,132.7 M53.9,94.0 L60.1,94.0 M535.0,94.0 L528.8,94.0   M53.9,55.4 L60.1,55.4 M535.0,55.4 L528.8,55.4 M53.9,16.7 L60.1,16.7 M535.0,16.7 L528.8,16.7   M53.9,132.7 L66.4,132.7 M535.0,132.7 L522.5,132.7  " stroke="black"/>	<g fill="rgb(0,0,0)" font-family="{}" font-size="16.00" stroke="none" text-anchor="end" transform="translate(45.6,138.7)">
		<text><tspan font-family="{}">10</tspan><tspan dy="-8.00px" font-family="{}" font-size="12.8">-2</tspan><tspan dy="8.00" font-size="16.0"/></text>
	</g>
</g>
<g color="black" fill="none" stroke="currentColor" stroke-linecap="butt" stroke-linejoin="miter" stroke-width="0.50">
	<path d="M53.9,94.0 L60.1,94.0 M535.0,94.0 L528.8,94.0 M53.9,55.4 L60.1,55.4 M535.0,55.4 L528.8,55.4   M53.9,16.7 L60.1,16.7 M535.0,16.7 L528.8,16.7 M53.9,94.0 L66.4,94.0 M535.0,94.0 L522.5,94.0    " stroke="black"/>	<g fill="rgb(0,0,0)" font-family="{}" font-size="16.00" stroke="none" text-anchor="end" transform="translate(45.6,100.0)">
		<text><tspan font-family="{}">10</tspan><tspan dy="-8.00px" font-family="{}" font-size="12.8">0</tspan><tspan dy="8.00" font-size="16.0"/></text>
	</g>
</g>
<g color="black" fill="none" stroke="currentColor" stroke-linecap="butt" stroke-linejoin="miter" stroke-width="0.50">
	<path d="M53.9,55.4 L60.1,55.4 M535.0,55.4 L528.8,55.4 M53.9,16.7 L60.1,16.7 M535.0,16.7 L528.8,16.7   M53.9,55.4 L66.4,55.4 M535.0,55.4 L522.5,55.4  " stroke="black"/>	<g fill="rgb(0,0,0)" font-family="{}" font-size="16.00" stroke="none" text-anchor="end" transform="translate(45.6,61.4)">
		<text><tspan font-family="{}">10</tspan><tspan dy="-8.00px" font-family="{}" font-size="12.8">2</tspan><tspan dy="8.00" font-size="16.0"/></text>
	</g>
</g>
<g color="black" fill="none" stroke="currentColor" stroke-linecap="butt" stroke-linejoin="miter" stroke-width="0.50">
	<path d="M53.9,16.7 L60.1,16.7 M535.0,16.7 L528.8,16.7 M53.9,16.7 L66.4,16.7 M535.0,16.7 L522.5,16.7    " stroke="black"/>	<g fill="rgb(0,0,0)" font-family="{}" font-size="16.00" stroke="none" text-anchor="end" transform="translate(45.6,22.7)">
		<text><tspan font-family="{}">10</tspan><tspan dy="-8.00px" font-family="{}" font-size="12.8">4</tspan><tspan dy="8.00" font-size="16.0"/></text>
	</g>
</g>
<g color="black" fill="none" stroke="currentColor" stroke-linecap="butt" stroke-linejoin="miter" stroke-width="0.50">
	<path d="M53.9,384.0 L53.9,371.5 M53.9,16.7 L53.9,29.2  " stroke="black"/>	<g fill="rgb(0,0,0)" font-family="{}" font-size="16.00" stroke="none" text-anchor="middle" transform="translate(53.9,408.0)">
		<text><tspan font-family="{}">0</tspan></text>
	</g>
</g>
<g color="black" fill="none" stroke="currentColor" stroke-linecap="butt" stroke-linejoin="miter" stroke-width="0.50">
	<path d="M150.1,384.0 L150.1,371.5 M150.1,16.7 L150.1,29.2  " stroke="black"/>	<g fill="rgb(0,0,0)" font-family="{}" font-size="16.00" stroke="none" text-anchor="middle" transform="translate(150.1,408.0)">
		<text><tspan font-family="{}">10</tspan></text>
	</g>
</g>
<g color="black" fill="none" stroke="currentColor" stroke-linecap="butt" stroke-linejoin="miter" stroke-width="0.50">
	<path d="M246.3,384.0 L246.3,371.5 M246.3,16.7 L246.3,29.2  " stroke="black"/>	<g fill="rgb(0,0,0)" font-family="{}" font-size="16.00" stroke="none" text-anchor="middle" transform="translate(246.3,408.0)">
		<text><tspan font-family="{}">20</tspan></text>
	</g>
</g>
<g color="black" fill="none" stroke="currentColor" stroke-linecap="butt" stroke-linejoin="miter" stroke-width="0.50">
	<path d="M342.6,384.0 L342.6,371.5 M342.6,16.7 L342.6,29.2  " stroke="black"/>	<g fill="rgb(0,0,0)" font-family="{}" font-size="16.00" stroke="none" text-anchor="middle" transform="translate(342.6,408.0)">
		<text><tspan font-family="{}">30</tspan></text>
	</g>
</g>
<g color="black" fill="none" stroke="currentColor" stroke-linecap="butt" stroke-linejoin="miter" stroke-width="0.50">
	<path d="M438.8,384.0 L438.8,371.5 M438.8,16.7 L438.8,29.2  " stroke="black"/>	<g fill="rgb(0,0,0)" font-family="{}" font-size="16.00" stroke="none" text-anchor="middle" transform="translate(438.8,408.0)">
		<text><tspan font-family="{}">40</tspan></text>
	</g>
</g>
<g color="black" fill="none" stroke="currentColor" stroke-linecap="butt" stroke-linejoin="miter" stroke-width="0.50">
	<path d="M535.0,384.0 L535.0,371.5 M535.0,16.7 L535.0,29.2  " stroke="black"/>	<g fill="rgb(0,0,0)" font-family="{}" font-size="16.00" stroke="none" text-anchor="middle" transform="translate(535.0,408.0)">
		<text><tspan font-family="{}">50</tspan></text>
	</g>
</g>
<g color="black" fill="none" stroke="currentColor" stroke-linecap="butt" stroke-linejoin="miter" stroke-width="0.50">
</g>
<g color="black" fill="none" stroke="currentColor" stroke-linecap="butt" stroke-linejoin="miter" stroke-width="0.50">
	<path d="M53.9,16.7 L53.9,384.0 L535.0,384.0 L535.0,16.7 L53.9,16.7 Z  " stroke="black"/></g>
<g color="black" fill="none" stroke="currentColor" stroke-linecap="butt" stroke-linejoin="miter" stroke-width="0.50">
</g>
<g color="black" fill="none" stroke="black" stroke-linecap="butt" stroke-linejoin="miter" stroke-width="1.00">
</g>
<g color="black" fill="none" stroke="currentColor" stroke-linecap="butt" stroke-linejoin="miter" stroke-width="1.00">
	<path d="M293.7,217.7 L293.7,25.7 L526.7,25.7 L526.7,217.7 L293.7,217.7 Z  " stroke="black"/></g>
	<g id="gnuplot_plot_1a"><title>newton-raphson</title>
<g color="white" fill="none" stroke="black" stroke-linecap="butt" stroke-linejoin="miter" stroke-width="3.00">
</g>
<g color="black" fill="none" stroke="currentColor" stroke-linecap="butt" stroke-linejoin="miter" stroke-width="3.00">
	<g fill="rgb(0,0,0)" font-family="{}" font-size="16.00" stroke="none" text-anchor="end" transform="translate(526.7,55.7)">
		<text><tspan font-family="{}">newton-raphson</tspan></text>
	</g>
</g>
<g color="black" fill="none" stroke="currentColor" stroke-linecap="butt" stroke-linejoin="miter" stroke-width="3.00">
	<path d="M304.9,49.7 L358.7,49.7 M63.5,55.4 L88.3,73.8 L113.2,73.8 L138.0,73.8 L162.8,73.8 L187.6,73.8   L212.4,73.8 L237.2,73.8 L262.0,73.8 L286.9,73.8 L311.7,73.8 L336.5,73.8 L361.3,73.8 L386.1,73.9   L410.9,75.8 L435.7,87.7 L460.6,221.4  " stroke="rgb(  0,   0, 255)"/></g>
	</g>
	<g id="gnuplot_plot_2a"><title>mod-secant</title>
<g color="black" fill="none" stroke="currentColor" stroke-linecap="butt" stroke-linejoin="miter" stroke-width="3.00">
	<g fill="rgb(0,0,0)" font-family="{}" font-size="16.00" stroke="none" text-anchor="end" transform="translate(526.7,103.7)">
		<text><tspan font-family="{}">mod-secant</tspan></text>
	</g>
</g>
<g color="black" fill="none" stroke="currentColor" stroke-linecap="butt" stroke-linejoin="miter" stroke-width="3.00">
	<path d="M304.9,97.7 L358.7,97.7 M63.5,55.4 L88.3,73.8 L113.2,73.8 L138.0,73.8 L162.8,73.8 L187.6,73.8   L212.4,73.8 L237.2,73.8 L262.0,73.8 L286.9,73.8 L311.7,73.8 L336.5,73.8 L361.3,73.8 L386.1,73.9   L410.9,75.8 L435.7,87.7 L460.6,221.0  " stroke="rgb(  0, 128,   0)"/></g>
	</g>
	<g id="gnuplot_plot_3a"><title>false point</title>
<g color="black" fill="none" stroke="currentColor" stroke-linecap="butt" stroke-linejoin="miter" stroke-width="3.00">
	<g fill="rgb(0,0,0)" font-family="{}" font-size="16.00" stroke="none" text-anchor="end" transform="translate(526.7,151.7)">
		<text><tspan font-family="{}">false point</tspan></text>
	</g>
</g>
<g color="black" fill="none" stroke="currentColor" stroke-linecap="butt" stroke-linejoin="miter" stroke-width="3.00">
	<path d="M304.9,145.7 L358.7,145.7 M63.5,94.0 L88.3,94.0 L113.2,94.0 L138.0,94.0 L162.8,94.0 L187.6,94.0   L212.4,94.0 L237.2,94.0 L262.0,94.0 L286.9,94.0 L311.7,94.0 L336.5,94.0 L361.3,94.0 L386.1,94.0   L410.9,94.0 L435.7,94.0 L460.6,94.0 L485.4,94.0 L510.2,94.0 L535.0,94.0  " stroke="rgb(255,   0,   0)"/></g>
	</g>
	<g id="gnuplot_plot_4a"><title>bisection</title>
<g color="black" fill="none" stroke="currentColor" stroke-linecap="butt" stroke-linejoin="miter" stroke-width="3.00">
	<g fill="rgb(0,0,0)" font-family="{}" font-size="16.00" stroke="none" text-anchor="end" transform="translate(526.7,199.7)">
		<text><tspan font-family="{}">bisection</tspan></text>
	</g>
</g>
<g color="black" fill="none" stroke="currentColor" stroke-linecap="butt" stroke-linejoin="miter" stroke-width="3.00">
	<path d="M304.9,193.7 L358.7,193.7 M63.5,17.1 L88.3,100.3 L113.2,107.1 L138.0,117.6 L162.8,144.5 L187.6,156.2   L212.4,164.4 L237.2,191.1 L262.0,202.7 L286.9,211.0 L311.7,222.6 L336.5,249.3 L361.3,260.9 L386.1,269.1   L410.9,295.8 L435.7,307.5 L460.6,315.7 L485.4,327.3 L510.2,354.0 L535.0,365.7  " stroke="rgb(  0, 191, 191)"/></g>
	</g>
<g color="white" fill="none" stroke="rgb(  0, 191, 191)" stroke-linecap="butt" stroke-linejoin="miter" stroke-width="2.00">
</g>
<g color="black" fill="none" stroke="currentColor" stroke-linecap="butt" stroke-linejoin="miter" stroke-width="2.00">
</g>
<g color="black" fill="none" stroke="black" stroke-linecap="butt" stroke-linejoin="miter" stroke-width="0.50">
</g>
<g color="black" fill="none" stroke="currentColor" stroke-linecap="butt" stroke-linejoin="miter" stroke-width="0.50">
</g>
</g>
</svg>