<svg height="420px" viewBox="0 0 560 420" width="560px" xmlns="http://www.w3.org/2000/svg" xmlns:xlink="http://www.w3.org/1999/xlink">

<title>Gnuplot</title>
<desc>Produced by GNUPLOT 5.0 patchlevel 3 </desc>

<g id="gnuplot_canvas">

<rect fill="none" height="420" width="560" x="0" y="0"/>
<defs>

	<circle id="gpDot" r="0.5" stroke-width="0.5"/>
	<path d="M-1,0 h2 M0,-1 v2" id="gpPt0" stroke="currentColor" stroke-width="0.222"/>
	<path d="M-1,-1 L1,1 M1,-1 L-1,1" id="gpPt1" stroke="currentColor" stroke-width="0.222"/>
	<path d="M-1,0 L1,0 M0,-1 L0,1 M-1,-1 L1,1 M-1,1 L1,-1" id="gpPt2" stroke="currentColor" stroke-width="0.222"/>
	<rect height="2" id="gpPt3" stroke="currentColor" stroke-width="0.222" width="2" x="-1" y="-1"/>
	<rect fill="currentColor" height="2" id="gpPt4" stroke="currentColor" stroke-width="0.222" width="2" x="-1" y="-1"/>
	<circle cx="0" cy="0" id="gpPt5" r="1" stroke="currentColor" stroke-width="0.222"/>
	<use fill="currentColor" id="gpPt6" stroke="none" xlink:href="#gpPt5"/>
	<path d="M0,-1.33 L-1.33,0.67 L1.33,0.67 z" id="gpPt7" stroke="currentColor" stroke-width="0.222"/>
	<use fill="currentColor" id="gpPt8" stroke="none" xlink:href="#gpPt7"/>
	<use id="gpPt9" stroke="currentColor" transform="rotate(180)" xlink:href="#gpPt7"/>
	<use fill="currentColor" id="gpPt10" stroke="none" xlink:href="#gpPt9"/>
	<use id="gpPt11" stroke="currentColor" transform="rotate(45)" xlink:href="#gpPt3"/>
	<use fill="currentColor" id="gpPt12" stroke="none" xlink:href="#gpPt11"/>
	<path d="M0,1.330 L1.265,0.411 L0.782,-1.067 L-0.782,-1.076 L-1.265,0.411 z" id="gpPt13" stroke="currentColor" stroke-width="0.222"/>
	<use fill="currentColor" id="gpPt14" stroke="none" xlink:href="#gpPt13"/>
	<filter filterUnits="objectBoundingBox" height="1" id="textbox" width="1" x="0" y="0">
	  <feFlood flood-color="white" flood-opacity="1" result="bgnd"/>
	  <feComposite in="SourceGraphic" in2="bgnd" operator="atop"/>
	</filter>
	<filter filterUnits="objectBoundingBox" height="1" id="greybox" width="1" x="0" y="0">
	  <feFlood flood-color="lightgrey" flood-opacity="1" result="grey"/>
	  <feComposite in="SourceGraphic" in2="grey" operator="atop"/>
	</filter>
</defs>
<g color="white" fill="none" stroke="currentColor" stroke-linecap="butt" stroke-linejoin="miter" stroke-width="1.00">
</g>
<g color="black" fill="none" stroke="currentColor" stroke-linecap="butt" stroke-linejoin="miter" stroke-width="1.00">
	<g shape-rendering="crispEdges" stroke="none">
		<polygon fill="rgb(255, 255, 255)" points="88.5,362.4 534.9,362.4 534.9,16.8 88.5,16.8 "/>
	</g>
</g>
<g color="black" fill="none" stroke="rgb(255, 255, 255)" stroke-linecap="butt" stroke-linejoin="miter" stroke-width="0.50">
</g>
<g color="black" fill="none" stroke="currentColor" stroke-linecap="butt" stroke-linejoin="miter" stroke-width="0.50">
	<path d="M88.5,362.4 L101.0,362.4 M535.0,362.4 L522.5,362.4  " stroke="black"/>	<g fill="rgb(0,0,0)" font-family="{}" font-size="16.00" stroke="none" text-anchor="end" transform="translate(80.2,368.4)">
		<text><tspan font-family="{}">0</tspan></text>
	</g>
</g>
<g color="black" fill="none" stroke="currentColor" stroke-linecap="butt" stroke-linejoin="miter" stroke-width="0.50">
	<path d="M88.5,313.0 L101.0,313.0 M535.0,313.0 L522.5,313.0  " stroke="black"/>	<g fill="rgb(0,0,0)" font-family="{}" font-size="16.00" stroke="none" text-anchor="end" transform="translate(80.2,319.0)">
		<text><tspan font-family="{}">100000</tspan></text>
	</g>
</g>
<g color="black" fill="none" stroke="currentColor" stroke-linecap="butt" stroke-linejoin="miter" stroke-width="0.50">
	<path d="M88.5,263.6 L101.0,263.6 M535.0,263.6 L522.5,263.6  " stroke="black"/>	<g fill="rgb(0,0,0)" font-family="{}" font-size="16.00" stroke="none" text-anchor="end" transform="translate(80.2,269.6)">
		<text><tspan font-family="{}">200000</tspan></text>
	</g>
</g>
<g color="black" fill="none" stroke="currentColor" stroke-linecap="butt" stroke-linejoin="miter" stroke-width="0.50">
	<path d="M88.5,214.2 L101.0,214.2 M535.0,214.2 L522.5,214.2  " stroke="black"/>	<g fill="rgb(0,0,0)" font-family="{}" font-size="16.00" stroke="none" text-anchor="end" transform="translate(80.2,220.2)">
		<text><tspan font-family="{}">300000</tspan></text>
	</g>
</g>
<g color="black" fill="none" stroke="currentColor" stroke-linecap="butt" stroke-linejoin="miter" stroke-width="0.50">
	<path d="M88.5,164.9 L101.0,164.9 M535.0,164.9 L522.5,164.9  " stroke="black"/>	<g fill="rgb(0,0,0)" font-family="{}" font-size="16.00" stroke="none" text-anchor="end" transform="translate(80.2,170.9)">
		<text><tspan font-family="{}">400000</tspan></text>
	</g>
</g>
<g color="black" fill="none" stroke="currentColor" stroke-linecap="butt" stroke-linejoin="miter" stroke-width="0.50">
	<path d="M88.5,115.5 L101.0,115.5 M535.0,115.5 L522.5,115.5  " stroke="black"/>	<g fill="rgb(0,0,0)" font-family="{}" font-size="16.00" stroke="none" text-anchor="end" transform="translate(80.2,121.5)">
		<text><tspan font-family="{}">500000</tspan></text>
	</g>
</g>
<g color="black" fill="none" stroke="currentColor" stroke-linecap="butt" stroke-linejoin="miter" stroke-width="0.50">
	<path d="M88.5,66.1 L101.0,66.1 M535.0,66.1 L522.5,66.1  " stroke="black"/>	<g fill="rgb(0,0,0)" font-family="{}" font-size="16.00" stroke="none" text-anchor="end" transform="translate(80.2,72.1)">
		<text><tspan font-family="{}">600000</tspan></text>
	</g>
</g>
<g color="black" fill="none" stroke="currentColor" stroke-linecap="butt" stroke-linejoin="miter" stroke-width="0.50">
	<path d="M88.5,16.7 L101.0,16.7 M535.0,16.7 L522.5,16.7  " stroke="black"/>	<g fill="rgb(0,0,0)" font-family="{}" font-size="16.00" stroke="none" text-anchor="end" transform="translate(80.2,22.7)">
		<text><tspan font-family="{}">700000</tspan></text>
	</g>
</g>
<g color="black" fill="none" stroke="currentColor" stroke-linecap="butt" stroke-linejoin="miter" stroke-width="0.50">
	<path d="M88.5,362.4 L88.5,349.9 M88.5,16.7 L88.5,29.2  " stroke="black"/>	<g fill="rgb(0,0,0)" font-family="{}" font-size="16.00" stroke="none" text-anchor="middle" transform="translate(88.5,386.4)">
		<text><tspan font-family="{}">0</tspan></text>
	</g>
</g>
<g color="black" fill="none" stroke="currentColor" stroke-linecap="butt" stroke-linejoin="miter" stroke-width="0.50">
	<path d="M162.9,362.4 L162.9,349.9 M162.9,16.7 L162.9,29.2  " stroke="black"/>	<g fill="rgb(0,0,0)" font-family="{}" font-size="16.00" stroke="none" text-anchor="middle" transform="translate(162.9,386.4)">
		<text><tspan font-family="{}">5</tspan></text>
	</g>
</g>
<g color="black" fill="none" stroke="currentColor" stroke-linecap="butt" stroke-linejoin="miter" stroke-width="0.50">
	<path d="M237.3,362.4 L237.3,349.9 M237.3,16.7 L237.3,29.2  " stroke="black"/>	<g fill="rgb(0,0,0)" font-family="{}" font-size="16.00" stroke="none" text-anchor="middle" transform="translate(237.3,386.4)">
		<text><tspan font-family="{}">10</tspan></text>
	</g>
</g>
<g color="black" fill="none" stroke="currentColor" stroke-linecap="butt" stroke-linejoin="miter" stroke-width="0.50">
	<path d="M311.8,362.4 L311.8,349.9 M311.8,16.7 L311.8,29.2  " stroke="black"/>	<g fill="rgb(0,0,0)" font-family="{}" font-size="16.00" stroke="none" text-anchor="middle" transform="translate(311.8,386.4)">
		<text><tspan font-family="{}">15</tspan></text>
	</g>
</g>
<g color="black" fill="none" stroke="currentColor" stroke-linecap="butt" stroke-linejoin="miter" stroke-width="0.50">
	<path d="M386.2,362.4 L386.2,349.9 M386.2,16.7 L386.2,29.2  " stroke="black"/>	<g fill="rgb(0,0,0)" font-family="{}" font-size="16.00" stroke="none" text-anchor="middle" transform="translate(386.2,386.4)">
		<text><tspan font-family="{}">20</tspan></text>
	</g>
</g>
<g color="black" fill="none" stroke="currentColor" stroke-linecap="butt" stroke-linejoin="miter" stroke-width="0.50">
	<path d="M460.6,362.4 L460.6,349.9 M460.6,16.7 L460.6,29.2  " stroke="black"/>	<g fill="rgb(0,0,0)" font-family="{}" font-size="16.00" stroke="none" text-anchor="middle" transform="translate(460.6,386.4)">
		<text><tspan font-family="{}">25</tspan></text>
	</g>
</g>
<g color="black" fill="none" stroke="currentColor" stroke-linecap="butt" stroke-linejoin="miter" stroke-width="0.50">
	<path d="M535.0,362.4 L535.0,349.9 M535.0,16.7 L535.0,29.2  " stroke="black"/>	<g fill="rgb(0,0,0)" font-family="{}" font-size="16.00" stroke="none" text-anchor="middle" transform="translate(535.0,386.4)">
		<text><tspan font-family="{}">30</tspan></text>
	</g>
</g>
<g color="black" fill="none" stroke="currentColor" stroke-linecap="butt" stroke-linejoin="miter" stroke-width="0.50">
</g>
<g color="black" fill="none" stroke="currentColor" stroke-linecap="butt" stroke-linejoin="miter" stroke-width="0.50">
	<path d="M88.5,16.7 L88.5,362.4 L535.0,362.4 L535.0,16.7 L88.5,16.7 Z  " stroke="black"/></g>
<g color="black" fill="none" stroke="currentColor" stroke-linecap="butt" stroke-linejoin="miter" stroke-width="0.50">
	<g fill="rgb(0,0,0)" font-family="{}" font-size="16.00" stroke="none" text-anchor="middle" transform="translate(19.1,189.6) rotate(-90)">
		<text><tspan font-family="{}">principle amount left ($)</tspan></text>
	</g>
</g>
<g color="black" fill="none" stroke="currentColor" stroke-linecap="butt" stroke-linejoin="miter" stroke-width="0.50">
	<g fill="rgb(0,0,0)" font-family="{}" font-size="16.00" stroke="none" text-anchor="middle" transform="translate(311.7,413.4)">
		<text><tspan font-family="{}">time (years)</tspan></text>
	</g>
</g>
<g color="black" fill="none" stroke="currentColor" stroke-linecap="butt" stroke-linejoin="miter" stroke-width="0.50">
</g>
	<g id="gnuplot_plot_1a"><title>gnuplot_plot_1a</title>
<g color="white" fill="none" stroke="currentColor" stroke-linecap="butt" stroke-linejoin="miter" stroke-width="3.00">
</g>
<g color="black" fill="none" stroke="currentColor" stroke-linecap="butt" stroke-linejoin="miter" stroke-width="3.00">
	<path d="M89.7,16.9 L91.0,17.1 L92.2,17.3 L93.5,17.5 L94.7,17.7 L95.9,17.9 L97.2,18.1 L98.4,18.3   L99.7,18.5 L100.9,18.8 L102.1,19.0 L103.4,19.2 L104.6,19.4 L105.9,19.6 L107.1,19.8 L108.3,20.1   L109.6,20.3 L110.8,20.5 L112.1,20.7 L113.3,21.0 L114.5,21.2 L115.8,21.4 L117.0,21.7 L118.3,21.9   L119.5,22.1 L120.7,22.4 L122.0,22.6 L123.2,22.9 L124.5,23.1 L125.7,23.3 L126.9,23.6 L128.2,23.8   L129.4,24.1 L130.7,24.3 L131.9,24.6 L133.2,24.9 L134.4,25.1 L135.6,25.4 L136.9,25.6 L138.1,25.9   L139.4,26.2 L140.6,26.4 L141.8,26.7 L143.1,27.0 L144.3,27.2 L145.6,27.5 L146.8,27.8 L148.0,28.1   L149.3,28.4 L150.5,28.6 L151.8,28.9 L153.0,29.2 L154.2,29.5 L155.5,29.8 L156.7,30.1 L158.0,30.4   L159.2,30.7 L160.4,31.0 L161.7,31.3 L162.9,31.6 L164.2,31.9 L165.4,32.2 L166.6,32.5 L167.9,32.8   L169.1,33.2 L170.4,33.5 L171.6,33.8 L172.8,34.1 L174.1,34.5 L175.3,34.8 L176.6,35.1 L177.8,35.4   L179.0,35.8 L180.3,36.1 L181.5,36.5 L182.8,36.8 L184.0,37.1 L185.2,37.5 L186.5,37.8 L187.7,38.2   L189.0,38.6 L190.2,38.9 L191.4,39.3 L192.7,39.6 L193.9,40.0 L195.2,40.4 L196.4,40.7 L197.6,41.1   L198.9,41.5 L200.1,41.9 L201.4,42.3 L202.6,42.6 L203.8,43.0 L205.1,43.4 L206.3,43.8 L207.6,44.2   L208.8,44.6 L210.0,45.0 L211.3,45.4 L212.5,45.8 L213.8,46.2 L215.0,46.7 L216.2,47.1 L217.5,47.5   L218.7,47.9 L220.0,48.3 L221.2,48.8 L222.5,49.2 L223.7,49.6 L224.9,50.1 L226.2,50.5 L227.4,51.0   L228.7,51.4 L229.9,51.9 L231.1,52.3 L232.4,52.8 L233.6,53.2 L234.9,53.7 L236.1,54.2 L237.3,54.6   L238.6,55.1 L239.8,55.6 L241.1,56.1 L242.3,56.6 L243.5,57.1 L244.8,57.6 L246.0,58.1 L247.3,58.6   L248.5,59.1 L249.7,59.6 L251.0,60.1 L252.2,60.6 L253.5,61.1 L254.7,61.6 L255.9,62.2 L257.2,62.7   L258.4,63.2 L259.7,63.8 L260.9,64.3 L262.1,64.9 L263.4,65.4 L264.6,66.0 L265.9,66.5 L267.1,67.1   L268.3,67.6 L269.6,68.2 L270.8,68.8 L272.1,69.4 L273.3,69.9 L274.5,70.5 L275.8,71.1 L277.0,71.7   L278.3,72.3 L279.5,72.9 L280.7,73.5 L282.0,74.1 L283.2,74.8 L284.5,75.4 L285.7,76.0 L286.9,76.6   L288.2,77.3 L289.4,77.9 L290.7,78.6 L291.9,79.2 L293.1,79.9 L294.4,80.5 L295.6,81.2 L296.9,81.9   L298.1,82.5 L299.3,83.2 L300.6,83.9 L301.8,84.6 L303.1,85.3 L304.3,86.0 L305.5,86.7 L306.8,87.4   L308.0,88.1 L309.3,88.8 L310.5,89.6 L311.8,90.3 L313.0,91.0 L314.2,91.8 L315.5,92.5 L316.7,93.3   L318.0,94.0 L319.2,94.8 L320.4,95.5 L321.7,96.3 L322.9,97.1 L324.2,97.9 L325.4,98.7 L326.6,99.5   L327.9,100.3 L329.1,101.1 L330.4,101.9 L331.6,102.7 L332.8,103.5 L334.1,104.4 L335.3,105.2 L336.6,106.1   L337.8,106.9 L339.0,107.8 L340.3,108.6 L341.5,109.5 L342.8,110.4 L344.0,111.3 L345.2,112.1 L346.5,113.0   L347.7,113.9 L349.0,114.9 L350.2,115.8 L351.4,116.7 L352.7,117.6 L353.9,118.5 L355.2,119.5 L356.4,120.4   L357.6,121.4 L358.9,122.4 L360.1,123.3 L361.4,124.3 L362.6,125.3 L363.8,126.3 L365.1,127.3 L366.3,128.3   L367.6,129.3 L368.8,130.3 L370.0,131.3 L371.3,132.4 L372.5,133.4 L373.8,134.5 L375.0,135.5 L376.2,136.6   L377.5,137.7 L378.7,138.7 L380.0,139.8 L381.2,140.9 L382.4,142.0 L383.7,143.1 L384.9,144.3 L386.2,145.4   L387.4,146.5 L388.6,147.7 L389.9,148.8 L391.1,150.0 L392.4,151.2 L393.6,152.3 L394.8,153.5 L396.1,154.7   L397.3,155.9 L398.6,157.2 L399.8,158.4 L401.1,159.6 L402.3,160.8 L403.5,162.1 L404.8,163.4 L406.0,164.6   L407.3,165.9 L408.5,167.2 L409.7,168.5 L411.0,169.8 L412.2,171.1 L413.5,172.4 L414.7,173.8 L415.9,175.1   L417.2,176.5 L418.4,177.8 L419.7,179.2 L420.9,180.6 L422.1,182.0 L423.4,183.4 L424.6,184.8 L425.9,186.2   L427.1,187.7 L428.3,189.1 L429.6,190.6 L430.8,192.0 L432.1,193.5 L433.3,195.0 L434.5,196.5 L435.8,198.0   L437.0,199.5 L438.3,201.1 L439.5,202.6 L440.7,204.1 L442.0,205.7 L443.2,207.3 L444.5,208.9 L445.7,210.5   L446.9,212.1 L448.2,213.7 L449.4,215.4 L450.7,217.0 L451.9,218.7 L453.1,220.3 L454.4,222.0 L455.6,223.7   L456.9,225.4 L458.1,227.1 L459.3,228.9 L460.6,230.6 L461.8,232.4 L463.1,234.1 L464.3,235.9 L465.5,237.7   L466.8,239.5 L468.0,241.4 L469.3,243.2 L470.5,245.1 L471.7,246.9 L473.0,248.8 L474.2,250.7 L475.5,252.6   L476.7,254.5 L477.9,256.4 L479.2,258.4 L480.4,260.3 L481.7,262.3 L482.9,264.3 L484.1,266.3 L485.4,268.3   L486.6,270.4 L487.9,272.4 L489.1,274.5 L490.4,276.6 L491.6,278.7 L492.8,280.8 L494.1,282.9 L495.3,285.0   L496.6,287.2 L497.8,289.4 L499.0,291.5 L500.3,293.7 L501.5,296.0 L502.8,298.2 L504.0,300.5 L505.2,302.7   L506.5,305.0 L507.7,307.3 L509.0,309.6 L510.2,312.0 L511.4,314.3 L512.7,316.7 L513.9,319.1 L515.2,321.5   L516.4,323.9 L517.6,326.3 L518.9,328.8 L520.1,331.3 L521.4,333.8 L522.6,336.3 L523.8,338.8 L525.1,341.3   L526.3,343.9 L527.6,346.5 L528.8,349.1 L530.0,351.7 L531.3,354.4 L532.5,357.0 L533.8,359.7 L535.0,362.4    " stroke="rgb(  0,   0, 255)"/></g>
	</g>
<g color="white" fill="none" stroke="rgb(  0,   0, 255)" stroke-linecap="butt" stroke-linejoin="miter" stroke-width="2.00">
</g>
<g color="black" fill="none" stroke="currentColor" stroke-linecap="butt" stroke-linejoin="miter" stroke-width="2.00">
</g>
<g color="black" fill="none" stroke="black" stroke-linecap="butt" stroke-linejoin="miter" stroke-width="0.50">
</g>
<g color="black" fill="none" stroke="currentColor" stroke-linecap="butt" stroke-linejoin="miter" stroke-width="0.50">
</g>
</g>
</svg>