<svg height="420px" viewBox="0 0 560 420" width="560px" xmlns="http://www.w3.org/2000/svg" xmlns:xlink="http://www.w3.org/1999/xlink">

<title>Gnuplot</title>
<desc>Produced by GNUPLOT 5.0 patchlevel 3 </desc>

<g id="gnuplot_canvas">

<rect fill="none" height="420" width="560" x="0" y="0"/>
<defs>

	<circle id="gpDot" r="0.5" stroke-width="0.5"/>
	<path d="M-1,0 h2 M0,-1 v2" id="gpPt0" stroke="currentColor" stroke-width="0.222"/>
	<path d="M-1,-1 L1,1 M1,-1 L-1,1" id="gpPt1" stroke="currentColor" stroke-width="0.222"/>
	<path d="M-1,0 L1,0 M0,-1 L0,1 M-1,-1 L1,1 M-1,1 L1,-1" id="gpPt2" stroke="currentColor" stroke-width="0.222"/>
	<rect height="2" id="gpPt3" stroke="currentColor" stroke-width="0.222" width="2" x="-1" y="-1"/>
	<rect fill="currentColor" height="2" id="gpPt4" stroke="currentColor" stroke-width="0.222" width="2" x="-1" y="-1"/>
	<circle cx="0" cy="0" id="gpPt5" r="1" stroke="currentColor" stroke-width="0.222"/>
	<use fill="currentColor" id="gpPt6" stroke="none" xlink:href="#gpPt5"/>
	<path d="M0,-1.33 L-1.33,0.67 L1.33,0.67 z" id="gpPt7" stroke="currentColor" stroke-width="0.222"/>
	<use fill="currentColor" id="gpPt8" stroke="none" xlink:href="#gpPt7"/>
	<use id="gpPt9" stroke="currentColor" transform="rotate(180)" xlink:href="#gpPt7"/>
	<use fill="currentColor" id="gpPt10" stroke="none" xlink:href="#gpPt9"/>
	<use id="gpPt11" stroke="currentColor" transform="rotate(45)" xlink:href="#gpPt3"/>
	<use fill="currentColor" id="gpPt12" stroke="none" xlink:href="#gpPt11"/>
	<path d="M0,1.330 L1.265,0.411 L0.782,-1.067 L-0.782,-1.076 L-1.265,0.411 z" id="gpPt13" stroke="currentColor" stroke-width="0.222"/>
	<use fill="currentColor" id="gpPt14" stroke="none" xlink:href="#gpPt13"/>
	<filter filterUnits="objectBoundingBox" height="1" id="textbox" width="1" x="0" y="0">
	  <feFlood flood-color="white" flood-opacity="1" result="bgnd"/>
	  <feComposite in="SourceGraphic" in2="bgnd" operator="atop"/>
	</filter>
	<filter filterUnits="objectBoundingBox" height="1" id="greybox" width="1" x="0" y="0">
	  <feFlood flood-color="lightgrey" flood-opacity="1" result="grey"/>
	  <feComposite in="SourceGraphic" in2="grey" operator="atop"/>
	</filter>
</defs>
<g color="white" fill="none" stroke="currentColor" stroke-linecap="butt" stroke-linejoin="miter" stroke-width="1.00">
</g>
<g color="black" fill="none" stroke="currentColor" stroke-linecap="butt" stroke-linejoin="miter" stroke-width="1.00">
</g>
<g color="black" fill="none" stroke="rgb(255, 255, 255)" stroke-linecap="butt" stroke-linejoin="miter" stroke-width="0.50">
</g>
<g color="black" fill="none" stroke="currentColor" stroke-linecap="butt" stroke-linejoin="miter" stroke-width="0.50">
</g>
<g color="black" fill="none" stroke="currentColor" stroke-linecap="butt" stroke-linejoin="miter" stroke-width="0.50">
	<path d="M74.5,271.2 L280.0,172.0  " stroke="black"/></g>
<g color="black" fill="none" stroke="currentColor" stroke-linecap="butt" stroke-linejoin="miter" stroke-width="0.50">
	<path d="M485.5,271.2 L280.0,172.0  " stroke="black"/></g>
<g color="black" fill="none" stroke="currentColor" stroke-linecap="butt" stroke-linejoin="miter" stroke-width="0.50">
	<path d="M74.5,271.2 L74.5,130.8  " stroke="black"/></g>
<g color="black" fill="none" stroke="currentColor" stroke-linecap="butt" stroke-linejoin="miter" stroke-width="0.50">
	<path d="M280.0,172.0 L280.0,31.4  " stroke="black"/></g>
<g color="black" fill="none" stroke="currentColor" stroke-linecap="butt" stroke-linejoin="miter" stroke-width="0.50">
	<path d="M485.5,271.2 L485.5,130.8  " stroke="black"/></g>
<g color="black" fill="none" stroke="currentColor" stroke-linecap="butt" stroke-linejoin="miter" stroke-width="0.50">
	<path d="M74.5,130.8 L280.0,31.4  " stroke="black"/></g>
<g color="black" fill="none" stroke="currentColor" stroke-linecap="butt" stroke-linejoin="miter" stroke-width="0.50">
	<path d="M485.5,130.8 L280.0,31.4  " stroke="black"/></g>
<g color="gray" fill="none" stroke="currentColor" stroke-linecap="butt" stroke-linejoin="miter" stroke-width="0.50">
	<path class="gridline" d="M74.5,271.2 L280.0,172.0  " stroke="gray" stroke-dasharray="2,4"/></g>
<g color="black" fill="none" stroke="currentColor" stroke-linecap="butt" stroke-linejoin="miter" stroke-width="0.50">
	<path d="M74.5,271.2 L61.5,277.5  " stroke="black"/></g>
<g color="black" fill="none" stroke="currentColor" stroke-linecap="butt" stroke-linejoin="miter" stroke-width="0.50">
	<path d="M280.0,172.0 L293.0,165.7  " stroke="black"/>	<g fill="rgb(0,0,0)" font-family="{}" font-size="16.00" stroke="none" text-anchor="end" transform="translate(52.9,292.5)">
		<text><tspan font-family="{}">-2</tspan></text>
	</g>
</g>
<g color="black" fill="none" stroke="currentColor" stroke-linecap="butt" stroke-linejoin="miter" stroke-width="0.50">
</g>
<g color="gray" fill="none" stroke="currentColor" stroke-linecap="butt" stroke-linejoin="miter" stroke-width="0.50">
	<path class="gridline" d="M100.2,283.6 L305.6,184.4  " stroke="gray" stroke-dasharray="2,4"/></g>
<g color="black" fill="none" stroke="currentColor" stroke-linecap="butt" stroke-linejoin="miter" stroke-width="0.50">
	<path d="M100.2,283.6 L87.2,289.9  " stroke="black"/></g>
<g color="black" fill="none" stroke="currentColor" stroke-linecap="butt" stroke-linejoin="miter" stroke-width="0.50">
	<path d="M305.6,184.4 L318.7,178.1  " stroke="black"/>	<g fill="rgb(0,0,0)" font-family="{}" font-size="16.00" stroke="none" text-anchor="end" transform="translate(78.6,304.9)">
		<text><tspan font-family="{}">-1.5</tspan></text>
	</g>
</g>
<g color="black" fill="none" stroke="currentColor" stroke-linecap="butt" stroke-linejoin="miter" stroke-width="0.50">
</g>
<g color="gray" fill="none" stroke="currentColor" stroke-linecap="butt" stroke-linejoin="miter" stroke-width="0.50">
	<path class="gridline" d="M125.9,296.0 L331.3,196.8  " stroke="gray" stroke-dasharray="2,4"/></g>
<g color="black" fill="none" stroke="currentColor" stroke-linecap="butt" stroke-linejoin="miter" stroke-width="0.50">
	<path d="M125.9,296.0 L112.8,302.3  " stroke="black"/></g>
<g color="black" fill="none" stroke="currentColor" stroke-linecap="butt" stroke-linejoin="miter" stroke-width="0.50">
	<path d="M331.3,196.8 L344.4,190.5  " stroke="black"/>	<g fill="rgb(0,0,0)" font-family="{}" font-size="16.00" stroke="none" text-anchor="end" transform="translate(104.3,317.3)">
		<text><tspan font-family="{}">-1</tspan></text>
	</g>
</g>
<g color="black" fill="none" stroke="currentColor" stroke-linecap="butt" stroke-linejoin="miter" stroke-width="0.50">
</g>
<g color="gray" fill="none" stroke="currentColor" stroke-linecap="butt" stroke-linejoin="miter" stroke-width="0.50">
	<path class="gridline" d="M151.6,308.5 L357.0,209.1  " stroke="gray" stroke-dasharray="2,4"/></g>
<g color="black" fill="none" stroke="currentColor" stroke-linecap="butt" stroke-linejoin="miter" stroke-width="0.50">
	<path d="M151.6,308.5 L138.5,314.8  " stroke="black"/></g>
<g color="black" fill="none" stroke="currentColor" stroke-linecap="butt" stroke-linejoin="miter" stroke-width="0.50">
	<path d="M357.0,209.1 L370.1,202.8  " stroke="black"/>	<g fill="rgb(0,0,0)" font-family="{}" font-size="16.00" stroke="none" text-anchor="end" transform="translate(130.0,329.8)">
		<text><tspan font-family="{}">-0.5</tspan></text>
	</g>
</g>
<g color="black" fill="none" stroke="currentColor" stroke-linecap="butt" stroke-linejoin="miter" stroke-width="0.50">
</g>
<g color="gray" fill="none" stroke="currentColor" stroke-linecap="butt" stroke-linejoin="miter" stroke-width="0.50">
	<path class="gridline" d="M177.3,320.9 L382.7,221.5  " stroke="gray" stroke-dasharray="2,4"/></g>
<g color="black" fill="none" stroke="currentColor" stroke-linecap="butt" stroke-linejoin="miter" stroke-width="0.50">
	<path d="M177.3,320.9 L164.2,327.2  " stroke="black"/></g>
<g color="black" fill="none" stroke="currentColor" stroke-linecap="butt" stroke-linejoin="miter" stroke-width="0.50">
	<path d="M382.7,221.5 L395.8,215.2  " stroke="black"/>	<g fill="rgb(0,0,0)" font-family="{}" font-size="16.00" stroke="none" text-anchor="end" transform="translate(155.7,342.2)">
		<text><tspan font-family="{}">0</tspan></text>
	</g>
</g>
<g color="black" fill="none" stroke="currentColor" stroke-linecap="butt" stroke-linejoin="miter" stroke-width="0.50">
</g>
<g color="gray" fill="none" stroke="currentColor" stroke-linecap="butt" stroke-linejoin="miter" stroke-width="0.50">
	<path class="gridline" d="M203.0,333.3 L408.4,233.9  " stroke="gray" stroke-dasharray="2,4"/></g>
<g color="black" fill="none" stroke="currentColor" stroke-linecap="butt" stroke-linejoin="miter" stroke-width="0.50">
	<path d="M203.0,333.3 L189.9,339.6  " stroke="black"/></g>
<g color="black" fill="none" stroke="currentColor" stroke-linecap="butt" stroke-linejoin="miter" stroke-width="0.50">
	<path d="M408.4,233.9 L421.5,227.6  " stroke="black"/>	<g fill="rgb(0,0,0)" font-family="{}" font-size="16.00" stroke="none" text-anchor="end" transform="translate(181.3,354.6)">
		<text><tspan font-family="{}">0.5</tspan></text>
	</g>
</g>
<g color="black" fill="none" stroke="currentColor" stroke-linecap="butt" stroke-linejoin="miter" stroke-width="0.50">
</g>
<g color="gray" fill="none" stroke="currentColor" stroke-linecap="butt" stroke-linejoin="miter" stroke-width="0.50">
	<path class="gridline" d="M228.7,345.7 L434.1,246.4  " stroke="gray" stroke-dasharray="2,4"/></g>
<g color="black" fill="none" stroke="currentColor" stroke-linecap="butt" stroke-linejoin="miter" stroke-width="0.50">
	<path d="M228.7,345.7 L215.6,352.0  " stroke="black"/></g>
<g color="black" fill="none" stroke="currentColor" stroke-linecap="butt" stroke-linejoin="miter" stroke-width="0.50">
	<path d="M434.1,246.4 L447.2,240.1  " stroke="black"/>	<g fill="rgb(0,0,0)" font-family="{}" font-size="16.00" stroke="none" text-anchor="end" transform="translate(207.0,367.0)">
		<text><tspan font-family="{}">1</tspan></text>
	</g>
</g>
<g color="black" fill="none" stroke="currentColor" stroke-linecap="butt" stroke-linejoin="miter" stroke-width="0.50">
</g>
<g color="gray" fill="none" stroke="currentColor" stroke-linecap="butt" stroke-linejoin="miter" stroke-width="0.50">
	<path class="gridline" d="M254.4,358.1 L459.8,258.8  " stroke="gray" stroke-dasharray="2,4"/></g>
<g color="black" fill="none" stroke="currentColor" stroke-linecap="butt" stroke-linejoin="miter" stroke-width="0.50">
	<path d="M254.4,358.1 L241.3,364.4  " stroke="black"/></g>
<g color="black" fill="none" stroke="currentColor" stroke-linecap="butt" stroke-linejoin="miter" stroke-width="0.50">
	<path d="M459.8,258.8 L472.8,252.5  " stroke="black"/>	<g fill="rgb(0,0,0)" font-family="{}" font-size="16.00" stroke="none" text-anchor="end" transform="translate(232.7,379.4)">
		<text><tspan font-family="{}">1.5</tspan></text>
	</g>
</g>
<g color="black" fill="none" stroke="currentColor" stroke-linecap="butt" stroke-linejoin="miter" stroke-width="0.50">
</g>
<g color="gray" fill="none" stroke="currentColor" stroke-linecap="butt" stroke-linejoin="miter" stroke-width="0.50">
	<path class="gridline" d="M280.0,370.6 L485.5,271.2  " stroke="gray" stroke-dasharray="2,4"/></g>
<g color="black" fill="none" stroke="currentColor" stroke-linecap="butt" stroke-linejoin="miter" stroke-width="0.50">
	<path d="M280.0,370.6 L267.0,376.9  " stroke="black"/></g>
<g color="black" fill="none" stroke="currentColor" stroke-linecap="butt" stroke-linejoin="miter" stroke-width="0.50">
	<path d="M485.5,271.2 L498.5,264.9  " stroke="black"/>	<g fill="rgb(0,0,0)" font-family="{}" font-size="16.00" stroke="none" text-anchor="end" transform="translate(258.4,391.9)">
		<text><tspan font-family="{}">2</tspan></text>
	</g>
</g>
<g color="black" fill="none" stroke="currentColor" stroke-linecap="butt" stroke-linejoin="miter" stroke-width="0.50">
</g>
<g color="gray" fill="none" stroke="currentColor" stroke-linecap="butt" stroke-linejoin="miter" stroke-width="0.50">
	<path class="gridline" d="M280.0,370.6 L74.5,271.2  " stroke="gray" stroke-dasharray="2,4"/></g>
<g color="black" fill="none" stroke="currentColor" stroke-linecap="butt" stroke-linejoin="miter" stroke-width="0.50">
	<path d="M280.0,370.6 L288.9,374.9  " stroke="black"/></g>
<g color="black" fill="none" stroke="currentColor" stroke-linecap="butt" stroke-linejoin="miter" stroke-width="0.50">
	<path d="M74.5,271.2 L65.6,266.9  " stroke="black"/>	<g fill="rgb(0,0,0)" font-family="{}" font-size="16.00" stroke="none" text-anchor="middle" transform="translate(294.7,387.0)">
		<text><tspan font-family="{}">-2</tspan></text>
	</g>
</g>
<g color="black" fill="none" stroke="currentColor" stroke-linecap="butt" stroke-linejoin="miter" stroke-width="0.50">
</g>
<g color="gray" fill="none" stroke="currentColor" stroke-linecap="butt" stroke-linejoin="miter" stroke-width="0.50">
	<path class="gridline" d="M305.6,358.1 L100.2,258.8  " stroke="gray" stroke-dasharray="2,4"/></g>
<g color="black" fill="none" stroke="currentColor" stroke-linecap="butt" stroke-linejoin="miter" stroke-width="0.50">
	<path d="M305.6,358.1 L314.6,362.4  " stroke="black"/></g>
<g color="black" fill="none" stroke="currentColor" stroke-linecap="butt" stroke-linejoin="miter" stroke-width="0.50">
	<path d="M100.2,258.8 L91.3,254.5  " stroke="black"/>	<g fill="rgb(0,0,0)" font-family="{}" font-size="16.00" stroke="none" text-anchor="middle" transform="translate(320.4,374.6)">
		<text><tspan font-family="{}">-1.5</tspan></text>
	</g>
</g>
<g color="black" fill="none" stroke="currentColor" stroke-linecap="butt" stroke-linejoin="miter" stroke-width="0.50">
</g>
<g color="gray" fill="none" stroke="currentColor" stroke-linecap="butt" stroke-linejoin="miter" stroke-width="0.50">
	<path class="gridline" d="M331.3,345.7 L125.9,246.4  " stroke="gray" stroke-dasharray="2,4"/></g>
<g color="black" fill="none" stroke="currentColor" stroke-linecap="butt" stroke-linejoin="miter" stroke-width="0.50">
	<path d="M331.3,345.7 L340.2,350.0  " stroke="black"/></g>
<g color="black" fill="none" stroke="currentColor" stroke-linecap="butt" stroke-linejoin="miter" stroke-width="0.50">
	<path d="M125.9,246.4 L117.0,242.1  " stroke="black"/>	<g fill="rgb(0,0,0)" font-family="{}" font-size="16.00" stroke="none" text-anchor="middle" transform="translate(346.1,362.2)">
		<text><tspan font-family="{}">-1</tspan></text>
	</g>
</g>
<g color="black" fill="none" stroke="currentColor" stroke-linecap="butt" stroke-linejoin="miter" stroke-width="0.50">
</g>
<g color="gray" fill="none" stroke="currentColor" stroke-linecap="butt" stroke-linejoin="miter" stroke-width="0.50">
	<path class="gridline" d="M357.0,333.3 L151.6,233.9  " stroke="gray" stroke-dasharray="2,4"/></g>
<g color="black" fill="none" stroke="currentColor" stroke-linecap="butt" stroke-linejoin="miter" stroke-width="0.50">
	<path d="M357.0,333.3 L365.9,337.6  " stroke="black"/></g>
<g color="black" fill="none" stroke="currentColor" stroke-linecap="butt" stroke-linejoin="miter" stroke-width="0.50">
	<path d="M151.6,233.9 L142.7,229.6  " stroke="black"/>	<g fill="rgb(0,0,0)" font-family="{}" font-size="16.00" stroke="none" text-anchor="middle" transform="translate(371.8,349.8)">
		<text><tspan font-family="{}">-0.5</tspan></text>
	</g>
</g>
<g color="black" fill="none" stroke="currentColor" stroke-linecap="butt" stroke-linejoin="miter" stroke-width="0.50">
</g>
<g color="gray" fill="none" stroke="currentColor" stroke-linecap="butt" stroke-linejoin="miter" stroke-width="0.50">
	<path class="gridline" d="M382.7,320.9 L177.3,221.5  " stroke="gray" stroke-dasharray="2,4"/></g>
<g color="black" fill="none" stroke="currentColor" stroke-linecap="butt" stroke-linejoin="miter" stroke-width="0.50">
	<path d="M382.7,320.9 L391.6,325.2  " stroke="black"/></g>
<g color="black" fill="none" stroke="currentColor" stroke-linecap="butt" stroke-linejoin="miter" stroke-width="0.50">
	<path d="M177.3,221.5 L168.4,217.2  " stroke="black"/>	<g fill="rgb(0,0,0)" font-family="{}" font-size="16.00" stroke="none" text-anchor="middle" transform="translate(397.5,337.3)">
		<text><tspan font-family="{}">0</tspan></text>
	</g>
</g>
<g color="black" fill="none" stroke="currentColor" stroke-linecap="butt" stroke-linejoin="miter" stroke-width="0.50">
</g>
<g color="gray" fill="none" stroke="currentColor" stroke-linecap="butt" stroke-linejoin="miter" stroke-width="0.50">
	<path class="gridline" d="M408.4,308.5 L203.0,209.1  " stroke="gray" stroke-dasharray="2,4"/></g>
<g color="black" fill="none" stroke="currentColor" stroke-linecap="butt" stroke-linejoin="miter" stroke-width="0.50">
	<path d="M408.4,308.5 L417.3,312.8  " stroke="black"/></g>
<g color="black" fill="none" stroke="currentColor" stroke-linecap="butt" stroke-linejoin="miter" stroke-width="0.50">
	<path d="M203.0,209.1 L194.1,204.8  " stroke="black"/>	<g fill="rgb(0,0,0)" font-family="{}" font-size="16.00" stroke="none" text-anchor="middle" transform="translate(423.2,324.9)">
		<text><tspan font-family="{}">0.5</tspan></text>
	</g>
</g>
<g color="black" fill="none" stroke="currentColor" stroke-linecap="butt" stroke-linejoin="miter" stroke-width="0.50">
</g>
<g color="gray" fill="none" stroke="currentColor" stroke-linecap="butt" stroke-linejoin="miter" stroke-width="0.50">
	<path class="gridline" d="M434.1,296.0 L228.7,196.8  " stroke="gray" stroke-dasharray="2,4"/></g>
<g color="black" fill="none" stroke="currentColor" stroke-linecap="butt" stroke-linejoin="miter" stroke-width="0.50">
	<path d="M434.1,296.0 L443.0,300.3  " stroke="black"/></g>
<g color="black" fill="none" stroke="currentColor" stroke-linecap="butt" stroke-linejoin="miter" stroke-width="0.50">
	<path d="M228.7,196.8 L219.8,192.5  " stroke="black"/>	<g fill="rgb(0,0,0)" font-family="{}" font-size="16.00" stroke="none" text-anchor="middle" transform="translate(448.9,312.5)">
		<text><tspan font-family="{}">1</tspan></text>
	</g>
</g>
<g color="black" fill="none" stroke="currentColor" stroke-linecap="butt" stroke-linejoin="miter" stroke-width="0.50">
</g>
<g color="gray" fill="none" stroke="currentColor" stroke-linecap="butt" stroke-linejoin="miter" stroke-width="0.50">
	<path class="gridline" d="M459.8,283.6 L254.4,184.4  " stroke="gray" stroke-dasharray="2,4"/></g>
<g color="black" fill="none" stroke="currentColor" stroke-linecap="butt" stroke-linejoin="miter" stroke-width="0.50">
	<path d="M459.8,283.6 L468.7,287.9  " stroke="black"/></g>
<g color="black" fill="none" stroke="currentColor" stroke-linecap="butt" stroke-linejoin="miter" stroke-width="0.50">
	<path d="M254.4,184.4 L245.4,180.1  " stroke="black"/>	<g fill="rgb(0,0,0)" font-family="{}" font-size="16.00" stroke="none" text-anchor="middle" transform="translate(474.6,300.1)">
		<text><tspan font-family="{}">1.5</tspan></text>
	</g>
</g>
<g color="black" fill="none" stroke="currentColor" stroke-linecap="butt" stroke-linejoin="miter" stroke-width="0.50">
</g>
<g color="gray" fill="none" stroke="currentColor" stroke-linecap="butt" stroke-linejoin="miter" stroke-width="0.50">
	<path class="gridline" d="M485.5,271.2 L280.0,172.0  " stroke="gray" stroke-dasharray="2,4"/></g>
<g color="black" fill="none" stroke="currentColor" stroke-linecap="butt" stroke-linejoin="miter" stroke-width="0.50">
	<path d="M485.5,271.2 L494.4,275.5  " stroke="black"/></g>
<g color="black" fill="none" stroke="currentColor" stroke-linecap="butt" stroke-linejoin="miter" stroke-width="0.50">
	<path d="M280.0,172.0 L271.1,167.6  " stroke="black"/>	<g fill="rgb(0,0,0)" font-family="{}" font-size="16.00" stroke="none" text-anchor="middle" transform="translate(500.3,287.7)">
		<text><tspan font-family="{}">2</tspan></text>
	</g>
</g>
<g color="black" fill="none" stroke="currentColor" stroke-linecap="butt" stroke-linejoin="miter" stroke-width="0.50">
</g>
<g color="gray" fill="none" stroke="currentColor" stroke-linecap="butt" stroke-linejoin="miter" stroke-width="0.50">
	<path class="gridline" d="M74.5,271.2 L280.0,172.0  " stroke="gray" stroke-dasharray="2,4"/></g>
<g color="gray" fill="none" stroke="currentColor" stroke-linecap="butt" stroke-linejoin="miter" stroke-width="0.50">
	<path class="gridline" d="M280.0,172.0 L485.5,271.2  " stroke="gray" stroke-dasharray="2,4"/></g>
<g color="black" fill="none" stroke="currentColor" stroke-linecap="butt" stroke-linejoin="miter" stroke-width="0.50">
	<path d="M74.5,271.2 L62.0,271.2  " stroke="black"/>	<g fill="rgb(0,0,0)" font-family="{}" font-size="16.00" stroke="none" text-anchor="end" transform="translate(43.9,277.2)">
		<text><tspan font-family="{}">-30</tspan></text>
	</g>
</g>
<g color="black" fill="none" stroke="currentColor" stroke-linecap="butt" stroke-linejoin="miter" stroke-width="0.50">
</g>
<g color="black" fill="none" stroke="currentColor" stroke-linecap="butt" stroke-linejoin="miter" stroke-width="0.50">
	<path d="M485.5,271.2 L498.0,271.2  " stroke="black"/></g>
<g color="gray" fill="none" stroke="currentColor" stroke-linecap="butt" stroke-linejoin="miter" stroke-width="0.50">
	<path class="gridline" d="M74.5,247.8 L280.0,148.5  " stroke="gray" stroke-dasharray="2,4"/></g>
<g color="gray" fill="none" stroke="currentColor" stroke-linecap="butt" stroke-linejoin="miter" stroke-width="0.50">
	<path class="gridline" d="M280.0,148.5 L485.5,247.8  " stroke="gray" stroke-dasharray="2,4"/></g>
<g color="black" fill="none" stroke="currentColor" stroke-linecap="butt" stroke-linejoin="miter" stroke-width="0.50">
	<path d="M74.5,247.8 L62.0,247.8  " stroke="black"/>	<g fill="rgb(0,0,0)" font-family="{}" font-size="16.00" stroke="none" text-anchor="end" transform="translate(43.9,253.8)">
		<text><tspan font-family="{}">-20</tspan></text>
	</g>
</g>
<g color="black" fill="none" stroke="currentColor" stroke-linecap="butt" stroke-linejoin="miter" stroke-width="0.50">
</g>
<g color="black" fill="none" stroke="currentColor" stroke-linecap="butt" stroke-linejoin="miter" stroke-width="0.50">
	<path d="M485.5,247.8 L498.0,247.8  " stroke="black"/></g>
<g color="gray" fill="none" stroke="currentColor" stroke-linecap="butt" stroke-linejoin="miter" stroke-width="0.50">
	<path class="gridline" d="M74.5,224.4 L280.0,125.1  " stroke="gray" stroke-dasharray="2,4"/></g>
<g color="gray" fill="none" stroke="currentColor" stroke-linecap="butt" stroke-linejoin="miter" stroke-width="0.50">
	<path class="gridline" d="M280.0,125.1 L485.5,224.4  " stroke="gray" stroke-dasharray="2,4"/></g>
<g color="black" fill="none" stroke="currentColor" stroke-linecap="butt" stroke-linejoin="miter" stroke-width="0.50">
	<path d="M74.5,224.4 L62.0,224.4  " stroke="black"/>	<g fill="rgb(0,0,0)" font-family="{}" font-size="16.00" stroke="none" text-anchor="end" transform="translate(43.9,230.4)">
		<text><tspan font-family="{}">-10</tspan></text>
	</g>
</g>
<g color="black" fill="none" stroke="currentColor" stroke-linecap="butt" stroke-linejoin="miter" stroke-width="0.50">
</g>
<g color="black" fill="none" stroke="currentColor" stroke-linecap="butt" stroke-linejoin="miter" stroke-width="0.50">
	<path d="M485.5,224.4 L498.0,224.4  " stroke="black"/></g>
<g color="gray" fill="none" stroke="currentColor" stroke-linecap="butt" stroke-linejoin="miter" stroke-width="0.50">
	<path class="gridline" d="M74.5,201.0 L280.0,101.7  " stroke="gray" stroke-dasharray="2,4"/></g>
<g color="gray" fill="none" stroke="currentColor" stroke-linecap="butt" stroke-linejoin="miter" stroke-width="0.50">
	<path class="gridline" d="M280.0,101.7 L485.5,201.0  " stroke="gray" stroke-dasharray="2,4"/></g>
<g color="black" fill="none" stroke="currentColor" stroke-linecap="butt" stroke-linejoin="miter" stroke-width="0.50">
	<path d="M74.5,201.0 L62.0,201.0  " stroke="black"/>	<g fill="rgb(0,0,0)" font-family="{}" font-size="16.00" stroke="none" text-anchor="end" transform="translate(43.9,207.0)">
		<text><tspan font-family="{}">0</tspan></text>
	</g>
</g>
<g color="black" fill="none" stroke="currentColor" stroke-linecap="butt" stroke-linejoin="miter" stroke-width="0.50">
</g>
<g color="black" fill="none" stroke="currentColor" stroke-linecap="butt" stroke-linejoin="miter" stroke-width="0.50">
	<path d="M485.5,201.0 L498.0,201.0  " stroke="black"/></g>
<g color="gray" fill="none" stroke="currentColor" stroke-linecap="butt" stroke-linejoin="miter" stroke-width="0.50">
	<path class="gridline" d="M74.5,177.6 L280.0,78.3  " stroke="gray" stroke-dasharray="2,4"/></g>
<g color="gray" fill="none" stroke="currentColor" stroke-linecap="butt" stroke-linejoin="miter" stroke-width="0.50">
	<path class="gridline" d="M280.0,78.3 L485.5,177.6  " stroke="gray" stroke-dasharray="2,4"/></g>
<g color="black" fill="none" stroke="currentColor" stroke-linecap="butt" stroke-linejoin="miter" stroke-width="0.50">
	<path d="M74.5,177.6 L62.0,177.6  " stroke="black"/>	<g fill="rgb(0,0,0)" font-family="{}" font-size="16.00" stroke="none" text-anchor="end" transform="translate(43.9,183.6)">
		<text><tspan font-family="{}">10</tspan></text>
	</g>
</g>
<g color="black" fill="none" stroke="currentColor" stroke-linecap="butt" stroke-linejoin="miter" stroke-width="0.50">
</g>
<g color="black" fill="none" stroke="currentColor" stroke-linecap="butt" stroke-linejoin="miter" stroke-width="0.50">
	<path d="M485.5,177.6 L498.0,177.6  " stroke="black"/></g>
<g color="gray" fill="none" stroke="currentColor" stroke-linecap="butt" stroke-linejoin="miter" stroke-width="0.50">
	<path class="gridline" d="M74.5,154.2 L280.0,54.9  " stroke="gray" stroke-dasharray="2,4"/></g>
<g color="gray" fill="none" stroke="currentColor" stroke-linecap="butt" stroke-linejoin="miter" stroke-width="0.50">
	<path class="gridline" d="M280.0,54.9 L485.5,154.2  " stroke="gray" stroke-dasharray="2,4"/></g>
<g color="black" fill="none" stroke="currentColor" stroke-linecap="butt" stroke-linejoin="miter" stroke-width="0.50">
	<path d="M74.5,154.2 L62.0,154.2  " stroke="black"/>	<g fill="rgb(0,0,0)" font-family="{}" font-size="16.00" stroke="none" text-anchor="end" transform="translate(43.9,160.2)">
		<text><tspan font-family="{}">20</tspan></text>
	</g>
</g>
<g color="black" fill="none" stroke="currentColor" stroke-linecap="butt" stroke-linejoin="miter" stroke-width="0.50">
</g>
<g color="black" fill="none" stroke="currentColor" stroke-linecap="butt" stroke-linejoin="miter" stroke-width="0.50">
	<path d="M485.5,154.2 L498.0,154.2  " stroke="black"/></g>
<g color="gray" fill="none" stroke="currentColor" stroke-linecap="butt" stroke-linejoin="miter" stroke-width="0.50">
	<path class="gridline" d="M74.5,130.8 L280.0,31.4  " stroke="gray" stroke-dasharray="2,4"/></g>
<g color="gray" fill="none" stroke="currentColor" stroke-linecap="butt" stroke-linejoin="miter" stroke-width="0.50">
	<path class="gridline" d="M280.0,31.4 L485.5,130.8  " stroke="gray" stroke-dasharray="2,4"/></g>
<g color="black" fill="none" stroke="currentColor" stroke-linecap="butt" stroke-linejoin="miter" stroke-width="0.50">
	<path d="M74.5,130.8 L62.0,130.8  " stroke="black"/>	<g fill="rgb(0,0,0)" font-family="{}" font-size="16.00" stroke="none" text-anchor="end" transform="translate(43.9,136.8)">
		<text><tspan font-family="{}">30</tspan></text>
	</g>
</g>
<g color="black" fill="none" stroke="currentColor" stroke-linecap="butt" stroke-linejoin="miter" stroke-width="0.50">
</g>
<g color="black" fill="none" stroke="currentColor" stroke-linecap="butt" stroke-linejoin="miter" stroke-width="0.50">
	<path d="M485.5,130.8 L498.0,130.8  " stroke="black"/></g>
	<g id="gnuplot_plot_1a"><title>gnuplot_plot_1a</title>
<g color="white" fill="none" stroke="black" stroke-linecap="butt" stroke-linejoin="miter" stroke-width="1.00">
</g>
<g color="black" fill="none" stroke="currentColor" stroke-linecap="butt" stroke-linejoin="miter" stroke-width="1.00">
	<path d="M280.0,61.9 L228.7,82.0  " stroke="rgb(255,  18,   0)"/>	<path d="M228.7,82.0 L177.3,102.2  " stroke="rgb(225,   0,   0)"/>	<path d="M177.3,102.2 L125.9,122.4  " stroke="rgb(176,   0,   0)"/>	<path d="M125.9,122.4 L74.5,142.5  " stroke="rgb(144,   0,   0)"/>	<path d="M331.3,110.1 L280.0,130.3  " stroke="rgb(255, 229,   0)"/>	<path d="M280.0,130.3 L228.7,150.5  " stroke="rgb(255, 180,   0)"/>	<path d="M228.7,150.5 L177.3,170.6  " stroke="rgb(255, 148,   0)"/>	<path d="M177.3,170.6 L125.9,190.8  " stroke="rgb(255,  99,   0)"/>	<path d="M382.7,158.4 L331.3,178.6  " stroke="rgb( 71, 255, 184)"/>	<path d="M331.3,178.6 L280.0,198.7  " stroke="rgb(103, 255, 152)"/>	<path d="M280.0,198.7 L228.7,218.8  " stroke="rgb(152, 255, 103)"/>	<path d="M228.7,218.8 L177.3,238.9  " stroke="rgb(200, 255,  55)"/>	<path d="M434.1,206.6 L382.7,226.7  " stroke="rgb(  0,  99, 255)"/>	<path d="M382.7,226.7 L331.3,246.9  " stroke="rgb(  0, 148, 255)"/>	<path d="M331.3,246.9 L280.0,267.0  " stroke="rgb(  0, 196, 255)"/>	<path d="M280.0,267.0 L228.7,287.2  " stroke="rgb(  0, 229, 255)"/>	<path d="M485.5,254.8 L434.1,275.0  " stroke="rgb(  0,   0, 144)"/>	<path d="M434.1,275.0 L382.7,295.1  " stroke="rgb(  0,   0, 192)"/>	<path d="M382.7,295.1 L331.3,315.3  " stroke="rgb(  0,   0, 225)"/>	<path d="M331.3,315.3 L280.0,335.4  " stroke="rgb(  0,  18, 255)"/>	<path d="M280.0,61.9 L331.3,110.1  " stroke="rgb(255, 148,   0)"/>	<path d="M331.3,110.1 L382.7,158.4  " stroke="rgb(152, 255, 103)"/>	<path d="M382.7,158.4 L434.1,206.6  " stroke="rgb(  0, 196, 255)"/>	<path d="M434.1,206.6 L485.5,254.8  " stroke="rgb(  0,   0, 225)"/>	<path d="M228.7,82.0 L280.0,130.3  " stroke="rgb(255,  99,   0)"/>	<path d="M280.0,130.3 L331.3,178.6  " stroke="rgb(200, 255,  55)"/>	<path d="M331.3,178.6 L382.7,226.7  " stroke="rgb(  0, 229, 255)"/>	<path d="M382.7,226.7 L434.1,275.0  " stroke="rgb(  0,  18, 255)"/>	<path d="M177.3,102.2 L228.7,150.5  " stroke="rgb(255,  51,   0)"/>	<path d="M228.7,150.5 L280.0,198.7  " stroke="rgb(233, 255,  22)"/>	<path d="M280.0,198.7 L331.3,246.9  " stroke="rgb( 22, 255, 233)"/>	<path d="M331.3,246.9 L382.7,295.1  " stroke="rgb(  0,  67, 255)"/>	<path d="M125.9,122.4 L177.3,170.6  " stroke="rgb(255,  18,   0)"/>	<path d="M177.3,170.6 L228.7,218.8  " stroke="rgb(255, 229,   0)"/>	<path d="M228.7,218.8 L280.0,267.0  " stroke="rgb( 71, 255, 184)"/>	<path d="M280.0,267.0 L331.3,315.3  " stroke="rgb(  0,  99, 255)"/>	<path d="M74.5,142.5 L125.9,190.8  " stroke="rgb(225,   0,   0)"/>	<path d="M125.9,190.8 L177.3,238.9  " stroke="rgb(255, 180,   0)"/>	<path d="M177.3,238.9 L228.7,287.2  " stroke="rgb(103, 255, 152)"/>	<path d="M228.7,287.2 L280.0,335.4  " stroke="rgb(  0, 148, 255)"/></g>
	</g>
	<g id="gnuplot_plot_2a"><title>gnuplot_plot_2a</title>
<g color="black" fill="none" stroke="currentColor" stroke-linecap="butt" stroke-linejoin="miter" stroke-width="1.00">
	<path d="M280.0,94.7 L228.7,117.2  " stroke="rgb(184, 255,  71)"/>	<path d="M228.7,117.2 L177.3,139.7  " stroke="rgb(200, 255,  55)"/>	<path d="M177.3,139.7 L125.9,162.2  " stroke="rgb(233, 255,  22)"/>	<path d="M125.9,162.2 L74.5,184.7  " stroke="rgb(249, 255,   6)"/>	<path d="M331.3,124.2 L280.0,146.7  " stroke="rgb(136, 255, 119)"/>	<path d="M280.0,146.7 L228.7,169.2  " stroke="rgb(168, 255,  87)"/>	<path d="M228.7,169.2 L177.3,191.7  " stroke="rgb(184, 255,  71)"/>	<path d="M177.3,191.7 L125.9,214.1  " stroke="rgb(200, 255,  55)"/>	<path d="M382.7,153.7 L331.3,176.2  " stroke="rgb(103, 255, 152)"/>	<path d="M331.3,176.2 L280.0,198.7  " stroke="rgb(119, 255, 136)"/>	<path d="M280.0,198.7 L228.7,221.1  " stroke="rgb(136, 255, 119)"/>	<path d="M228.7,221.1 L177.3,243.6  " stroke="rgb(168, 255,  87)"/>	<path d="M434.1,183.2 L382.7,205.6  " stroke="rgb( 55, 255, 200)"/>	<path d="M382.7,205.6 L331.3,228.1  " stroke="rgb( 71, 255, 184)"/>	<path d="M331.3,228.1 L280.0,250.6  " stroke="rgb(103, 255, 152)"/>	<path d="M280.0,250.6 L228.7,273.1  " stroke="rgb(119, 255, 136)"/>	<path d="M485.5,212.7 L434.1,235.2  " stroke="rgb(  6, 255, 249)"/>	<path d="M434.1,235.2 L382.7,257.7  " stroke="rgb( 38, 255, 217)"/>	<path d="M382.7,257.7 L331.3,280.1  " stroke="rgb( 55, 255, 200)"/>	<path d="M331.3,280.1 L280.0,302.6  " stroke="rgb( 71, 255, 184)"/>	<path d="M280.0,94.7 L331.3,124.2  " stroke="rgb(152, 255, 103)"/>	<path d="M331.3,124.2 L382.7,153.7  " stroke="rgb(103, 255, 152)"/>	<path d="M382.7,153.7 L434.1,183.2  " stroke="rgb( 71, 255, 184)"/>	<path d="M434.1,183.2 L485.5,212.7  " stroke="rgb( 22, 255, 233)"/>	<path d="M228.7,117.2 L280.0,146.7  " stroke="rgb(168, 255,  87)"/>	<path d="M280.0,146.7 L331.3,176.2  " stroke="rgb(136, 255, 119)"/>	<path d="M331.3,176.2 L382.7,205.6  " stroke="rgb( 87, 255, 168)"/>	<path d="M382.7,205.6 L434.1,235.2  " stroke="rgb( 38, 255, 217)"/>	<path d="M177.3,139.7 L228.7,169.2  " stroke="rgb(200, 255,  55)"/>	<path d="M228.7,169.2 L280.0,198.7  " stroke="rgb(152, 255, 103)"/>	<path d="M280.0,198.7 L331.3,228.1  " stroke="rgb(103, 255, 152)"/>	<path d="M331.3,228.1 L382.7,257.7  " stroke="rgb( 71, 255, 184)"/>	<path d="M125.9,162.2 L177.3,191.7  " stroke="rgb(217, 255,  38)"/>	<path d="M177.3,191.7 L228.7,221.1  " stroke="rgb(168, 255,  87)"/>	<path d="M228.7,221.1 L280.0,250.6  " stroke="rgb(136, 255, 119)"/>	<path d="M280.0,250.6 L331.3,280.1  " stroke="rgb( 87, 255, 168)"/>	<path d="M74.5,184.7 L125.9,214.1  " stroke="rgb(233, 255,  22)"/>	<path d="M125.9,214.1 L177.3,243.6  " stroke="rgb(200, 255,  55)"/>	<path d="M177.3,243.6 L228.7,273.1  " stroke="rgb(152, 255, 103)"/>	<path d="M228.7,273.1 L280.0,302.6  " stroke="rgb(103, 255, 152)"/></g>
	</g>
	<g id="gnuplot_plot_3a"><title>gnuplot_plot_3a</title>
<g color="black" fill="none" stroke="currentColor" stroke-linecap="butt" stroke-linejoin="miter" stroke-width="1.00">
	<path d="M280.0,101.9 L228.7,126.3 L177.3,150.7  " stroke="rgb(103, 255, 152)"/>	<path d="M177.3,150.7 L125.9,175.0 L74.5,199.4  " stroke="rgb(119, 255, 136)"/>	<path d="M331.3,127.0 L280.0,151.4 L228.7,175.7  " stroke="rgb(103, 255, 152)"/>	<path d="M228.7,175.7 L177.3,200.1 L125.9,224.4  " stroke="rgb(119, 255, 136)"/>	<path d="M382.7,152.1 L331.3,176.4 L280.0,200.8 L228.7,225.1  " stroke="rgb(103, 255, 152)"/>	<path d="M228.7,225.1 L177.3,249.5  " stroke="rgb(119, 255, 136)"/>	<path d="M434.1,177.1 L382.7,201.4 L331.3,225.8 L280.0,250.2  " stroke="rgb(103, 255, 152)"/>	<path d="M280.0,250.2 L228.7,274.5  " stroke="rgb(119, 255, 136)"/>	<path d="M485.5,202.1 L434.1,226.5 L382.7,250.9 L331.3,275.2 L280.0,299.6 M280.0,101.9 L331.3,127.0 L382.7,152.1   L434.1,177.1 L485.5,202.1 M228.7,126.3 L280.0,151.4 L331.3,176.4 L382.7,201.4 L434.1,226.5  " stroke="rgb(103, 255, 152)"/>	<path d="M177.3,150.7 L228.7,175.7  " stroke="rgb(119, 255, 136)"/>	<path d="M228.7,175.7 L280.0,200.8 L331.3,225.8 L382.7,250.9  " stroke="rgb(103, 255, 152)"/>	<path d="M125.9,175.0 L177.3,200.1 L228.7,225.1 L280.0,250.2  " stroke="rgb(119, 255, 136)"/>	<path d="M280.0,250.2 L331.3,275.2  " stroke="rgb(103, 255, 152)"/>	<path d="M74.5,199.4 L125.9,224.4 L177.3,249.5 L228.7,274.5 L280.0,299.6  " stroke="rgb(119, 255, 136)"/></g>
	</g>
	<g id="gnuplot_plot_4a"><title>gnuplot_plot_4a</title>
<g color="white" fill="none" stroke="rgb(119, 255, 136)" stroke-linecap="butt" stroke-linejoin="miter" stroke-width="3.00">
</g>
<g color="black" fill="none" stroke="currentColor" stroke-linecap="butt" stroke-linejoin="miter" stroke-width="3.00">
	<use color="rgb(  0,   0, 255)" transform="translate(351.9,156.8) scale(9.00)" xlink:href="#gpPt5"/>
</g>
	</g>
<g color="white" fill="none" stroke="rgb(  0,   0, 255)" stroke-linecap="butt" stroke-linejoin="miter" stroke-width="0.50">
</g>
<g color="black" fill="none" stroke="currentColor" stroke-linecap="butt" stroke-linejoin="miter" stroke-width="0.50">
	<path d="M485.5,271.2 L280.0,370.6  " stroke="black"/></g>
<g color="black" fill="none" stroke="currentColor" stroke-linecap="butt" stroke-linejoin="miter" stroke-width="0.50">
	<path d="M74.5,271.2 L280.0,370.6  " stroke="black"/></g>
<g color="black" fill="none" stroke="currentColor" stroke-linecap="butt" stroke-linejoin="miter" stroke-width="0.50">
	<path d="M280.0,370.6 L280.0,299.6  " stroke="black"/></g>
</g>
</svg>