<svg height="420px" viewBox="0 0 560 420" width="560px" xmlns="http://www.w3.org/2000/svg" xmlns:xlink="http://www.w3.org/1999/xlink">

<title>Gnuplot</title>
<desc>Produced by GNUPLOT 5.0 patchlevel 3 </desc>

<g id="gnuplot_canvas">

<rect fill="none" height="420" width="560" x="0" y="0"/>
<defs>

	<circle id="gpDot" r="0.5" stroke-width="0.5"/>
	<path d="M-1,0 h2 M0,-1 v2" id="gpPt0" stroke="currentColor" stroke-width="0.222"/>
	<path d="M-1,-1 L1,1 M1,-1 L-1,1" id="gpPt1" stroke="currentColor" stroke-width="0.222"/>
	<path d="M-1,0 L1,0 M0,-1 L0,1 M-1,-1 L1,1 M-1,1 L1,-1" id="gpPt2" stroke="currentColor" stroke-width="0.222"/>
	<rect height="2" id="gpPt3" stroke="currentColor" stroke-width="0.222" width="2" x="-1" y="-1"/>
	<rect fill="currentColor" height="2" id="gpPt4" stroke="currentColor" stroke-width="0.222" width="2" x="-1" y="-1"/>
	<circle cx="0" cy="0" id="gpPt5" r="1" stroke="currentColor" stroke-width="0.222"/>
	<use fill="currentColor" id="gpPt6" stroke="none" xlink:href="#gpPt5"/>
	<path d="M0,-1.33 L-1.33,0.67 L1.33,0.67 z" id="gpPt7" stroke="currentColor" stroke-width="0.222"/>
	<use fill="currentColor" id="gpPt8" stroke="none" xlink:href="#gpPt7"/>
	<use id="gpPt9" stroke="currentColor" transform="rotate(180)" xlink:href="#gpPt7"/>
	<use fill="currentColor" id="gpPt10" stroke="none" xlink:href="#gpPt9"/>
	<use id="gpPt11" stroke="currentColor" transform="rotate(45)" xlink:href="#gpPt3"/>
	<use fill="currentColor" id="gpPt12" stroke="none" xlink:href="#gpPt11"/>
	<path d="M0,1.330 L1.265,0.411 L0.782,-1.067 L-0.782,-1.076 L-1.265,0.411 z" id="gpPt13" stroke="currentColor" stroke-width="0.222"/>
	<use fill="currentColor" id="gpPt14" stroke="none" xlink:href="#gpPt13"/>
	<filter filterUnits="objectBoundingBox" height="1" id="textbox" width="1" x="0" y="0">
	  <feFlood flood-color="white" flood-opacity="1" result="bgnd"/>
	  <feComposite in="SourceGraphic" in2="bgnd" operator="atop"/>
	</filter>
	<filter filterUnits="objectBoundingBox" height="1" id="greybox" width="1" x="0" y="0">
	  <feFlood flood-color="lightgrey" flood-opacity="1" result="grey"/>
	  <feComposite in="SourceGraphic" in2="grey" operator="atop"/>
	</filter>
</defs>
<g color="white" fill="none" stroke="currentColor" stroke-linecap="butt" stroke-linejoin="miter" stroke-width="1.00">
</g>
<g color="black" fill="none" stroke="currentColor" stroke-linecap="butt" stroke-linejoin="miter" stroke-width="1.00">
	<g shape-rendering="crispEdges" stroke="none">
		<polygon fill="rgb(255, 255, 255)" points="63.6,362.4 534.9,362.4 534.9,16.8 63.6,16.8 "/>
	</g>
</g>
<g color="black" fill="none" stroke="rgb(255, 255, 255)" stroke-linecap="butt" stroke-linejoin="miter" stroke-width="0.50">
</g>
<g color="black" fill="none" stroke="currentColor" stroke-linecap="butt" stroke-linejoin="miter" stroke-width="0.50">
	<path d="M63.6,362.4 L76.1,362.4 M535.0,362.4 L522.5,362.4  " stroke="black"/>	<g fill="rgb(0,0,0)" font-family="{}" font-size="16.00" stroke="none" text-anchor="end" transform="translate(55.3,368.4)">
		<text><tspan font-family="{}">10</tspan><tspan dy="-8.00px" font-family="{}" font-size="12.8">-5</tspan><tspan dy="8.00" font-size="16.0"/></text>
	</g>
</g>
<g color="black" fill="none" stroke="currentColor" stroke-linecap="butt" stroke-linejoin="miter" stroke-width="0.50">
	<path d="M63.6,341.6 L69.8,341.6 M535.0,341.6 L528.8,341.6 M63.6,329.4 L69.8,329.4 M535.0,329.4 L528.8,329.4   M63.6,320.8 L69.8,320.8 M535.0,320.8 L528.8,320.8 M63.6,314.1 L69.8,314.1 M535.0,314.1 L528.8,314.1   M63.6,308.6 L69.8,308.6 M535.0,308.6 L528.8,308.6 M63.6,304.0 L69.8,304.0 M535.0,304.0 L528.8,304.0   M63.6,300.0 L69.8,300.0 M535.0,300.0 L528.8,300.0 M63.6,296.4 L69.8,296.4 M535.0,296.4 L528.8,296.4   M63.6,293.3 L76.1,293.3 M535.0,293.3 L522.5,293.3  " stroke="black"/>	<g fill="rgb(0,0,0)" font-family="{}" font-size="16.00" stroke="none" text-anchor="end" transform="translate(55.3,299.3)">
		<text><tspan font-family="{}">10</tspan><tspan dy="-8.00px" font-family="{}" font-size="12.8">-4</tspan><tspan dy="8.00" font-size="16.0"/></text>
	</g>
</g>
<g color="black" fill="none" stroke="currentColor" stroke-linecap="butt" stroke-linejoin="miter" stroke-width="0.50">
	<path d="M63.6,272.4 L69.8,272.4 M535.0,272.4 L528.8,272.4 M63.6,260.3 L69.8,260.3 M535.0,260.3 L528.8,260.3   M63.6,251.6 L69.8,251.6 M535.0,251.6 L528.8,251.6 M63.6,244.9 L69.8,244.9 M535.0,244.9 L528.8,244.9   M63.6,239.5 L69.8,239.5 M535.0,239.5 L528.8,239.5 M63.6,234.8 L69.8,234.8 M535.0,234.8 L528.8,234.8   M63.6,230.8 L69.8,230.8 M535.0,230.8 L528.8,230.8 M63.6,227.3 L69.8,227.3 M535.0,227.3 L528.8,227.3   M63.6,224.1 L76.1,224.1 M535.0,224.1 L522.5,224.1  " stroke="black"/>	<g fill="rgb(0,0,0)" font-family="{}" font-size="16.00" stroke="none" text-anchor="end" transform="translate(55.3,230.1)">
		<text><tspan font-family="{}">10</tspan><tspan dy="-8.00px" font-family="{}" font-size="12.8">-3</tspan><tspan dy="8.00" font-size="16.0"/></text>
	</g>
</g>
<g color="black" fill="none" stroke="currentColor" stroke-linecap="butt" stroke-linejoin="miter" stroke-width="0.50">
	<path d="M63.6,203.3 L69.8,203.3 M535.0,203.3 L528.8,203.3 M63.6,191.1 L69.8,191.1 M535.0,191.1 L528.8,191.1   M63.6,182.5 L69.8,182.5 M535.0,182.5 L528.8,182.5 M63.6,175.8 L69.8,175.8 M535.0,175.8 L528.8,175.8   M63.6,170.3 L69.8,170.3 M535.0,170.3 L528.8,170.3 M63.6,165.7 L69.8,165.7 M535.0,165.7 L528.8,165.7   M63.6,161.7 L69.8,161.7 M535.0,161.7 L528.8,161.7 M63.6,158.1 L69.8,158.1 M535.0,158.1 L528.8,158.1   M63.6,155.0 L76.1,155.0 M535.0,155.0 L522.5,155.0  " stroke="black"/>	<g fill="rgb(0,0,0)" font-family="{}" font-size="16.00" stroke="none" text-anchor="end" transform="translate(55.3,161.0)">
		<text><tspan font-family="{}">10</tspan><tspan dy="-8.00px" font-family="{}" font-size="12.8">-2</tspan><tspan dy="8.00" font-size="16.0"/></text>
	</g>
</g>
<g color="black" fill="none" stroke="currentColor" stroke-linecap="butt" stroke-linejoin="miter" stroke-width="0.50">
	<path d="M63.6,134.2 L69.8,134.2 M535.0,134.2 L528.8,134.2 M63.6,122.0 L69.8,122.0 M535.0,122.0 L528.8,122.0   M63.6,113.4 L69.8,113.4 M535.0,113.4 L528.8,113.4 M63.6,106.7 L69.8,106.7 M535.0,106.7 L528.8,106.7   M63.6,101.2 L69.8,101.2 M535.0,101.2 L528.8,101.2 M63.6,96.5 L69.8,96.5 M535.0,96.5 L528.8,96.5   M63.6,92.5 L69.8,92.5 M535.0,92.5 L528.8,92.5 M63.6,89.0 L69.8,89.0 M535.0,89.0 L528.8,89.0   M63.6,85.8 L76.1,85.8 M535.0,85.8 L522.5,85.8  " stroke="black"/>	<g fill="rgb(0,0,0)" font-family="{}" font-size="16.00" stroke="none" text-anchor="end" transform="translate(55.3,91.8)">
		<text><tspan font-family="{}">10</tspan><tspan dy="-8.00px" font-family="{}" font-size="12.8">-1</tspan><tspan dy="8.00" font-size="16.0"/></text>
	</g>
</g>
<g color="black" fill="none" stroke="currentColor" stroke-linecap="butt" stroke-linejoin="miter" stroke-width="0.50">
	<path d="M63.6,65.0 L69.8,65.0 M535.0,65.0 L528.8,65.0 M63.6,52.9 L69.8,52.9 M535.0,52.9 L528.8,52.9   M63.6,44.2 L69.8,44.2 M535.0,44.2 L528.8,44.2 M63.6,37.5 L69.8,37.5 M535.0,37.5 L528.8,37.5   M63.6,32.0 L69.8,32.0 M535.0,32.0 L528.8,32.0 M63.6,27.4 L69.8,27.4 M535.0,27.4 L528.8,27.4   M63.6,23.4 L69.8,23.4 M535.0,23.4 L528.8,23.4 M63.6,19.9 L69.8,19.9 M535.0,19.9 L528.8,19.9   M63.6,16.7 L76.1,16.7 M535.0,16.7 L522.5,16.7  " stroke="black"/>	<g fill="rgb(0,0,0)" font-family="{}" font-size="16.00" stroke="none" text-anchor="end" transform="translate(55.3,22.7)">
		<text><tspan font-family="{}">10</tspan><tspan dy="-8.00px" font-family="{}" font-size="12.8">0</tspan><tspan dy="8.00" font-size="16.0"/></text>
	</g>
</g>
<g color="black" fill="none" stroke="currentColor" stroke-linecap="butt" stroke-linejoin="miter" stroke-width="0.50">
	<path d="M63.6,362.4 L63.6,349.9 M63.6,16.7 L63.6,29.2  " stroke="black"/>	<g fill="rgb(0,0,0)" font-family="{}" font-size="16.00" stroke="none" text-anchor="middle" transform="translate(63.6,386.4)">
		<text><tspan font-family="{}">10</tspan><tspan dy="-8.00px" font-family="{}" font-size="12.8">0</tspan><tspan dy="8.00" font-size="16.0"/></text>
	</g>
</g>
<g color="black" fill="none" stroke="currentColor" stroke-linecap="butt" stroke-linejoin="miter" stroke-width="0.50">
	<path d="M134.6,362.4 L134.6,356.2 M134.6,16.7 L134.6,22.9 M176.1,362.4 L176.1,356.2 M176.1,16.7 L176.1,22.9   M205.5,362.4 L205.5,356.2 M205.5,16.7 L205.5,22.9 M228.3,362.4 L228.3,356.2 M228.3,16.7 L228.3,22.9   M247.0,362.4 L247.0,356.2 M247.0,16.7 L247.0,22.9 M262.8,362.4 L262.8,356.2 M262.8,16.7 L262.8,22.9   M276.5,362.4 L276.5,356.2 M276.5,16.7 L276.5,22.9 M288.5,362.4 L288.5,356.2 M288.5,16.7 L288.5,22.9   M299.3,362.4 L299.3,349.9 M299.3,16.7 L299.3,29.2  " stroke="black"/>	<g fill="rgb(0,0,0)" font-family="{}" font-size="16.00" stroke="none" text-anchor="middle" transform="translate(299.3,386.4)">
		<text><tspan font-family="{}">10</tspan><tspan dy="-8.00px" font-family="{}" font-size="12.8">1</tspan><tspan dy="8.00" font-size="16.0"/></text>
	</g>
</g>
<g color="black" fill="none" stroke="currentColor" stroke-linecap="butt" stroke-linejoin="miter" stroke-width="0.50">
	<path d="M370.3,362.4 L370.3,356.2 M370.3,16.7 L370.3,22.9 M411.8,362.4 L411.8,356.2 M411.8,16.7 L411.8,22.9   M441.2,362.4 L441.2,356.2 M441.2,16.7 L441.2,22.9 M464.0,362.4 L464.0,356.2 M464.0,16.7 L464.0,22.9   M482.7,362.4 L482.7,356.2 M482.7,16.7 L482.7,22.9 M498.5,362.4 L498.5,356.2 M498.5,16.7 L498.5,22.9   M512.2,362.4 L512.2,356.2 M512.2,16.7 L512.2,22.9 M524.2,362.4 L524.2,356.2 M524.2,16.7 L524.2,22.9   M535.0,362.4 L535.0,349.9 M535.0,16.7 L535.0,29.2  " stroke="black"/>	<g fill="rgb(0,0,0)" font-family="{}" font-size="16.00" stroke="none" text-anchor="middle" transform="translate(535.0,386.4)">
		<text><tspan font-family="{}">10</tspan><tspan dy="-8.00px" font-family="{}" font-size="12.8">2</tspan><tspan dy="8.00" font-size="16.0"/></text>
	</g>
</g>
<g color="black" fill="none" stroke="currentColor" stroke-linecap="butt" stroke-linejoin="miter" stroke-width="0.50">
</g>
<g color="black" fill="none" stroke="currentColor" stroke-linecap="butt" stroke-linejoin="miter" stroke-width="0.50">
	<path d="M63.6,16.7 L63.6,362.4 L535.0,362.4 L535.0,16.7 L63.6,16.7 Z  " stroke="black"/></g>
<g color="black" fill="none" stroke="currentColor" stroke-linecap="butt" stroke-linejoin="miter" stroke-width="0.50">
	<g fill="rgb(0,0,0)" font-family="{}" font-size="16.00" stroke="none" text-anchor="middle" transform="translate(19.1,189.6) rotate(-90)">
		<text><tspan font-family="{}">time (s)</tspan></text>
	</g>
</g>
<g color="black" fill="none" stroke="currentColor" stroke-linecap="butt" stroke-linejoin="miter" stroke-width="0.50">
	<g fill="rgb(0,0,0)" font-family="{}" font-size="16.00" stroke="none" text-anchor="middle" transform="translate(299.3,413.4)">
		<text><tspan font-family="{}">number of elements</tspan></text>
	</g>
</g>
<g color="black" fill="none" stroke="currentColor" stroke-linecap="butt" stroke-linejoin="miter" stroke-width="0.50">
</g>
<g color="black" fill="none" stroke="currentColor" stroke-linecap="butt" stroke-linejoin="miter" stroke-width="1.00">
</g>
<g color="black" fill="none" stroke="currentColor" stroke-linecap="butt" stroke-linejoin="miter" stroke-width="1.00">
	<path d="M338.5,169.7 L338.5,25.7 L526.7,25.7 L526.7,169.7 L338.5,169.7 Z  " stroke="black"/></g>
	<g id="gnuplot_plot_1a"><title>Gauss elim</title>
<g color="white" fill="none" stroke="black" stroke-linecap="butt" stroke-linejoin="miter" stroke-width="3.00">
</g>
<g color="black" fill="none" stroke="currentColor" stroke-linecap="butt" stroke-linejoin="miter" stroke-width="3.00">
	<g fill="rgb(0,0,0)" font-family="{}" font-size="16.00" stroke="none" text-anchor="end" transform="translate(526.7,55.7)">
		<text><tspan font-family="{}">Gauss elim</tspan></text>
	</g>
</g>
<g color="black" fill="none" stroke="currentColor" stroke-linecap="butt" stroke-linejoin="miter" stroke-width="3.00">
	<path d="M349.7,49.7 L403.5,49.7 M63.6,244.9 L134.6,218.9 L176.1,200.5 L205.5,194.1 L228.3,188.5 L247.0,179.7   L262.8,187.8 L276.5,185.1 L288.5,190.9 L299.3,187.8 L309.1,189.0 L318.0,187.7 L326.2,186.5 L333.7,180.1   L340.8,176.5 L347.4,175.6 L353.6,173.1 L359.5,170.3 L365.0,168.4 L370.3,164.0 L375.2,163.3 L380.0,159.1   L384.6,157.2 L388.9,149.8 L393.1,144.2 L397.1,143.9 L401.0,141.9 L404.7,139.7 L408.3,140.8 L411.8,135.0   L415.1,131.6 L418.4,130.7 L421.5,129.9 L424.6,129.2 L427.5,127.8 L430.4,126.1 L433.2,124.6 L436.0,123.0   L438.6,121.5 L441.2,120.0 L443.7,118.6 L446.2,117.3 L448.6,115.9 L451.0,114.6 L453.3,113.2 L455.5,111.9   L457.7,110.6 L459.9,109.3 L462.0,108.1 L464.0,107.0 L466.1,105.8 L468.1,104.7 L470.0,103.7 L471.9,102.6   L473.8,99.4 L475.6,94.0 L477.5,93.2 L479.2,92.1 L481.0,89.6 L482.7,93.0 L484.4,95.1 L486.1,94.3   L487.7,93.2 L489.3,92.5 L490.9,89.9 L492.5,90.6 L494.0,89.7 L495.5,89.0 L497.0,88.3 L498.5,86.9   L499.9,87.1 L501.4,86.4 L502.8,85.7 L504.2,85.2 L505.6,84.4 L506.9,83.9 L508.2,83.3 L509.6,82.6   L510.9,82.3 L512.2,81.6 L513.4,81.0 L514.7,80.6 L515.9,79.7 L517.2,79.2 L518.4,79.1 L519.6,78.0   L520.7,78.0 L521.9,76.9 L523.1,76.5 L524.2,75.8 L525.3,75.3 L526.5,75.1 L527.6,74.3 L528.7,73.7   L529.7,73.3 L530.8,72.7 L531.9,72.2 L532.9,70.9 L534.0,71.2 L535.0,70.7  " stroke="rgb(  0,   0, 255)"/></g>
	</g>
	<g id="gnuplot_plot_2a"><title>Matlab \</title>
<g color="black" fill="none" stroke="currentColor" stroke-linecap="butt" stroke-linejoin="miter" stroke-width="3.00">
	<g fill="rgb(0,0,0)" font-family="{}" font-size="16.00" stroke="none" text-anchor="end" transform="translate(526.7,103.7)">
		<text><tspan font-family="{}">Matlab </tspan></text>
	</g>
</g>
<g color="black" fill="none" stroke="currentColor" stroke-linecap="butt" stroke-linejoin="miter" stroke-width="3.00">
	<path d="M349.7,97.7 L403.5,97.7 M63.6,259.7 L134.6,242.2 L176.1,215.9 L205.5,223.2 L228.3,222.2 L247.0,222.1   L262.8,228.2 L276.5,234.0 L288.5,239.8 L299.3,240.6 L309.1,235.4 L318.0,240.7 L326.2,240.5 L333.7,236.7   L340.8,234.7 L347.4,235.3 L353.6,233.8 L359.5,233.4 L365.0,229.8 L370.3,230.3 L375.2,227.4 L380.0,227.9   L384.6,224.6 L388.9,217.8 L393.1,216.3 L397.1,215.7 L401.0,214.0 L404.7,213.7 L408.3,219.8 L411.8,207.5   L415.1,209.8 L418.4,208.8 L421.5,208.7 L424.6,208.0 L427.5,207.6 L430.4,206.7 L433.2,205.7 L436.0,205.2   L438.6,204.3 L441.2,203.6 L443.7,203.1 L446.2,202.2 L448.6,201.5 L451.0,200.9 L453.3,200.0 L455.5,199.3   L457.7,198.6 L459.9,197.9 L462.0,197.5 L464.0,197.0 L466.1,196.4 L468.1,195.7 L470.0,195.2 L471.9,194.6   L473.8,192.4 L475.6,193.1 L477.5,192.3 L479.2,192.0 L481.0,174.1 L482.7,190.5 L484.4,190.8 L486.1,190.2   L487.7,189.7 L489.3,189.3 L490.9,189.0 L492.5,188.7 L494.0,187.8 L495.5,187.9 L497.0,187.2 L498.5,187.0   L499.9,186.5 L501.4,186.1 L502.8,185.7 L504.2,185.3 L505.6,184.7 L506.9,184.7 L508.2,184.2 L509.6,183.5   L510.9,183.1 L512.2,183.1 L513.4,182.7 L514.7,182.2 L515.9,181.7 L517.2,181.8 L518.4,181.0 L519.6,180.7   L520.7,180.5 L521.9,180.0 L523.1,180.0 L524.2,179.4 L525.3,179.2 L526.5,179.0 L527.6,178.6 L528.7,178.1   L529.7,178.0 L530.8,177.6 L531.9,182.4 L532.9,177.0 L534.0,176.4 L535.0,182.3  " stroke="rgb(  0, 128,   0)"/></g>
	</g>
	<g id="gnuplot_plot_3a"><title>TriDiag</title>
<g color="black" fill="none" stroke="currentColor" stroke-linecap="butt" stroke-linejoin="miter" stroke-width="3.00">
	<g fill="rgb(0,0,0)" font-family="{}" font-size="16.00" stroke="none" text-anchor="end" transform="translate(526.7,151.7)">
		<text><tspan font-family="{}">TriDiag</tspan></text>
	</g>
</g>
<g color="black" fill="none" stroke="currentColor" stroke-linecap="butt" stroke-linejoin="miter" stroke-width="3.00">
	<path d="M349.7,145.7 L403.5,145.7 M63.6,339.8 L134.6,290.4 L176.1,288.0 L205.5,286.1 L228.3,304.0 L247.0,308.1   L262.8,320.7 L276.5,317.2 L288.5,333.7 L299.3,328.4 L309.1,332.6 L318.0,320.0 L326.2,334.8 L333.7,309.0   L340.8,317.2 L347.4,331.6 L353.6,316.0 L359.5,245.2 L365.0,251.3 L370.3,313.5 L375.2,310.1 L380.0,307.6   L384.6,174.9 L388.9,301.9 L393.1,245.9 L397.1,291.6 L401.0,184.6 L404.7,300.6 L408.3,307.6 L411.8,298.5   L415.1,296.1 L418.4,293.2 L421.5,298.4 L424.6,294.5 L427.5,302.7 L430.4,254.5 L433.2,300.3 L436.0,303.1   L438.6,302.3 L441.2,302.7 L443.7,299.2 L446.2,300.6 L448.6,299.7 L451.0,297.4 L453.3,295.8 L455.5,295.1   L457.7,290.6 L459.9,290.9 L462.0,292.9 L464.0,291.2 L466.1,293.9 L468.1,296.1 L470.0,293.9 L471.9,293.9   L473.8,283.2 L475.6,288.8 L477.5,288.0 L479.2,288.0 L481.0,286.8 L482.7,286.8 L484.4,285.8 L486.1,286.5   L487.7,286.1 L489.3,285.6 L490.9,280.9 L492.5,279.9 L494.0,281.9 L495.5,279.4 L497.0,275.8 L498.5,273.8   L499.9,274.0 L501.4,274.5 L502.8,270.7 L504.2,269.6 L505.6,274.4 L506.9,274.6 L508.2,272.6 L509.6,269.3   L510.9,270.0 L512.2,271.7 L513.4,272.1 L514.7,271.0 L515.9,269.6 L517.2,268.6 L518.4,269.9 L519.6,270.3   L520.7,268.4 L521.9,269.6 L523.1,267.0 L524.2,268.5 L525.3,265.0 L526.5,265.8 L527.6,265.7 L528.7,265.0   L529.7,266.1 L530.8,263.8 L531.9,267.0 L532.9,264.9 L534.0,264.1 L535.0,265.2  " stroke="rgb(255,   0,   0)"/></g>
	</g>
<g color="white" fill="none" stroke="rgb(255,   0,   0)" stroke-linecap="butt" stroke-linejoin="miter" stroke-width="2.00">
</g>
<g color="black" fill="none" stroke="currentColor" stroke-linecap="butt" stroke-linejoin="miter" stroke-width="2.00">
</g>
<g color="black" fill="none" stroke="black" stroke-linecap="butt" stroke-linejoin="miter" stroke-width="0.50">
</g>
<g color="black" fill="none" stroke="currentColor" stroke-linecap="butt" stroke-linejoin="miter" stroke-width="0.50">
</g>
</g>
</svg>