<svg height="420px" viewBox="0 0 560 420" width="560px" xmlns="http://www.w3.org/2000/svg" xmlns:xlink="http://www.w3.org/1999/xlink">

<title>Gnuplot</title>
<desc>Produced by GNUPLOT 5.0 patchlevel 3 </desc>

<g id="gnuplot_canvas">

<rect fill="none" height="420" width="560" x="0" y="0"/>
<defs>

	<circle id="gpDot" r="0.5" stroke-width="0.5"/>
	<path d="M-1,0 h2 M0,-1 v2" id="gpPt0" stroke="currentColor" stroke-width="0.222"/>
	<path d="M-1,-1 L1,1 M1,-1 L-1,1" id="gpPt1" stroke="currentColor" stroke-width="0.222"/>
	<path d="M-1,0 L1,0 M0,-1 L0,1 M-1,-1 L1,1 M-1,1 L1,-1" id="gpPt2" stroke="currentColor" stroke-width="0.222"/>
	<rect height="2" id="gpPt3" stroke="currentColor" stroke-width="0.222" width="2" x="-1" y="-1"/>
	<rect fill="currentColor" height="2" id="gpPt4" stroke="currentColor" stroke-width="0.222" width="2" x="-1" y="-1"/>
	<circle cx="0" cy="0" id="gpPt5" r="1" stroke="currentColor" stroke-width="0.222"/>
	<use fill="currentColor" id="gpPt6" stroke="none" xlink:href="#gpPt5"/>
	<path d="M0,-1.33 L-1.33,0.67 L1.33,0.67 z" id="gpPt7" stroke="currentColor" stroke-width="0.222"/>
	<use fill="currentColor" id="gpPt8" stroke="none" xlink:href="#gpPt7"/>
	<use id="gpPt9" stroke="currentColor" transform="rotate(180)" xlink:href="#gpPt7"/>
	<use fill="currentColor" id="gpPt10" stroke="none" xlink:href="#gpPt9"/>
	<use id="gpPt11" stroke="currentColor" transform="rotate(45)" xlink:href="#gpPt3"/>
	<use fill="currentColor" id="gpPt12" stroke="none" xlink:href="#gpPt11"/>
	<path d="M0,1.330 L1.265,0.411 L0.782,-1.067 L-0.782,-1.076 L-1.265,0.411 z" id="gpPt13" stroke="currentColor" stroke-width="0.222"/>
	<use fill="currentColor" id="gpPt14" stroke="none" xlink:href="#gpPt13"/>
	<filter filterUnits="objectBoundingBox" height="1" id="textbox" width="1" x="0" y="0">
	  <feFlood flood-color="white" flood-opacity="1" result="bgnd"/>
	  <feComposite in="SourceGraphic" in2="bgnd" operator="atop"/>
	</filter>
	<filter filterUnits="objectBoundingBox" height="1" id="greybox" width="1" x="0" y="0">
	  <feFlood flood-color="lightgrey" flood-opacity="1" result="grey"/>
	  <feComposite in="SourceGraphic" in2="grey" operator="atop"/>
	</filter>
</defs>
<g color="white" fill="none" stroke="currentColor" stroke-linecap="butt" stroke-linejoin="miter" stroke-width="1.00">
</g>
<g color="black" fill="none" stroke="currentColor" stroke-linecap="butt" stroke-linejoin="miter" stroke-width="1.00">
	<g shape-rendering="crispEdges" stroke="none">
		<polygon fill="rgb(255, 255, 255)" points="63.6,362.4 534.9,362.4 534.9,16.8 63.6,16.8 "/>
	</g>
</g>
<g color="black" fill="none" stroke="rgb(255, 255, 255)" stroke-linecap="butt" stroke-linejoin="miter" stroke-width="0.50">
</g>
<g color="black" fill="none" stroke="currentColor" stroke-linecap="butt" stroke-linejoin="miter" stroke-width="0.50">
	<path d="M63.6,362.4 L76.1,362.4 M535.0,362.4 L522.5,362.4  " stroke="black"/>	<g fill="rgb(0,0,0)" font-family="{}" font-size="16.00" stroke="none" text-anchor="end" transform="translate(55.3,368.4)">
		<text><tspan font-family="{}">10</tspan><tspan dy="-8.00px" font-family="{}" font-size="12.8">-4</tspan><tspan dy="8.00" font-size="16.0"/></text>
	</g>
</g>
<g color="black" fill="none" stroke="currentColor" stroke-linecap="butt" stroke-linejoin="miter" stroke-width="0.50">
	<path d="M63.6,336.4 L69.8,336.4 M535.0,336.4 L528.8,336.4 M63.6,321.2 L69.8,321.2 M535.0,321.2 L528.8,321.2   M63.6,310.4 L69.8,310.4 M535.0,310.4 L528.8,310.4 M63.6,302.0 L69.8,302.0 M535.0,302.0 L528.8,302.0   M63.6,295.1 L69.8,295.1 M535.0,295.1 L528.8,295.1 M63.6,289.4 L69.8,289.4 M535.0,289.4 L528.8,289.4   M63.6,284.4 L69.8,284.4 M535.0,284.4 L528.8,284.4 M63.6,279.9 L69.8,279.9 M535.0,279.9 L528.8,279.9   M63.6,276.0 L76.1,276.0 M535.0,276.0 L522.5,276.0  " stroke="black"/>	<g fill="rgb(0,0,0)" font-family="{}" font-size="16.00" stroke="none" text-anchor="end" transform="translate(55.3,282.0)">
		<text><tspan font-family="{}">10</tspan><tspan dy="-8.00px" font-family="{}" font-size="12.8">-3</tspan><tspan dy="8.00" font-size="16.0"/></text>
	</g>
</g>
<g color="black" fill="none" stroke="currentColor" stroke-linecap="butt" stroke-linejoin="miter" stroke-width="0.50">
	<path d="M63.6,250.0 L69.8,250.0 M535.0,250.0 L528.8,250.0 M63.6,234.7 L69.8,234.7 M535.0,234.7 L528.8,234.7   M63.6,223.9 L69.8,223.9 M535.0,223.9 L528.8,223.9 M63.6,215.6 L69.8,215.6 M535.0,215.6 L528.8,215.6   M63.6,208.7 L69.8,208.7 M535.0,208.7 L528.8,208.7 M63.6,202.9 L69.8,202.9 M535.0,202.9 L528.8,202.9   M63.6,197.9 L69.8,197.9 M535.0,197.9 L528.8,197.9 M63.6,193.5 L69.8,193.5 M535.0,193.5 L528.8,193.5   M63.6,189.5 L76.1,189.5 M535.0,189.5 L522.5,189.5  " stroke="black"/>	<g fill="rgb(0,0,0)" font-family="{}" font-size="16.00" stroke="none" text-anchor="end" transform="translate(55.3,195.5)">
		<text><tspan font-family="{}">10</tspan><tspan dy="-8.00px" font-family="{}" font-size="12.8">-2</tspan><tspan dy="8.00" font-size="16.0"/></text>
	</g>
</g>
<g color="black" fill="none" stroke="currentColor" stroke-linecap="butt" stroke-linejoin="miter" stroke-width="0.50">
	<path d="M63.6,163.5 L69.8,163.5 M535.0,163.5 L528.8,163.5 M63.6,148.3 L69.8,148.3 M535.0,148.3 L528.8,148.3   M63.6,137.5 L69.8,137.5 M535.0,137.5 L528.8,137.5 M63.6,129.1 L69.8,129.1 M535.0,129.1 L528.8,129.1   M63.6,122.3 L69.8,122.3 M535.0,122.3 L528.8,122.3 M63.6,116.5 L69.8,116.5 M535.0,116.5 L528.8,116.5   M63.6,111.5 L69.8,111.5 M535.0,111.5 L528.8,111.5 M63.6,107.1 L69.8,107.1 M535.0,107.1 L528.8,107.1   M63.6,103.1 L76.1,103.1 M535.0,103.1 L522.5,103.1  " stroke="black"/>	<g fill="rgb(0,0,0)" font-family="{}" font-size="16.00" stroke="none" text-anchor="end" transform="translate(55.3,109.1)">
		<text><tspan font-family="{}">10</tspan><tspan dy="-8.00px" font-family="{}" font-size="12.8">-1</tspan><tspan dy="8.00" font-size="16.0"/></text>
	</g>
</g>
<g color="black" fill="none" stroke="currentColor" stroke-linecap="butt" stroke-linejoin="miter" stroke-width="0.50">
	<path d="M63.6,77.1 L69.8,77.1 M535.0,77.1 L528.8,77.1 M63.6,61.9 L69.8,61.9 M535.0,61.9 L528.8,61.9   M63.6,51.1 L69.8,51.1 M535.0,51.1 L528.8,51.1 M63.6,42.7 L69.8,42.7 M535.0,42.7 L528.8,42.7   M63.6,35.9 L69.8,35.9 M535.0,35.9 L528.8,35.9 M63.6,30.1 L69.8,30.1 M535.0,30.1 L528.8,30.1   M63.6,25.1 L69.8,25.1 M535.0,25.1 L528.8,25.1 M63.6,20.7 L69.8,20.7 M535.0,20.7 L528.8,20.7   M63.6,16.7 L76.1,16.7 M535.0,16.7 L522.5,16.7  " stroke="black"/>	<g fill="rgb(0,0,0)" font-family="{}" font-size="16.00" stroke="none" text-anchor="end" transform="translate(55.3,22.7)">
		<text><tspan font-family="{}">10</tspan><tspan dy="-8.00px" font-family="{}" font-size="12.8">0</tspan><tspan dy="8.00" font-size="16.0"/></text>
	</g>
</g>
<g color="black" fill="none" stroke="currentColor" stroke-linecap="butt" stroke-linejoin="miter" stroke-width="0.50">
	<path d="M63.6,362.4 L63.6,349.9 M63.6,16.7 L63.6,29.2  " stroke="black"/>	<g fill="rgb(0,0,0)" font-family="{}" font-size="16.00" stroke="none" text-anchor="middle" transform="translate(63.6,386.4)">
		<text><tspan font-family="{}">10</tspan><tspan dy="-8.00px" font-family="{}" font-size="12.8">0</tspan><tspan dy="8.00" font-size="16.0"/></text>
	</g>
</g>
<g color="black" fill="none" stroke="currentColor" stroke-linecap="butt" stroke-linejoin="miter" stroke-width="0.50">
	<path d="M110.9,362.4 L110.9,356.2 M110.9,16.7 L110.9,22.9 M138.6,362.4 L138.6,356.2 M138.6,16.7 L138.6,22.9   M158.2,362.4 L158.2,356.2 M158.2,16.7 L158.2,22.9 M173.4,362.4 L173.4,356.2 M173.4,16.7 L173.4,22.9   M185.9,362.4 L185.9,356.2 M185.9,16.7 L185.9,22.9 M196.4,362.4 L196.4,356.2 M196.4,16.7 L196.4,22.9   M205.5,362.4 L205.5,356.2 M205.5,16.7 L205.5,22.9 M213.5,362.4 L213.5,356.2 M213.5,16.7 L213.5,22.9   M220.7,362.4 L220.7,349.9 M220.7,16.7 L220.7,29.2  " stroke="black"/>	<g fill="rgb(0,0,0)" font-family="{}" font-size="16.00" stroke="none" text-anchor="middle" transform="translate(220.7,386.4)">
		<text><tspan font-family="{}">10</tspan><tspan dy="-8.00px" font-family="{}" font-size="12.8">1</tspan><tspan dy="8.00" font-size="16.0"/></text>
	</g>
</g>
<g color="black" fill="none" stroke="currentColor" stroke-linecap="butt" stroke-linejoin="miter" stroke-width="0.50">
	<path d="M268.0,362.4 L268.0,356.2 M268.0,16.7 L268.0,22.9 M295.7,362.4 L295.7,356.2 M295.7,16.7 L295.7,22.9   M315.3,362.4 L315.3,356.2 M315.3,16.7 L315.3,22.9 M330.6,362.4 L330.6,356.2 M330.6,16.7 L330.6,22.9   M343.0,362.4 L343.0,356.2 M343.0,16.7 L343.0,22.9 M353.5,362.4 L353.5,356.2 M353.5,16.7 L353.5,22.9   M362.6,362.4 L362.6,356.2 M362.6,16.7 L362.6,22.9 M370.7,362.4 L370.7,356.2 M370.7,16.7 L370.7,22.9   M377.9,362.4 L377.9,349.9 M377.9,16.7 L377.9,29.2  " stroke="black"/>	<g fill="rgb(0,0,0)" font-family="{}" font-size="16.00" stroke="none" text-anchor="middle" transform="translate(377.9,386.4)">
		<text><tspan font-family="{}">10</tspan><tspan dy="-8.00px" font-family="{}" font-size="12.8">2</tspan><tspan dy="8.00" font-size="16.0"/></text>
	</g>
</g>
<g color="black" fill="none" stroke="currentColor" stroke-linecap="butt" stroke-linejoin="miter" stroke-width="0.50">
	<path d="M425.2,362.4 L425.2,356.2 M425.2,16.7 L425.2,22.9 M452.8,362.4 L452.8,356.2 M452.8,16.7 L452.8,22.9   M472.5,362.4 L472.5,356.2 M472.5,16.7 L472.5,22.9 M487.7,362.4 L487.7,356.2 M487.7,16.7 L487.7,22.9   M500.1,362.4 L500.1,356.2 M500.1,16.7 L500.1,22.9 M510.7,362.4 L510.7,356.2 M510.7,16.7 L510.7,22.9   M519.8,362.4 L519.8,356.2 M519.8,16.7 L519.8,22.9 M527.8,362.4 L527.8,356.2 M527.8,16.7 L527.8,22.9   M535.0,362.4 L535.0,349.9 M535.0,16.7 L535.0,29.2  " stroke="black"/>	<g fill="rgb(0,0,0)" font-family="{}" font-size="16.00" stroke="none" text-anchor="middle" transform="translate(535.0,386.4)">
		<text><tspan font-family="{}">10</tspan><tspan dy="-8.00px" font-family="{}" font-size="12.8">3</tspan><tspan dy="8.00" font-size="16.0"/></text>
	</g>
</g>
<g color="black" fill="none" stroke="currentColor" stroke-linecap="butt" stroke-linejoin="miter" stroke-width="0.50">
</g>
<g color="black" fill="none" stroke="currentColor" stroke-linecap="butt" stroke-linejoin="miter" stroke-width="0.50">
	<path d="M63.6,16.7 L63.6,362.4 L535.0,362.4 L535.0,16.7 L63.6,16.7 Z  " stroke="black"/></g>
<g color="black" fill="none" stroke="currentColor" stroke-linecap="butt" stroke-linejoin="miter" stroke-width="0.50">
	<g fill="rgb(0,0,0)" font-family="{}" font-size="16.00" stroke="none" text-anchor="middle" transform="translate(19.1,189.6) rotate(-90)">
		<text><tspan font-family="{}">time (s)</tspan></text>
	</g>
</g>
<g color="black" fill="none" stroke="currentColor" stroke-linecap="butt" stroke-linejoin="miter" stroke-width="0.50">
	<g fill="rgb(0,0,0)" font-family="{}" font-size="16.00" stroke="none" text-anchor="middle" transform="translate(299.3,413.4)">
		<text><tspan font-family="{}">number of elements</tspan></text>
	</g>
</g>
<g color="black" fill="none" stroke="currentColor" stroke-linecap="butt" stroke-linejoin="miter" stroke-width="0.50">
</g>
	<g id="gnuplot_plot_1a"><title>gnuplot_plot_1a</title>
<g color="white" fill="none" stroke="currentColor" stroke-linecap="butt" stroke-linejoin="miter" stroke-width="3.00">
</g>
<g color="black" fill="none" stroke="currentColor" stroke-linecap="butt" stroke-linejoin="miter" stroke-width="3.00">
	<path d="M63.6,308.3 L110.9,285.4 L138.6,274.3 L158.2,261.5 L173.4,250.3 L185.9,233.1 L196.4,228.8 L205.5,233.6   L213.5,239.5 L220.7,241.3 L227.2,241.9 L233.2,239.1 L238.6,234.6 L243.7,231.7 L248.4,227.0 L252.8,222.5   L256.9,216.8 L260.8,213.4 L264.5,209.2 L268.0,206.6 L271.4,203.6 L274.5,200.1 L277.6,194.9 L280.5,191.3   L283.3,188.9 L285.9,188.3 L288.5,183.6 L291.0,180.8 L293.4,178.6 L295.7,176.0 L297.9,173.8 L300.1,173.6   L302.2,171.7 L304.2,169.5 L306.2,167.4 L308.1,165.2 L310.0,163.4 L311.8,161.2 L313.6,159.5 L315.3,156.3   L317.0,154.8 L318.7,151.6 L320.3,150.0 L321.8,150.5 L323.4,147.7 L324.9,146.1 L326.3,143.6 L327.8,142.0   L329.2,140.6 L330.6,139.1 L331.9,139.6 L333.2,138.5 L334.5,136.7 L335.8,133.5 L337.1,133.2 L338.3,131.7   L339.5,131.1 L340.7,128.7 L341.9,127.0 L343.0,128.1 L344.1,126.8 L345.2,123.7 L346.3,122.4 L347.4,121.2   L348.5,121.4 L349.5,118.9 L350.5,117.7 L351.5,117.7 L352.5,116.3 L353.5,115.3 L354.5,114.0 L355.4,112.6   L356.4,113.0 L357.3,112.4 L358.2,111.5 L359.1,110.5 L360.0,109.4 L360.9,108.3 L361.8,107.7 L362.6,106.7   L363.5,105.8 L364.3,104.7 L365.2,103.9 L366.0,102.5 L366.8,101.1 L367.6,99.3 L368.4,98.8 L369.1,97.7   L369.9,97.2 L370.7,96.7 L371.4,97.0 L372.2,95.0 L372.9,94.9 L373.6,93.7 L374.4,92.6 L375.1,92.1   L375.8,92.3 L376.5,91.4 L377.2,90.8 L377.9,89.8 L378.5,89.3 L379.2,88.0 L379.9,87.0 L380.5,85.0   L381.2,84.8 L381.8,85.7 L382.5,83.4 L383.1,82.6 L383.7,83.6 L384.4,80.8 L385.0,81.2 L385.6,81.6   L386.2,80.7 L386.8,79.7 L387.4,78.1 L388.0,78.6 L388.6,78.2 L389.2,77.6 L389.7,77.0 L390.3,75.7   L390.9,74.6 L391.4,74.3 L392.0,74.3 L392.5,73.9 L393.1,73.2 L393.6,72.6 L394.2,70.8 L394.7,70.5   L395.2,69.9 L395.8,68.8 L396.3,68.4 L396.8,69.1 L397.3,68.6 L397.8,67.0 L398.3,65.9 L398.9,66.0   L399.4,65.3 L399.8,64.3 L400.3,65.2 L400.8,64.7 L401.3,64.2 L401.8,63.6 L402.3,61.6 L402.8,61.0   L403.2,60.0 L403.7,59.7 L404.2,59.9 L404.6,59.5 L405.1,58.5 L405.5,57.7 L406.0,58.6 L406.4,56.8   L406.9,57.9 L407.3,57.4 L407.8,55.6 L408.2,55.3 L408.6,55.9 L409.1,53.9 L409.5,55.1 L409.9,54.4   L410.4,52.9 L410.8,52.8 L411.2,51.2 L411.6,51.5 L412.0,51.1 L412.5,51.6 L412.9,51.3 L413.3,50.7   L413.7,50.3 L414.1,49.8 L414.5,49.0 L414.9,48.9 L415.3,48.1 L415.7,48.2 L416.1,47.4 L416.4,47.2   L416.8,46.9 L417.2,46.4 L417.6,46.0 L418.0,44.2 L418.4,43.3 L418.7,44.3 L419.1,43.0 L419.5,42.5   L419.8,42.9 L420.2,41.3 L420.6,42.6 L420.9,40.8 L421.3,41.7 L421.7,41.2 L422.0,40.1 L422.4,40.2   L422.7,40.0 L423.1,38.9 L423.4,39.4 L423.8,39.1 L424.1,38.2 L424.5,37.9 L424.8,37.6 L425.2,37.4    " stroke="rgb(  0,   0, 255)"/></g>
	</g>
	<g id="gnuplot_plot_2a"><title>gnuplot_plot_2a</title>
<g color="black" fill="none" stroke="currentColor" stroke-linecap="butt" stroke-linejoin="miter" stroke-width="3.00">
	<path d="M63.6,336.8 L110.9,308.3 L138.6,307.9 L158.2,298.1 L173.4,290.5 L185.9,283.1 L196.4,291.3 L205.5,296.6   L213.5,300.5 L220.7,302.1 L227.2,307.2 L233.2,303.9 L238.6,299.6 L243.7,301.8 L248.4,298.4 L252.8,290.9   L256.9,294.0 L260.8,281.4 L264.5,282.9 L268.0,287.7 L271.4,286.5 L274.5,282.6 L277.6,282.8 L280.5,279.3   L283.3,279.5 L285.9,276.0 L288.5,274.6 L291.0,273.4 L293.4,272.2 L295.7,270.8 L297.9,271.9 L300.1,270.8   L302.2,269.5 L304.2,268.4 L306.2,267.5 L308.1,266.3 L310.0,265.3 L311.8,264.3 L313.6,262.8 L315.3,261.2   L317.0,258.8 L318.7,258.0 L320.3,259.7 L321.8,258.5 L323.4,257.5 L324.9,255.3 L326.3,254.0 L327.8,253.3   L329.2,252.5 L330.6,253.6 L331.9,253.3 L333.2,252.6 L334.5,249.9 L335.8,250.7 L337.1,247.7 L338.3,246.4   L339.5,246.4 L340.7,246.0 L341.9,247.8 L343.0,247.1 L344.1,244.0 L345.2,243.4 L346.3,242.8 L347.4,244.2   L348.5,241.3 L349.5,243.1 L350.5,241.8 L351.5,242.1 L352.5,241.6 L353.5,240.5 L354.5,238.3 L355.4,240.2   L356.4,239.7 L357.3,239.1 L358.2,238.5 L359.1,238.2 L360.0,237.7 L360.9,237.1 L361.8,236.7 L362.6,236.2   L363.5,235.7 L364.3,235.1 L365.2,234.8 L366.0,234.3 L366.8,231.6 L367.6,230.9 L368.4,232.9 L369.1,229.9   L369.9,231.3 L370.7,231.7 L371.4,231.4 L372.2,230.9 L372.9,227.0 L373.6,230.1 L374.4,229.7 L375.1,229.3   L375.8,229.0 L376.5,228.7 L377.2,227.9 L377.9,227.7 L378.5,227.5 L379.2,227.1 L379.9,226.6 L380.5,224.1   L381.2,225.9 L381.8,225.8 L382.5,223.0 L383.1,225.0 L383.7,222.4 L384.4,224.1 L385.0,223.9 L385.6,223.1   L386.2,223.1 L386.8,223.0 L387.4,220.2 L388.0,222.3 L388.6,221.4 L389.2,221.6 L389.7,220.5 L390.3,218.3   L390.9,220.8 L391.4,220.4 L392.0,220.1 L392.5,219.9 L393.1,219.6 L393.6,219.2 L394.2,216.7 L394.7,218.1   L395.2,216.2 L395.8,217.7 L396.3,217.8 L396.8,217.5 L397.3,217.2 L397.8,214.6 L398.3,216.6 L398.9,215.0   L399.4,216.0 L399.8,215.6 L400.3,215.5 L400.8,215.2 L401.3,215.0 L401.8,212.4 L402.3,212.1 L402.8,211.9   L403.2,213.3 L403.7,211.9 L404.2,213.3 L404.6,212.9 L405.1,212.7 L405.5,210.4 L406.0,210.3 L406.4,212.1   L406.9,211.9 L407.3,211.6 L407.8,209.0 L408.2,211.2 L408.6,208.6 L409.1,210.2 L409.5,210.5 L409.9,209.8   L410.4,210.0 L410.8,208.3 L411.2,207.1 L411.6,209.2 L412.0,209.1 L412.5,208.8 L412.9,208.5 L413.3,208.2   L413.7,207.7 L414.1,207.9 L414.5,207.6 L414.9,207.6 L415.3,205.2 L415.7,207.1 L416.1,206.8 L416.4,206.4   L416.8,206.4 L417.2,205.9 L417.6,206.0 L418.0,204.9 L418.4,203.2 L418.7,205.3 L419.1,203.2 L419.5,202.6   L419.8,202.9 L420.2,204.5 L420.6,203.2 L420.9,201.9 L421.3,203.4 L421.7,203.5 L422.0,203.6 L422.4,202.0   L422.7,202.7 L423.1,203.2 L423.4,202.8 L423.8,202.0 L424.1,200.2 L424.5,202.2 L424.8,202.1 L425.2,202.0    " stroke="rgb(  0, 128,   0)"/></g>
	</g>
	<g id="gnuplot_plot_3a"><title>gnuplot_plot_3a</title>
<g color="black" fill="none" stroke="currentColor" stroke-linecap="butt" stroke-linejoin="miter" stroke-width="3.00">
	<path d="M63.6,319.9 L110.9,285.3 L138.6,277.8 L158.2,264.7 L173.4,249.4 L185.9,237.0 L196.4,235.1 L205.5,243.7   L213.5,244.3 L220.7,238.0 L227.2,243.3 L233.2,236.2 L238.6,236.5 L243.7,231.9 L248.4,223.6 L252.8,222.8   L256.9,218.4 L260.8,213.2 L264.5,211.2 L268.0,206.8 L271.4,203.8 L274.5,198.5 L277.6,196.1 L280.5,193.5   L283.3,190.2 L285.9,186.8 L288.5,184.0 L291.0,181.2 L293.4,179.0 L295.7,176.2 L297.9,174.2 L300.1,173.8   L302.2,172.0 L304.2,169.7 L306.2,167.6 L308.1,165.4 L310.0,163.6 L311.8,161.5 L313.6,157.9 L315.3,157.1   L317.0,153.3 L318.7,151.9 L320.3,152.5 L321.8,150.4 L323.4,148.6 L324.9,146.1 L326.3,143.7 L327.8,142.1   L329.2,140.9 L330.6,138.3 L331.9,140.1 L333.2,138.8 L334.5,137.1 L335.8,134.3 L337.1,132.3 L338.3,132.4   L339.5,129.6 L340.7,128.8 L341.9,128.7 L343.0,128.3 L344.1,126.1 L345.2,123.8 L346.3,122.6 L347.4,122.6   L348.5,120.3 L349.5,120.3 L350.5,117.9 L351.5,117.1 L352.5,117.7 L353.5,115.4 L354.5,113.3 L355.4,114.4   L356.4,113.6 L357.3,112.4 L358.2,111.5 L359.1,110.7 L360.0,109.7 L360.9,108.6 L361.8,107.7 L362.6,106.9   L363.5,105.6 L364.3,105.0 L365.2,104.0 L366.0,102.4 L366.8,101.1 L367.6,100.3 L368.4,98.8 L369.1,98.9   L369.9,97.5 L370.7,98.0 L371.4,96.4 L372.2,95.2 L372.9,94.2 L373.6,93.8 L374.4,93.7 L375.1,93.2   L375.8,92.4 L376.5,91.6 L377.2,90.9 L377.9,90.2 L378.5,89.4 L379.2,88.0 L379.9,87.3 L380.5,85.7   L381.2,86.3 L381.8,85.9 L382.5,83.6 L383.1,84.0 L383.7,81.9 L384.4,82.7 L385.0,82.2 L385.6,81.0   L386.2,80.5 L386.8,80.5 L387.4,78.6 L388.0,79.0 L388.6,78.4 L389.2,77.7 L389.7,76.8 L390.3,76.4   L390.9,75.4 L391.4,73.9 L392.0,74.5 L392.5,74.0 L393.1,73.4 L393.6,72.8 L394.2,70.0 L394.7,70.1   L395.2,69.4 L395.8,69.5 L396.3,69.8 L396.8,69.3 L397.3,68.7 L397.8,67.5 L398.3,66.2 L398.9,65.5   L399.4,64.7 L399.8,65.4 L400.3,65.2 L400.8,64.7 L401.3,64.2 L401.8,63.4 L402.3,61.7 L402.8,61.1   L403.2,60.2 L403.7,60.1 L404.2,59.9 L404.6,58.9 L405.1,60.1 L405.5,58.4 L406.0,58.4 L406.4,58.5   L406.9,57.9 L407.3,56.7 L407.8,56.2 L408.2,54.9 L408.6,54.5 L409.1,55.6 L409.5,55.1 L409.9,54.5   L410.4,53.3 L410.8,53.0 L411.2,52.0 L411.6,51.6 L412.0,52.0 L412.5,51.6 L412.9,51.2 L413.3,50.5   L413.7,50.3 L414.1,49.9 L414.5,49.3 L414.9,49.1 L415.3,48.5 L415.7,47.7 L416.1,47.8 L416.4,47.3   L416.8,47.0 L417.2,46.4 L417.6,46.0 L418.0,45.1 L418.4,44.4 L418.7,43.5 L419.1,43.8 L419.5,42.2   L419.8,41.9 L420.2,41.9 L420.6,41.0 L420.9,40.8 L421.3,42.0 L421.7,41.3 L422.0,40.2 L422.4,39.3   L422.7,39.8 L423.1,39.7 L423.4,39.6 L423.8,39.1 L424.1,37.4 L424.5,38.4 L424.8,37.9 L425.2,37.4    " stroke="rgb(255,   0,   0)"/></g>
	</g>
<g color="white" fill="none" stroke="rgb(255,   0,   0)" stroke-linecap="butt" stroke-linejoin="miter" stroke-width="2.00">
</g>
<g color="black" fill="none" stroke="currentColor" stroke-linecap="butt" stroke-linejoin="miter" stroke-width="2.00">
</g>
<g color="black" fill="none" stroke="black" stroke-linecap="butt" stroke-linejoin="miter" stroke-width="0.50">
</g>
<g color="black" fill="none" stroke="currentColor" stroke-linecap="butt" stroke-linejoin="miter" stroke-width="0.50">
</g>
</g>
</svg>