<svg height="420px" viewBox="0 0 560 420" width="560px" xmlns="http://www.w3.org/2000/svg" xmlns:xlink="http://www.w3.org/1999/xlink">

<title>Gnuplot</title>
<desc>Produced by GNUPLOT 5.0 patchlevel 3 </desc>

<g id="gnuplot_canvas">

<rect fill="none" height="420" width="560" x="0" y="0"/>
<defs>

	<circle id="gpDot" r="0.5" stroke-width="0.5"/>
	<path d="M-1,0 h2 M0,-1 v2" id="gpPt0" stroke="currentColor" stroke-width="0.222"/>
	<path d="M-1,-1 L1,1 M1,-1 L-1,1" id="gpPt1" stroke="currentColor" stroke-width="0.222"/>
	<path d="M-1,0 L1,0 M0,-1 L0,1 M-1,-1 L1,1 M-1,1 L1,-1" id="gpPt2" stroke="currentColor" stroke-width="0.222"/>
	<rect height="2" id="gpPt3" stroke="currentColor" stroke-width="0.222" width="2" x="-1" y="-1"/>
	<rect fill="currentColor" height="2" id="gpPt4" stroke="currentColor" stroke-width="0.222" width="2" x="-1" y="-1"/>
	<circle cx="0" cy="0" id="gpPt5" r="1" stroke="currentColor" stroke-width="0.222"/>
	<use fill="currentColor" id="gpPt6" stroke="none" xlink:href="#gpPt5"/>
	<path d="M0,-1.33 L-1.33,0.67 L1.33,0.67 z" id="gpPt7" stroke="currentColor" stroke-width="0.222"/>
	<use fill="currentColor" id="gpPt8" stroke="none" xlink:href="#gpPt7"/>
	<use id="gpPt9" stroke="currentColor" transform="rotate(180)" xlink:href="#gpPt7"/>
	<use fill="currentColor" id="gpPt10" stroke="none" xlink:href="#gpPt9"/>
	<use id="gpPt11" stroke="currentColor" transform="rotate(45)" xlink:href="#gpPt3"/>
	<use fill="currentColor" id="gpPt12" stroke="none" xlink:href="#gpPt11"/>
	<path d="M0,1.330 L1.265,0.411 L0.782,-1.067 L-0.782,-1.076 L-1.265,0.411 z" id="gpPt13" stroke="currentColor" stroke-width="0.222"/>
	<use fill="currentColor" id="gpPt14" stroke="none" xlink:href="#gpPt13"/>
	<filter filterUnits="objectBoundingBox" height="1" id="textbox" width="1" x="0" y="0">
	  <feFlood flood-color="white" flood-opacity="1" result="bgnd"/>
	  <feComposite in="SourceGraphic" in2="bgnd" operator="atop"/>
	</filter>
	<filter filterUnits="objectBoundingBox" height="1" id="greybox" width="1" x="0" y="0">
	  <feFlood flood-color="lightgrey" flood-opacity="1" result="grey"/>
	  <feComposite in="SourceGraphic" in2="grey" operator="atop"/>
	</filter>
</defs>
<g color="white" fill="none" stroke="currentColor" stroke-linecap="butt" stroke-linejoin="miter" stroke-width="1.00">
</g>
<g color="black" fill="none" stroke="currentColor" stroke-linecap="butt" stroke-linejoin="miter" stroke-width="1.00">
	<g shape-rendering="crispEdges" stroke="none">
		<polygon fill="rgb(255, 255, 255)" points="37.3,384.0 534.9,384.0 534.9,16.8 37.3,16.8 "/>
	</g>
</g>
<g color="black" fill="none" stroke="rgb(255, 255, 255)" stroke-linecap="butt" stroke-linejoin="miter" stroke-width="0.50">
</g>
<g color="black" fill="none" stroke="currentColor" stroke-linecap="butt" stroke-linejoin="miter" stroke-width="0.50">
	<path d="M37.3,384.0 L49.8,384.0 M535.0,384.0 L522.5,384.0  " stroke="black"/>	<g fill="rgb(0,0,0)" font-family="{}" font-size="16.00" stroke="none" text-anchor="end" transform="translate(29.0,390.0)">
		<text><tspan font-family="{}">-4</tspan></text>
	</g>
</g>
<g color="black" fill="none" stroke="currentColor" stroke-linecap="butt" stroke-linejoin="miter" stroke-width="0.50">
	<path d="M37.3,310.5 L49.8,310.5 M535.0,310.5 L522.5,310.5  " stroke="black"/>	<g fill="rgb(0,0,0)" font-family="{}" font-size="16.00" stroke="none" text-anchor="end" transform="translate(29.0,316.5)">
		<text><tspan font-family="{}">-2</tspan></text>
	</g>
</g>
<g color="black" fill="none" stroke="currentColor" stroke-linecap="butt" stroke-linejoin="miter" stroke-width="0.50">
	<path d="M37.3,237.1 L49.8,237.1 M535.0,237.1 L522.5,237.1  " stroke="black"/>	<g fill="rgb(0,0,0)" font-family="{}" font-size="16.00" stroke="none" text-anchor="end" transform="translate(29.0,243.1)">
		<text><tspan font-family="{}">0</tspan></text>
	</g>
</g>
<g color="black" fill="none" stroke="currentColor" stroke-linecap="butt" stroke-linejoin="miter" stroke-width="0.50">
	<path d="M37.3,163.6 L49.8,163.6 M535.0,163.6 L522.5,163.6  " stroke="black"/>	<g fill="rgb(0,0,0)" font-family="{}" font-size="16.00" stroke="none" text-anchor="end" transform="translate(29.0,169.6)">
		<text><tspan font-family="{}">2</tspan></text>
	</g>
</g>
<g color="black" fill="none" stroke="currentColor" stroke-linecap="butt" stroke-linejoin="miter" stroke-width="0.50">
	<path d="M37.3,90.2 L49.8,90.2 M535.0,90.2 L522.5,90.2  " stroke="black"/>	<g fill="rgb(0,0,0)" font-family="{}" font-size="16.00" stroke="none" text-anchor="end" transform="translate(29.0,96.2)">
		<text><tspan font-family="{}">4</tspan></text>
	</g>
</g>
<g color="black" fill="none" stroke="currentColor" stroke-linecap="butt" stroke-linejoin="miter" stroke-width="0.50">
	<path d="M37.3,16.7 L49.8,16.7 M535.0,16.7 L522.5,16.7  " stroke="black"/>	<g fill="rgb(0,0,0)" font-family="{}" font-size="16.00" stroke="none" text-anchor="end" transform="translate(29.0,22.7)">
		<text><tspan font-family="{}">6</tspan></text>
	</g>
</g>
<g color="black" fill="none" stroke="currentColor" stroke-linecap="butt" stroke-linejoin="miter" stroke-width="0.50">
	<path d="M37.3,384.0 L37.3,371.5 M37.3,16.7 L37.3,29.2  " stroke="black"/>	<g fill="rgb(0,0,0)" font-family="{}" font-size="16.00" stroke="none" text-anchor="middle" transform="translate(37.3,408.0)">
		<text><tspan font-family="{}">-6</tspan></text>
	</g>
</g>
<g color="black" fill="none" stroke="currentColor" stroke-linecap="butt" stroke-linejoin="miter" stroke-width="0.50">
	<path d="M108.4,384.0 L108.4,371.5 M108.4,16.7 L108.4,29.2  " stroke="black"/>	<g fill="rgb(0,0,0)" font-family="{}" font-size="16.00" stroke="none" text-anchor="middle" transform="translate(108.4,408.0)">
		<text><tspan font-family="{}">-4</tspan></text>
	</g>
</g>
<g color="black" fill="none" stroke="currentColor" stroke-linecap="butt" stroke-linejoin="miter" stroke-width="0.50">
	<path d="M179.5,384.0 L179.5,371.5 M179.5,16.7 L179.5,29.2  " stroke="black"/>	<g fill="rgb(0,0,0)" font-family="{}" font-size="16.00" stroke="none" text-anchor="middle" transform="translate(179.5,408.0)">
		<text><tspan font-family="{}">-2</tspan></text>
	</g>
</g>
<g color="black" fill="none" stroke="currentColor" stroke-linecap="butt" stroke-linejoin="miter" stroke-width="0.50">
	<path d="M250.6,384.0 L250.6,371.5 M250.6,16.7 L250.6,29.2  " stroke="black"/>	<g fill="rgb(0,0,0)" font-family="{}" font-size="16.00" stroke="none" text-anchor="middle" transform="translate(250.6,408.0)">
		<text><tspan font-family="{}">0</tspan></text>
	</g>
</g>
<g color="black" fill="none" stroke="currentColor" stroke-linecap="butt" stroke-linejoin="miter" stroke-width="0.50">
	<path d="M321.7,384.0 L321.7,371.5 M321.7,16.7 L321.7,29.2  " stroke="black"/>	<g fill="rgb(0,0,0)" font-family="{}" font-size="16.00" stroke="none" text-anchor="middle" transform="translate(321.7,408.0)">
		<text><tspan font-family="{}">2</tspan></text>
	</g>
</g>
<g color="black" fill="none" stroke="currentColor" stroke-linecap="butt" stroke-linejoin="miter" stroke-width="0.50">
	<path d="M392.8,384.0 L392.8,371.5 M392.8,16.7 L392.8,29.2  " stroke="black"/>	<g fill="rgb(0,0,0)" font-family="{}" font-size="16.00" stroke="none" text-anchor="middle" transform="translate(392.8,408.0)">
		<text><tspan font-family="{}">4</tspan></text>
	</g>
</g>
<g color="black" fill="none" stroke="currentColor" stroke-linecap="butt" stroke-linejoin="miter" stroke-width="0.50">
	<path d="M463.9,384.0 L463.9,371.5 M463.9,16.7 L463.9,29.2  " stroke="black"/>	<g fill="rgb(0,0,0)" font-family="{}" font-size="16.00" stroke="none" text-anchor="middle" transform="translate(463.9,408.0)">
		<text><tspan font-family="{}">6</tspan></text>
	</g>
</g>
<g color="black" fill="none" stroke="currentColor" stroke-linecap="butt" stroke-linejoin="miter" stroke-width="0.50">
	<path d="M535.0,384.0 L535.0,371.5 M535.0,16.7 L535.0,29.2  " stroke="black"/>	<g fill="rgb(0,0,0)" font-family="{}" font-size="16.00" stroke="none" text-anchor="middle" transform="translate(535.0,408.0)">
		<text><tspan font-family="{}">8</tspan></text>
	</g>
</g>
<g color="black" fill="none" stroke="currentColor" stroke-linecap="butt" stroke-linejoin="miter" stroke-width="0.50">
</g>
<g color="black" fill="none" stroke="currentColor" stroke-linecap="butt" stroke-linejoin="miter" stroke-width="0.50">
	<path d="M37.3,16.7 L37.3,384.0 L535.0,384.0 L535.0,16.7 L37.3,16.7 Z  " stroke="black"/></g>
<g color="black" fill="none" stroke="currentColor" stroke-linecap="butt" stroke-linejoin="miter" stroke-width="0.50">
</g>
	<g id="gnuplot_plot_1a"><title>gnuplot_plot_1a</title>
<g color="white" fill="none" stroke="black" stroke-linecap="butt" stroke-linejoin="miter" stroke-width="3.00">
</g>
<g color="black" fill="none" stroke="currentColor" stroke-linecap="butt" stroke-linejoin="miter" stroke-width="3.00">
	<path d="M499.5,310.5 L392.8,273.8 L286.2,237.1 L179.5,200.3 L72.9,163.6  " stroke="rgb(  0,   0, 255)"/></g>
	</g>
	<g id="gnuplot_plot_2a"><title>gnuplot_plot_2a</title>
<g color="black" fill="none" stroke="currentColor" stroke-linecap="butt" stroke-linejoin="miter" stroke-width="3.00">
	<path d="M179.5,53.4 L215.1,126.9 L250.6,200.3 L286.2,273.8 L321.7,347.3  " stroke="rgb(  0, 128,   0)"/></g>
	</g>
<g color="white" fill="none" stroke="rgb(  0, 128,   0)" stroke-linecap="butt" stroke-linejoin="miter" stroke-width="2.00">
</g>
<g color="black" fill="none" stroke="currentColor" stroke-linecap="butt" stroke-linejoin="miter" stroke-width="2.00">
</g>
<g color="black" fill="none" stroke="black" stroke-linecap="butt" stroke-linejoin="miter" stroke-width="0.50">
</g>
<g color="black" fill="none" stroke="currentColor" stroke-linecap="butt" stroke-linejoin="miter" stroke-width="0.50">
</g>
</g>
</svg>