<svg height="420px" viewBox="0 0 560 420" width="560px" xmlns="http://www.w3.org/2000/svg" xmlns:xlink="http://www.w3.org/1999/xlink">

<title>Gnuplot</title>
<desc>Produced by GNUPLOT 5.0 patchlevel 3 </desc>

<g id="gnuplot_canvas">

<rect fill="none" height="420" width="560" x="0" y="0"/>
<defs>

	<circle id="gpDot" r="0.5" stroke-width="0.5"/>
	<path d="M-1,0 h2 M0,-1 v2" id="gpPt0" stroke="currentColor" stroke-width="0.222"/>
	<path d="M-1,-1 L1,1 M1,-1 L-1,1" id="gpPt1" stroke="currentColor" stroke-width="0.222"/>
	<path d="M-1,0 L1,0 M0,-1 L0,1 M-1,-1 L1,1 M-1,1 L1,-1" id="gpPt2" stroke="currentColor" stroke-width="0.222"/>
	<rect height="2" id="gpPt3" stroke="currentColor" stroke-width="0.222" width="2" x="-1" y="-1"/>
	<rect fill="currentColor" height="2" id="gpPt4" stroke="currentColor" stroke-width="0.222" width="2" x="-1" y="-1"/>
	<circle cx="0" cy="0" id="gpPt5" r="1" stroke="currentColor" stroke-width="0.222"/>
	<use fill="currentColor" id="gpPt6" stroke="none" xlink:href="#gpPt5"/>
	<path d="M0,-1.33 L-1.33,0.67 L1.33,0.67 z" id="gpPt7" stroke="currentColor" stroke-width="0.222"/>
	<use fill="currentColor" id="gpPt8" stroke="none" xlink:href="#gpPt7"/>
	<use id="gpPt9" stroke="currentColor" transform="rotate(180)" xlink:href="#gpPt7"/>
	<use fill="currentColor" id="gpPt10" stroke="none" xlink:href="#gpPt9"/>
	<use id="gpPt11" stroke="currentColor" transform="rotate(45)" xlink:href="#gpPt3"/>
	<use fill="currentColor" id="gpPt12" stroke="none" xlink:href="#gpPt11"/>
	<path d="M0,1.330 L1.265,0.411 L0.782,-1.067 L-0.782,-1.076 L-1.265,0.411 z" id="gpPt13" stroke="currentColor" stroke-width="0.222"/>
	<use fill="currentColor" id="gpPt14" stroke="none" xlink:href="#gpPt13"/>
	<filter filterUnits="objectBoundingBox" height="1" id="textbox" width="1" x="0" y="0">
	  <feFlood flood-color="white" flood-opacity="1" result="bgnd"/>
	  <feComposite in="SourceGraphic" in2="bgnd" operator="atop"/>
	</filter>
	<filter filterUnits="objectBoundingBox" height="1" id="greybox" width="1" x="0" y="0">
	  <feFlood flood-color="lightgrey" flood-opacity="1" result="grey"/>
	  <feComposite in="SourceGraphic" in2="grey" operator="atop"/>
	</filter>
</defs>
<g color="white" fill="none" stroke="currentColor" stroke-linecap="butt" stroke-linejoin="miter" stroke-width="1.00">
</g>
<g color="black" fill="none" stroke="currentColor" stroke-linecap="butt" stroke-linejoin="miter" stroke-width="1.00">
	<g shape-rendering="crispEdges" stroke="none">
		<polygon fill="rgb(255, 255, 255)" points="55.3,344.4 534.9,344.4 534.9,16.8 55.3,16.8 "/>
	</g>
</g>
<g color="black" fill="none" stroke="rgb(255, 255, 255)" stroke-linecap="butt" stroke-linejoin="miter" stroke-width="0.50">
</g>
<g color="black" fill="none" stroke="currentColor" stroke-linecap="butt" stroke-linejoin="miter" stroke-width="0.50">
	<path d="M55.3,344.4 L67.8,344.4 M535.0,344.4 L522.5,344.4  " stroke="black"/>	<g fill="rgb(0,0,0)" font-family="{}" font-size="16.00" stroke="none" text-anchor="end" transform="translate(47.0,350.4)">
		<text><tspan font-family="{}">0</tspan></text>
	</g>
</g>
<g color="black" fill="none" stroke="currentColor" stroke-linecap="butt" stroke-linejoin="miter" stroke-width="0.50">
	<path d="M55.3,262.5 L67.8,262.5 M535.0,262.5 L522.5,262.5  " stroke="black"/>	<g fill="rgb(0,0,0)" font-family="{}" font-size="16.00" stroke="none" text-anchor="end" transform="translate(47.0,268.5)">
		<text><tspan font-family="{}">5</tspan></text>
	</g>
</g>
<g color="black" fill="none" stroke="currentColor" stroke-linecap="butt" stroke-linejoin="miter" stroke-width="0.50">
	<path d="M55.3,180.5 L67.8,180.5 M535.0,180.5 L522.5,180.5  " stroke="black"/>	<g fill="rgb(0,0,0)" font-family="{}" font-size="16.00" stroke="none" text-anchor="end" transform="translate(47.0,186.5)">
		<text><tspan font-family="{}">10</tspan></text>
	</g>
</g>
<g color="black" fill="none" stroke="currentColor" stroke-linecap="butt" stroke-linejoin="miter" stroke-width="0.50">
	<path d="M55.3,98.6 L67.8,98.6 M535.0,98.6 L522.5,98.6  " stroke="black"/>	<g fill="rgb(0,0,0)" font-family="{}" font-size="16.00" stroke="none" text-anchor="end" transform="translate(47.0,104.6)">
		<text><tspan font-family="{}">15</tspan></text>
	</g>
</g>
<g color="black" fill="none" stroke="currentColor" stroke-linecap="butt" stroke-linejoin="miter" stroke-width="0.50">
	<path d="M55.3,16.7 L67.8,16.7 M535.0,16.7 L522.5,16.7  " stroke="black"/>	<g fill="rgb(0,0,0)" font-family="{}" font-size="16.00" stroke="none" text-anchor="end" transform="translate(47.0,22.7)">
		<text><tspan font-family="{}">20</tspan></text>
	</g>
</g>
<g color="black" fill="none" stroke="currentColor" stroke-linecap="butt" stroke-linejoin="miter" stroke-width="0.50">
	<path d="M55.3,344.4 L55.3,331.9 M55.3,16.7 L55.3,29.2  " stroke="black"/>	<g fill="rgb(0,0,0)" font-family="{}" font-size="16.00" stroke="none" text-anchor="middle" transform="translate(55.3,368.4)">
		<text><tspan font-family="{}">0</tspan></text>
	</g>
</g>
<g color="black" fill="none" stroke="currentColor" stroke-linecap="butt" stroke-linejoin="miter" stroke-width="0.50">
	<path d="M151.2,344.4 L151.2,331.9 M151.2,16.7 L151.2,29.2  " stroke="black"/>	<g fill="rgb(0,0,0)" font-family="{}" font-size="16.00" stroke="none" text-anchor="middle" transform="translate(151.2,368.4)">
		<text><tspan font-family="{}">1</tspan></text>
	</g>
</g>
<g color="black" fill="none" stroke="currentColor" stroke-linecap="butt" stroke-linejoin="miter" stroke-width="0.50">
	<path d="M247.2,344.4 L247.2,331.9 M247.2,16.7 L247.2,29.2  " stroke="black"/>	<g fill="rgb(0,0,0)" font-family="{}" font-size="16.00" stroke="none" text-anchor="middle" transform="translate(247.2,368.4)">
		<text><tspan font-family="{}">2</tspan></text>
	</g>
</g>
<g color="black" fill="none" stroke="currentColor" stroke-linecap="butt" stroke-linejoin="miter" stroke-width="0.50">
	<path d="M343.1,344.4 L343.1,331.9 M343.1,16.7 L343.1,29.2  " stroke="black"/>	<g fill="rgb(0,0,0)" font-family="{}" font-size="16.00" stroke="none" text-anchor="middle" transform="translate(343.1,368.4)">
		<text><tspan font-family="{}">3</tspan></text>
	</g>
</g>
<g color="black" fill="none" stroke="currentColor" stroke-linecap="butt" stroke-linejoin="miter" stroke-width="0.50">
	<path d="M439.1,344.4 L439.1,331.9 M439.1,16.7 L439.1,29.2  " stroke="black"/>	<g fill="rgb(0,0,0)" font-family="{}" font-size="16.00" stroke="none" text-anchor="middle" transform="translate(439.1,368.4)">
		<text><tspan font-family="{}">4</tspan></text>
	</g>
</g>
<g color="black" fill="none" stroke="currentColor" stroke-linecap="butt" stroke-linejoin="miter" stroke-width="0.50">
	<path d="M535.0,344.4 L535.0,331.9 M535.0,16.7 L535.0,29.2  " stroke="black"/>	<g fill="rgb(0,0,0)" font-family="{}" font-size="16.00" stroke="none" text-anchor="middle" transform="translate(535.0,368.4)">
		<text><tspan font-family="{}">5</tspan></text>
	</g>
</g>
<g color="black" fill="none" stroke="currentColor" stroke-linecap="butt" stroke-linejoin="miter" stroke-width="0.50">
</g>
<g color="black" fill="none" stroke="currentColor" stroke-linecap="butt" stroke-linejoin="miter" stroke-width="0.50">
	<path d="M55.3,16.7 L55.3,344.4 L535.0,344.4 L535.0,16.7 L55.3,16.7 Z  " stroke="black"/></g>
<g color="black" fill="none" stroke="currentColor" stroke-linecap="butt" stroke-linejoin="miter" stroke-width="0.50">
	<g fill="rgb(0,0,0)" font-family="{}" font-size="16.00" stroke="none" text-anchor="middle" transform="translate(19.1,180.6) rotate(-90)">
		<text><tspan font-family="{}">x</tspan><tspan dy="4.80px" font-family="{}" font-size="12.8">2</tspan><tspan dy="-4.80" font-size="16.0"/></text>
	</g>
</g>
<g color="black" fill="none" stroke="currentColor" stroke-linecap="butt" stroke-linejoin="miter" stroke-width="0.50">
	<g fill="rgb(0,0,0)" font-family="{}" font-size="16.00" stroke="none" text-anchor="middle" transform="translate(295.1,395.4)">
		<text><tspan font-family="{}">x</tspan><tspan dy="4.80px" font-family="{}" font-size="12.8">1</tspan><tspan dy="-4.80" font-size="16.0"/></text>
	</g>
</g>
<g color="black" fill="none" stroke="currentColor" stroke-linecap="butt" stroke-linejoin="miter" stroke-width="0.50">
</g>
	<g id="gnuplot_plot_1a"><title>gnuplot_plot_1a</title>
<g color="white" fill="none" stroke="currentColor" stroke-linecap="butt" stroke-linejoin="miter" stroke-width="3.00">
</g>
<g color="black" fill="none" stroke="currentColor" stroke-linecap="butt" stroke-linejoin="miter" stroke-width="3.00">
	<path d="M103.3,24.9 L105.7,41.1 L108.1,55.8 L110.5,69.3 L113.0,81.6 L115.4,93.0 L117.8,103.6 L120.2,113.4   L122.7,122.5 L125.1,131.0 L127.5,139.0 L129.9,146.5 L132.3,153.5 L134.8,160.2 L137.2,166.4 L139.6,172.3   L142.0,178.0 L144.5,183.3 L146.9,188.4 L149.3,193.2 L151.7,197.8 L154.1,202.3 L156.6,206.5 L159.0,210.5   L161.4,214.4 L163.8,218.1 L166.3,221.7 L168.7,225.1 L171.1,228.4 L173.5,231.6 L176.0,234.7 L178.4,237.7   L180.8,240.6 L183.2,243.4 L185.6,246.1 L188.1,248.7 L190.5,251.2 L192.9,253.7 L195.3,256.1 L197.8,258.4   L200.2,260.6 L202.6,262.8 L205.0,265.0 L207.4,267.1 L209.9,269.1 L212.3,271.1 L214.7,273.0 L217.1,274.9   L219.6,276.8 L222.0,278.6 L224.4,280.3 L226.8,282.0 L229.3,283.7 L231.7,285.4 L234.1,287.0 L236.5,288.6   L238.9,290.2 L241.4,291.7 L243.8,293.2 L246.2,294.7 L248.6,296.1 L251.1,297.5 L253.5,298.9 L255.9,300.3   L258.3,301.6 L260.7,303.0 L263.2,304.3 L265.6,305.6 L268.0,306.8 L270.4,308.1 L272.9,309.3 L275.3,310.5   L277.7,311.7 L280.1,312.9 L282.6,314.0 L285.0,315.2 L287.4,316.3 L289.8,317.4 L292.2,318.5 L294.7,319.6   L297.1,320.7 L299.5,321.7 L301.9,322.8 L304.4,323.8 L306.8,324.8 L309.2,325.8 L311.6,326.8 L314.0,327.8   L316.5,328.8 L318.9,329.8 L321.3,330.7 L323.7,331.7 L326.2,332.6 L328.6,333.6 L331.0,334.5 L333.4,335.4   L335.9,336.3 L338.3,337.2 L340.7,338.1 L343.1,338.9  " stroke="rgb(  0,   0, 255)"/></g>
	</g>
	<g id="gnuplot_plot_2a"><title>gnuplot_plot_2a</title>
<g color="black" fill="none" stroke="currentColor" stroke-linecap="butt" stroke-linejoin="miter" stroke-width="3.00">
	<path d="M495.0,311.6 L469.1,310.6 L445.3,309.6 L423.6,308.7 L403.5,307.7 L385.1,306.7 L368.1,305.7 L352.3,304.7   L337.7,303.7 L324.1,302.7 L311.4,301.7 L299.6,300.7 L288.6,299.7 L278.4,298.7 L268.7,297.7 L259.7,296.7   L251.2,295.7 L243.3,294.7 L235.8,293.8 L228.7,292.8 L222.0,291.8 L215.7,290.8 L209.8,289.8 L204.1,288.8   L198.8,287.8 L193.7,286.8 L188.9,285.8 L184.4,284.8 L180.0,283.8 L175.9,282.8 L172.0,281.8 L168.2,280.8   L164.6,279.9 L161.2,278.9 L158.0,277.9 L154.9,276.9 L151.9,275.9 L149.0,274.9 L146.3,273.9 L143.7,272.9   L141.2,271.9 L138.8,270.9 L136.5,269.9 L134.3,268.9 L132.1,267.9 L130.1,266.9 L128.1,266.0 L126.2,265.0   L124.4,264.0 L122.7,263.0 L121.0,262.0 L119.4,261.0 L117.8,260.0 L116.3,259.0 L114.8,258.0 L113.4,257.0   L112.0,256.0 L110.7,255.0 L109.4,254.0 L108.2,253.0 L107.0,252.0 L105.9,251.1 L104.7,250.1 L103.7,249.1   L102.6,248.1 L101.6,247.1 L100.6,246.1 L99.7,245.1 L98.7,244.1 L97.8,243.1 L97.0,242.1 L96.1,241.1   L95.3,240.1 L94.5,239.1 L93.7,238.1 L93.0,237.2 L92.2,236.2 L91.5,235.2 L90.8,234.2 L90.2,233.2   L89.5,232.2 L88.9,231.2 L88.2,230.2 L87.6,229.2 L87.0,228.2 L86.5,227.2 L85.9,226.2 L85.4,225.2   L84.8,224.2 L84.3,223.3 L83.8,222.3 L83.3,221.3 L82.8,220.3 L82.4,219.3 L81.9,218.3 L81.5,217.3   L81.0,216.3 L80.6,215.3 L80.2,214.3 L79.8,213.3  " stroke="rgb(  0, 128,   0)"/></g>
	</g>
	<g id="gnuplot_plot_3a"><title>gnuplot_plot_3a</title>
<g color="black" fill="none" stroke="currentColor" stroke-linecap="butt" stroke-linejoin="miter" stroke-width="3.00">
	<g onmousemove="gnuplot_svg.showHypertext(evt,'')" onmouseout="gnuplot_svg.hideHypertext()"><title> </title>
	<use color="rgb(  0,   0, 255)" transform="translate(247.2,295.2) scale(9.00)" xlink:href="#gpPt5"/></g>
</g>
	</g>
<g color="white" fill="none" stroke="rgb(  0,   0, 255)" stroke-linecap="butt" stroke-linejoin="miter" stroke-width="2.00">
</g>
<g color="black" fill="none" stroke="currentColor" stroke-linecap="butt" stroke-linejoin="miter" stroke-width="2.00">
</g>
<g color="black" fill="none" stroke="black" stroke-linecap="butt" stroke-linejoin="miter" stroke-width="0.50">
</g>
<g color="black" fill="none" stroke="currentColor" stroke-linecap="butt" stroke-linejoin="miter" stroke-width="0.50">
</g>
</g>
</svg>