<svg height="420px" viewBox="0 0 560 420" width="560px" xmlns="http://www.w3.org/2000/svg" xmlns:xlink="http://www.w3.org/1999/xlink">

<title>Gnuplot</title>
<desc>Produced by GNUPLOT 5.0 patchlevel 3 </desc>

<g id="gnuplot_canvas">

<rect fill="none" height="420" width="560" x="0" y="0"/>
<defs>

	<circle id="gpDot" r="0.5" stroke-width="0.5"/>
	<path d="M-1,0 h2 M0,-1 v2" id="gpPt0" stroke="currentColor" stroke-width="0.222"/>
	<path d="M-1,-1 L1,1 M1,-1 L-1,1" id="gpPt1" stroke="currentColor" stroke-width="0.222"/>
	<path d="M-1,0 L1,0 M0,-1 L0,1 M-1,-1 L1,1 M-1,1 L1,-1" id="gpPt2" stroke="currentColor" stroke-width="0.222"/>
	<rect height="2" id="gpPt3" stroke="currentColor" stroke-width="0.222" width="2" x="-1" y="-1"/>
	<rect fill="currentColor" height="2" id="gpPt4" stroke="currentColor" stroke-width="0.222" width="2" x="-1" y="-1"/>
	<circle cx="0" cy="0" id="gpPt5" r="1" stroke="currentColor" stroke-width="0.222"/>
	<use fill="currentColor" id="gpPt6" stroke="none" xlink:href="#gpPt5"/>
	<path d="M0,-1.33 L-1.33,0.67 L1.33,0.67 z" id="gpPt7" stroke="currentColor" stroke-width="0.222"/>
	<use fill="currentColor" id="gpPt8" stroke="none" xlink:href="#gpPt7"/>
	<use id="gpPt9" stroke="currentColor" transform="rotate(180)" xlink:href="#gpPt7"/>
	<use fill="currentColor" id="gpPt10" stroke="none" xlink:href="#gpPt9"/>
	<use id="gpPt11" stroke="currentColor" transform="rotate(45)" xlink:href="#gpPt3"/>
	<use fill="currentColor" id="gpPt12" stroke="none" xlink:href="#gpPt11"/>
	<path d="M0,1.330 L1.265,0.411 L0.782,-1.067 L-0.782,-1.076 L-1.265,0.411 z" id="gpPt13" stroke="currentColor" stroke-width="0.222"/>
	<use fill="currentColor" id="gpPt14" stroke="none" xlink:href="#gpPt13"/>
	<filter filterUnits="objectBoundingBox" height="1" id="textbox" width="1" x="0" y="0">
	  <feFlood flood-color="white" flood-opacity="1" result="bgnd"/>
	  <feComposite in="SourceGraphic" in2="bgnd" operator="atop"/>
	</filter>
	<filter filterUnits="objectBoundingBox" height="1" id="greybox" width="1" x="0" y="0">
	  <feFlood flood-color="lightgrey" flood-opacity="1" result="grey"/>
	  <feComposite in="SourceGraphic" in2="grey" operator="atop"/>
	</filter>
</defs>
<g color="white" fill="none" stroke="currentColor" stroke-linecap="butt" stroke-linejoin="miter" stroke-width="1.00">
</g>
<g color="black" fill="none" stroke="currentColor" stroke-linecap="butt" stroke-linejoin="miter" stroke-width="1.00">
	<g shape-rendering="crispEdges" stroke="none">
		<polygon fill="rgb(255, 255, 255)" points="37.3,384.0 534.9,384.0 534.9,16.8 37.3,16.8 "/>
	</g>
</g>
<g color="black" fill="none" stroke="rgb(255, 255, 255)" stroke-linecap="butt" stroke-linejoin="miter" stroke-width="0.50">
</g>
<g color="black" fill="none" stroke="currentColor" stroke-linecap="butt" stroke-linejoin="miter" stroke-width="0.50">
	<path d="M37.3,384.0 L49.8,384.0 M535.0,384.0 L522.5,384.0  " stroke="black"/>	<g fill="rgb(0,0,0)" font-family="{}" font-size="16.00" stroke="none" text-anchor="end" transform="translate(29.0,390.0)">
		<text><tspan font-family="{}">0</tspan></text>
	</g>
</g>
<g color="black" fill="none" stroke="currentColor" stroke-linecap="butt" stroke-linejoin="miter" stroke-width="0.50">
	<path d="M37.3,292.2 L49.8,292.2 M535.0,292.2 L522.5,292.2  " stroke="black"/>	<g fill="rgb(0,0,0)" font-family="{}" font-size="16.00" stroke="none" text-anchor="end" transform="translate(29.0,298.2)">
		<text><tspan font-family="{}">5</tspan></text>
	</g>
</g>
<g color="black" fill="none" stroke="currentColor" stroke-linecap="butt" stroke-linejoin="miter" stroke-width="0.50">
	<path d="M37.3,200.3 L49.8,200.3 M535.0,200.3 L522.5,200.3  " stroke="black"/>	<g fill="rgb(0,0,0)" font-family="{}" font-size="16.00" stroke="none" text-anchor="end" transform="translate(29.0,206.3)">
		<text><tspan font-family="{}">10</tspan></text>
	</g>
</g>
<g color="black" fill="none" stroke="currentColor" stroke-linecap="butt" stroke-linejoin="miter" stroke-width="0.50">
	<path d="M37.3,108.5 L49.8,108.5 M535.0,108.5 L522.5,108.5  " stroke="black"/>	<g fill="rgb(0,0,0)" font-family="{}" font-size="16.00" stroke="none" text-anchor="end" transform="translate(29.0,114.5)">
		<text><tspan font-family="{}">15</tspan></text>
	</g>
</g>
<g color="black" fill="none" stroke="currentColor" stroke-linecap="butt" stroke-linejoin="miter" stroke-width="0.50">
	<path d="M37.3,16.7 L49.8,16.7 M535.0,16.7 L522.5,16.7  " stroke="black"/>	<g fill="rgb(0,0,0)" font-family="{}" font-size="16.00" stroke="none" text-anchor="end" transform="translate(29.0,22.7)">
		<text><tspan font-family="{}">20</tspan></text>
	</g>
</g>
<g color="black" fill="none" stroke="currentColor" stroke-linecap="butt" stroke-linejoin="miter" stroke-width="0.50">
	<path d="M37.3,384.0 L37.3,371.5 M37.3,16.7 L37.3,29.2  " stroke="black"/>	<g fill="rgb(0,0,0)" font-family="{}" font-size="16.00" stroke="none" text-anchor="middle" transform="translate(37.3,408.0)">
		<text><tspan font-family="{}">0</tspan></text>
	</g>
</g>
<g color="black" fill="none" stroke="currentColor" stroke-linecap="butt" stroke-linejoin="miter" stroke-width="0.50">
	<path d="M136.8,384.0 L136.8,371.5 M136.8,16.7 L136.8,29.2  " stroke="black"/>	<g fill="rgb(0,0,0)" font-family="{}" font-size="16.00" stroke="none" text-anchor="middle" transform="translate(136.8,408.0)">
		<text><tspan font-family="{}">1</tspan></text>
	</g>
</g>
<g color="black" fill="none" stroke="currentColor" stroke-linecap="butt" stroke-linejoin="miter" stroke-width="0.50">
	<path d="M236.4,384.0 L236.4,371.5 M236.4,16.7 L236.4,29.2  " stroke="black"/>	<g fill="rgb(0,0,0)" font-family="{}" font-size="16.00" stroke="none" text-anchor="middle" transform="translate(236.4,408.0)">
		<text><tspan font-family="{}">2</tspan></text>
	</g>
</g>
<g color="black" fill="none" stroke="currentColor" stroke-linecap="butt" stroke-linejoin="miter" stroke-width="0.50">
	<path d="M335.9,384.0 L335.9,371.5 M335.9,16.7 L335.9,29.2  " stroke="black"/>	<g fill="rgb(0,0,0)" font-family="{}" font-size="16.00" stroke="none" text-anchor="middle" transform="translate(335.9,408.0)">
		<text><tspan font-family="{}">3</tspan></text>
	</g>
</g>
<g color="black" fill="none" stroke="currentColor" stroke-linecap="butt" stroke-linejoin="miter" stroke-width="0.50">
	<path d="M435.5,384.0 L435.5,371.5 M435.5,16.7 L435.5,29.2  " stroke="black"/>	<g fill="rgb(0,0,0)" font-family="{}" font-size="16.00" stroke="none" text-anchor="middle" transform="translate(435.5,408.0)">
		<text><tspan font-family="{}">4</tspan></text>
	</g>
</g>
<g color="black" fill="none" stroke="currentColor" stroke-linecap="butt" stroke-linejoin="miter" stroke-width="0.50">
	<path d="M535.0,384.0 L535.0,371.5 M535.0,16.7 L535.0,29.2  " stroke="black"/>	<g fill="rgb(0,0,0)" font-family="{}" font-size="16.00" stroke="none" text-anchor="middle" transform="translate(535.0,408.0)">
		<text><tspan font-family="{}">5</tspan></text>
	</g>
</g>
<g color="black" fill="none" stroke="currentColor" stroke-linecap="butt" stroke-linejoin="miter" stroke-width="0.50">
</g>
<g color="black" fill="none" stroke="currentColor" stroke-linecap="butt" stroke-linejoin="miter" stroke-width="0.50">
	<path d="M37.3,16.7 L37.3,384.0 L535.0,384.0 L535.0,16.7 L37.3,16.7 Z  " stroke="black"/></g>
<g color="black" fill="none" stroke="currentColor" stroke-linecap="butt" stroke-linejoin="miter" stroke-width="0.50">
</g>
	<g id="gnuplot_plot_1a"><title>gnuplot_plot_1a</title>
<g color="white" fill="none" stroke="black" stroke-linecap="butt" stroke-linejoin="miter" stroke-width="3.00">
</g>
<g color="black" fill="none" stroke="currentColor" stroke-linecap="butt" stroke-linejoin="miter" stroke-width="3.00">
	<path d="M87.1,25.9 L89.6,44.0 L92.1,60.5 L94.6,75.6 L97.1,89.5 L99.6,102.3 L102.2,114.1 L104.7,125.1   L107.2,135.3 L109.7,144.8 L112.2,153.8 L114.7,162.2 L117.2,170.1 L119.7,177.5 L122.3,184.5 L124.8,191.2   L127.3,197.5 L129.8,203.4 L132.3,209.1 L134.8,214.6 L137.3,219.7 L139.9,224.7 L142.4,229.4 L144.9,233.9   L147.4,238.3 L149.9,242.4 L152.4,246.5 L154.9,250.3 L157.5,254.0 L160.0,257.6 L162.5,261.1 L165.0,264.4   L167.5,267.6 L170.0,270.7 L172.5,273.8 L175.0,276.7 L177.6,279.5 L180.1,282.3 L182.6,285.0 L185.1,287.6   L187.6,290.1 L190.1,292.6 L192.6,295.0 L195.2,297.3 L197.7,299.6 L200.2,301.8 L202.7,304.0 L205.2,306.1   L207.7,308.2 L210.2,310.2 L212.8,312.2 L215.3,314.1 L217.8,316.0 L220.3,317.9 L222.8,319.7 L225.3,321.5   L227.8,323.2 L230.3,324.9 L232.9,326.6 L235.4,328.3 L237.9,329.9 L240.4,331.5 L242.9,333.0 L245.4,334.6   L247.9,336.1 L250.5,337.6 L253.0,339.0 L255.5,340.5 L258.0,341.9 L260.5,343.3 L263.0,344.7 L265.5,346.0   L268.1,347.4 L270.6,348.7 L273.1,350.0 L275.6,351.3 L278.1,352.5 L280.6,353.8 L283.1,355.0 L285.6,356.2   L288.2,357.4 L290.7,358.6 L293.2,359.8 L295.7,360.9 L298.2,362.1 L300.7,363.2 L303.2,364.3 L305.8,365.4   L308.3,366.5 L310.8,367.6 L313.3,368.7 L315.8,369.7 L318.3,370.8 L320.8,371.8 L323.4,372.9 L325.9,373.9   L328.4,374.9 L330.9,375.9 L333.4,376.9 L335.9,377.9  " stroke="rgb(  0,   0, 255)"/></g>
	</g>
	<g id="gnuplot_plot_2a"><title>gnuplot_plot_2a</title>
<g color="black" fill="none" stroke="currentColor" stroke-linecap="butt" stroke-linejoin="miter" stroke-width="3.00">
	<path d="M493.5,347.3 L466.6,346.2 L442.0,345.0 L419.4,343.9 L398.6,342.8 L379.5,341.7 L361.8,340.6 L345.4,339.5   L330.3,338.4 L316.2,337.3 L303.0,336.1 L290.8,335.0 L279.4,333.9 L268.7,332.8 L258.7,331.7 L249.4,330.6   L240.6,329.5 L232.3,328.3 L224.5,327.2 L217.2,326.1 L210.3,325.0 L203.7,323.9 L197.6,322.8 L191.7,321.7   L186.2,320.6 L180.9,319.4 L175.9,318.3 L171.2,317.2 L166.7,316.1 L162.4,315.0 L158.3,313.9 L154.5,312.8   L150.7,311.7 L147.2,310.5 L143.8,309.4 L140.6,308.3 L137.5,307.2 L134.6,306.1 L131.7,305.0 L129.0,303.9   L126.4,302.7 L123.9,301.6 L121.5,300.5 L119.2,299.4 L117.0,298.3 L114.9,297.2 L112.9,296.1 L110.9,295.0   L109.0,293.8 L107.2,292.7 L105.4,291.6 L103.8,290.5 L102.1,289.4 L100.6,288.3 L99.0,287.2 L97.6,286.1   L96.2,284.9 L94.8,283.8 L93.5,282.7 L92.2,281.6 L90.9,280.5 L89.7,279.4 L88.6,278.3 L87.5,277.1   L86.4,276.0 L85.3,274.9 L84.3,273.8 L83.3,272.7 L82.4,271.6 L81.4,270.5 L80.5,269.4 L79.6,268.2   L78.8,267.1 L78.0,266.0 L77.2,264.9 L76.4,263.8 L75.6,262.7 L74.9,261.6 L74.2,260.5 L73.5,259.3   L72.8,258.2 L72.1,257.1 L71.5,256.0 L70.8,254.9 L70.2,253.8 L69.6,252.7 L69.1,251.5 L68.5,250.4   L67.9,249.3 L67.4,248.2 L66.9,247.1 L66.4,246.0 L65.9,244.9 L65.4,243.8 L64.9,242.6 L64.4,241.5   L64.0,240.4 L63.6,239.3 L63.1,238.2 L62.7,237.1  " stroke="rgb(  0, 128,   0)"/></g>
	</g>
	<g id="gnuplot_plot_3a"><title>gnuplot_plot_3a</title>
<g color="black" fill="none" stroke="currentColor" stroke-linecap="butt" stroke-linejoin="miter" stroke-width="3.00">
	<g onmousemove="gnuplot_svg.showHypertext(evt,'')" onmouseout="gnuplot_svg.hideHypertext()"><title> </title>
	<use color="rgb(  0,   0, 255)" transform="translate(236.4,328.9) scale(9.00)" xlink:href="#gpPt5"/></g>
</g>
	</g>
<g color="white" fill="none" stroke="rgb(  0,   0, 255)" stroke-linecap="butt" stroke-linejoin="miter" stroke-width="2.00">
</g>
<g color="black" fill="none" stroke="currentColor" stroke-linecap="butt" stroke-linejoin="miter" stroke-width="2.00">
</g>
<g color="black" fill="none" stroke="black" stroke-linecap="butt" stroke-linejoin="miter" stroke-width="0.50">
</g>
<g color="black" fill="none" stroke="currentColor" stroke-linecap="butt" stroke-linejoin="miter" stroke-width="0.50">
</g>
</g>
</svg>